<svg xmlns="http://www.w3.org/2000/svg" xmlns:xlink="http://www.w3.org/1999/xlink" version="1.1" x="0px" y="0px" width="33" height="33" viewBox="0 0 50 62.5" style="enable-background:new 0 0 50 50;" xml:space="preserve">
    <g>
        <path 
        d="M10.4,27.5c-1,0-1.9-0.6-2.3-1.5H1c0.4,2.9,2.5,5.3,5.3,6c-0.9,3.6,1,6.9,3.9,8.4c0.1,4,3.3,7.1,7.3,7.1   
        c2.7,0,5.1-1.5,6.4-3.8V31.8h-5.2v3.1c0.9,0.4,1.5,1.3,1.5,2.3c0,1.4-1.1,2.5-2.5,2.5c-1.4,0-2.5-1.1-2.5-2.5c0-1,0.6-1.9,1.5-2.3   
        v-5.1H24v-8.9h-5.8v-4.1h-2.4c-0.4,0.9-1.3,1.5-2.3,1.5c-1.4,0-2.5-1.1-2.5-2.5c0-1.4,1.1-2.5,2.5-2.5c1,0,1.9,0.6,2.3,1.5h4.4v4.1   
        H24V6.2c-1.3-2.3-3.6-3.8-6.4-3.8c-3.9,0-7.2,3.1-7.3,7.1c-3,1.4-4.8,4.9-3.9,8.4c-2.8,0.8-4.9,3.1-5.3,6h7.1   
        c0.4-0.9,1.3-1.5,2.3-1.5c1.4,0,2.5,1.1,2.5,2.5S11.8,27.5,10.4,27.5z"/>

        <path d="M43.6,17.9c0.9-3.4-0.9-6.9-3.9-8.4c-0.1-4-3.4-7.1-7.3-7.1c-2.7,0-5.1,1.5-6.4,3.8v5.5h5c0.4-0.9,1.3-1.5,2.3-1.5   
        c1.4,0,2.5,1.1,2.5,2.5c0,1.4-1.1,2.5-2.5,2.5c-1,0-1.9-0.6-2.3-1.5h-5v24h3.8V33h4.6c0.4-0.9,1.3-1.5,2.3-1.5   
        c1.4,0,2.5,1.1,2.5,2.5c0,1.4-1.1,2.5-2.5,2.5c-1,0-1.9-0.6-2.3-1.5h-2.6v4.7H26v4c1.3,2.3,3.6,3.8,6.4,3.8c4,0,7.2-3.2,7.3-7.1   
        c3-1.4,4.8-4.8,3.9-8.4c0.3-0.1,0.5-0.2,0.8-0.3v-4H36v-5c-0.9-0.4-1.5-1.3-1.5-2.3c0-1.4,1.1-2.5,2.5-2.5c1.4,0,2.5,1.1,2.5,2.5   
        c0,1-0.6,1.9-1.5,2.3v3h8.3v4.8C48,29.3,49,27.2,49,25C49,21.7,46.7,18.8,43.6,17.9z"/>
    </g>
</svg>