<?xml version="1.0" encoding="UTF-8"?>
<svg version="1.1" xmlns="http://www.w3.org/2000/svg" width="600" height="600">
    <path d="M0 0 C1.00039307 0.27287842 1.00039307 0.27287842 2.02099609 0.55126953 C20.55423686 5.71914803 37.3880007 15.63066515 52 28 C52.8353125 28.69996094 53.670625 29.39992187 54.53125 30.12109375 C76.07058719 48.76857548 87.49724231 73.47591075 96 100 C96.94875 100.12375 97.8975 100.2475 98.875 100.375 C102 101 102 101 104 103 C104.25396729 105.42895508 104.25396729 105.42895508 104.25878906 108.51953125 C104.26509338 109.67412842 104.27139771 110.82872559 104.27789307 112.01831055 C104.27182037 113.89643433 104.27182037 113.89643433 104.265625 115.8125 C104.26753845 117.09229736 104.2694519 118.37209473 104.27142334 119.69067383 C104.27437382 122.40092793 104.27007955 125.11105027 104.26074219 127.82128906 C104.24934753 131.29849231 104.25590743 134.77538682 104.26788712 138.25257874 C104.27684425 141.56424404 104.27057635 144.87582591 104.265625 148.1875 C104.26967346 149.43958252 104.27372192 150.69166504 104.27789307 151.98168945 C104.26843658 153.71358521 104.26843658 153.71358521 104.25878906 155.48046875 C104.25719788 156.50035889 104.25560669 157.52024902 104.25396729 158.57104492 C104 161 104 161 102 163 C99.31160615 163.26991906 96.70858064 163.08737357 94 163 C93.84144531 163.65484375 93.68289063 164.3096875 93.51953125 164.984375 C91.64668732 172.31019546 89.11433919 179.1147373 86 186 C85.33677734 187.46953125 85.33677734 187.46953125 84.66015625 188.96875 C72.0435551 215.53001557 50.00516473 236.63205582 24 250 C23.34 250 22.68 250 22 250 C22.7108864 251.61235085 23.4445822 253.21465525 24.1875 254.8125 C24.59355469 255.70582031 24.99960937 256.59914063 25.41796875 257.51953125 C28.3766674 262.15847852 32.16057554 263.13517886 37.30078125 264.38671875 C39.30270231 264.82938776 41.30670518 265.26272835 43.3125 265.6875 C44.33923828 265.91244141 45.36597656 266.13738281 46.42382812 266.36914062 C48.94758113 266.92084477 51.4728384 267.46416669 54 268 C54 268.66 54 269.32 54 270 C50.71010715 270.51214451 47.41787138 271.00740064 44.125 271.5 C43.2071875 271.64308594 42.289375 271.78617187 41.34375 271.93359375 C25.54118546 274.27059273 25.54118546 274.27059273 21 272 C19.48595955 288.99163301 18.51460211 305.94909827 18 323 C24.52792835 326.14341288 31.08094094 328.34549676 38.0625 330.25 C39.02349609 330.518125 39.98449219 330.78625 40.97460938 331.0625 C43.31477718 331.71448705 45.6564801 332.36018798 48 333 C48 333.66 48 334.32 48 335 C43.30442353 335.09954745 38.60947337 335.17178467 33.91308594 335.21972656 C32.31857592 335.23973053 30.72413822 335.26694301 29.12988281 335.30175781 C11.96176333 335.66703695 11.96176333 335.66703695 6 331 C1.97490043 324.91744588 2.23522496 317.67126004 1.8125 310.5625 C1.73064453 309.35400391 1.64878906 308.14550781 1.56445312 306.90039062 C1.36513988 303.93414055 1.17733834 300.96763132 1 298 C0.90114292 302.92954646 0.82853875 307.85851647 0.78027344 312.78881836 C0.76015435 314.46600392 0.73285549 316.14311931 0.69824219 317.82006836 C0.64973431 320.230482 0.62703536 322.63996872 0.609375 325.05078125 C0.57840729 326.17592888 0.57840729 326.17592888 0.54681396 327.32380676 C0.54067656 331.45401102 0.54067656 331.45401102 2.60351562 334.89648438 C5.62060426 336.28577132 8.47308681 336.96179345 11.734375 337.60546875 C12.37240051 337.73440018 13.01042603 337.8633316 13.66778564 337.99617004 C15.69336868 338.40315754 17.72146716 338.79550949 19.75 339.1875 C21.1290983 339.46192728 22.50800727 339.7373078 23.88671875 340.01367188 C27.2560674 340.68518542 30.62704347 341.34689371 34 342 C34 342.66 34 343.32 34 344 C-0.26752106 346.58274721 -0.26752106 346.58274721 -9 342 C-13.22619241 337.77380759 -14.12612474 334.73395364 -14.53515625 328.8984375 C-14.62216797 327.68671875 -14.70917969 326.475 -14.79882812 325.2265625 C-14.9293457 323.32003906 -14.9293457 323.32003906 -15.0625 321.375 C-15.19881836 319.456875 -15.19881836 319.456875 -15.33789062 317.5 C-15.56237562 314.33358006 -15.78290923 311.16693409 -16 308 C-16.12375079 312.7687841 -16.21440646 317.53663077 -16.2746582 322.30664062 C-16.29977772 323.92855105 -16.33388028 325.55034854 -16.37719727 327.171875 C-16.43796853 329.50549171 -16.46623294 331.83761048 -16.48828125 334.171875 C-16.52699089 335.25647003 -16.52699089 335.25647003 -16.56648254 336.36297607 C-16.56852881 340.04964579 -16.32029918 341.6575521 -13.76513672 344.3894043 C-11.21948335 345.8721586 -9.10206443 346.83990668 -6.26953125 347.59765625 C-4.94018555 347.96407227 -4.94018555 347.96407227 -3.58398438 348.33789062 C-2.66939453 348.57701172 -1.75480469 348.81613281 -0.8125 349.0625 C0.99366838 349.55272713 2.79965869 350.04361084 4.60546875 350.53515625 C5.49024902 350.77250488 6.3750293 351.00985352 7.28662109 351.25439453 C11.5477738 352.42531053 15.77448886 353.7071751 20 355 C20 355.33 20 355.66 20 356 C14.59233876 356.09940554 9.18521772 356.17172051 3.77685547 356.21972656 C1.93984707 356.23975373 0.10290171 356.26698382 -1.73388672 356.30175781 C-4.38525002 356.35067065 -7.03576541 356.37305763 -9.6875 356.390625 C-10.49928711 356.41127014 -11.31107422 356.43191528 -12.14746094 356.45318604 C-18.66223992 356.4557088 -24.04730801 354.88718378 -28.79370117 350.24609375 C-32.04596235 344.70625682 -33.30716021 339.31057443 -34.3125 333 C-34.48072266 332.03449219 -34.64894531 331.06898438 -34.82226562 330.07421875 C-35.2304634 327.71833445 -35.62261441 325.3609806 -36 323 C-36.33 323 -36.66 323 -37 323 C-37.13575439 323.6705542 -37.27150879 324.3411084 -37.41137695 325.03198242 C-38.03536396 328.08590104 -38.6737758 331.13663114 -39.3125 334.1875 C-39.52583984 335.24259766 -39.73917969 336.29769531 -39.95898438 337.38476562 C-40.17490234 338.40634766 -40.39082031 339.42792969 -40.61328125 340.48046875 C-40.90392456 341.88655396 -40.90392456 341.88655396 -41.20043945 343.32104492 C-42.9548518 349.19926374 -45.75114095 351.93816555 -51 355 C-54.9476427 356.3158809 -58.71089356 356.12300273 -62.82421875 356.09765625 C-63.68561966 356.0962413 -64.54702057 356.09482635 -65.43452454 356.09336853 C-68.18555169 356.0877714 -70.93649744 356.07521946 -73.6875 356.0625 C-75.5527332 356.05748463 -77.41796767 356.05292179 -79.28320312 356.04882812 C-83.85550011 356.03780292 -88.42773625 356.02054027 -93 356 C-90.50822059 353.50822059 -88.73277482 353.24166708 -85.328125 352.37890625 C-83.61882812 351.93514648 -83.61882812 351.93514648 -81.875 351.48242188 C-80.67875 351.17884766 -79.4825 350.87527344 -78.25 350.5625 C-75.89944768 349.96588055 -73.55042402 349.36319952 -71.203125 348.75390625 C-69.63546387 348.35667358 -69.63546387 348.35667358 -68.03613281 347.95141602 C-63.82210981 346.63089112 -60.14618527 345.14618527 -57 342 C-56.82489614 339.34708243 -56.76844517 336.80013826 -56.8046875 334.1484375 C-56.80893234 332.98738998 -56.80893234 332.98738998 -56.81326294 331.80288696 C-56.82447246 329.32676843 -56.84957797 326.8510095 -56.875 324.375 C-56.88502882 322.69792188 -56.89415484 321.02083811 -56.90234375 319.34375 C-56.92441426 315.22902777 -56.95894898 311.11457489 -57 307 C-57.03963867 307.81678223 -57.07927734 308.63356445 -57.12011719 309.47509766 C-57.31121091 313.19297904 -57.53031741 316.90870283 -57.75 320.625 C-57.811875 321.91019531 -57.87375 323.19539063 -57.9375 324.51953125 C-58.01484375 325.76347656 -58.0921875 327.00742187 -58.171875 328.2890625 C-58.2347168 329.43068848 -58.29755859 330.57231445 -58.36230469 331.74853516 C-59.12570951 335.64096447 -60.55104361 337.90543005 -63 341 C-69.09013935 344.75774556 -74.79888868 345.16984099 -81.8125 345.125 C-82.54718506 345.12306641 -83.28187012 345.12113281 -84.03881836 345.11914062 C-91.71277448 345.06021721 -99.34989864 344.57658907 -107 344 C-107 343.34 -107 342.68 -107 342 C-106.14245117 341.83395264 -105.28490234 341.66790527 -104.40136719 341.49682617 C-101.20903548 340.87345227 -98.01877222 340.24059311 -94.82958984 339.60131836 C-93.45110816 339.32701377 -92.07187441 339.05646007 -90.69189453 338.78979492 C-88.70393777 338.40495974 -86.71911118 338.00654185 -84.734375 337.60546875 C-83.54038086 337.36981201 -82.34638672 337.13415527 -81.11621094 336.89135742 C-77.03212297 335.76222291 -77.03212297 335.76222291 -74 333 C-73.64400922 330.21427646 -73.53289196 327.82963409 -73.609375 325.05078125 C-73.61786469 323.89185616 -73.61786469 323.89185616 -73.62652588 322.70951843 C-73.64890673 320.24321371 -73.69910297 317.77836508 -73.75 315.3125 C-73.77006294 313.63999495 -73.78831408 311.96746711 -73.8046875 310.29492188 C-73.84877669 306.19605404 -73.91781325 302.09827383 -74 298 C-74.03963867 298.74572266 -74.07927734 299.49144531 -74.12011719 300.25976562 C-74.31194273 303.67447228 -74.5307462 307.08694913 -74.75 310.5 C-74.811875 311.67304688 -74.87375 312.84609375 -74.9375 314.0546875 C-75.8581703 327.7112969 -75.8581703 327.7112969 -80 332 C-85.10102805 334.74664639 -89.3277723 335.41974314 -95.12109375 335.29296875 C-95.86585464 335.28872391 -96.61061554 335.28447906 -97.37794495 335.28010559 C-99.73151473 335.26345724 -102.08419379 335.22583375 -104.4375 335.1875 C-106.04360733 335.17243515 -107.64972823 335.15874991 -109.25585938 335.14648438 C-113.17091047 335.11359952 -117.08530479 335.06191626 -121 335 C-121 334.34 -121 333.68 -121 333 C-119.95658447 332.7054895 -119.95658447 332.7054895 -118.89208984 332.4050293 C-115.71794392 331.50534426 -112.54648653 330.59651315 -109.375 329.6875 C-108.28058594 329.37876953 -107.18617188 329.07003906 -106.05859375 328.75195312 C-100.76069502 327.22680046 -95.79968943 325.73666503 -91 323 C-91.51460211 305.94909827 -92.48595955 288.99163301 -94 272 C-94.66 272.33 -95.32 272.66 -96 273 C-102.97597651 273.5221387 -109.75600764 272.62956763 -116.625 271.5 C-117.53378906 271.35691406 -118.44257813 271.21382813 -119.37890625 271.06640625 C-121.58711883 270.71774111 -123.79397643 270.36221173 -126 270 C-126 269.34 -126 268.68 -126 268 C-125.35973877 267.86948242 -124.71947754 267.73896484 -124.05981445 267.60449219 C-121.14081692 267.00087151 -118.22684555 266.37567871 -115.3125 265.75 C-114.30509766 265.54503906 -113.29769531 265.34007812 -112.25976562 265.12890625 C-104.83838696 263.58759563 -104.83838696 263.58759563 -99 259 C-97.49566467 256.40083765 -96.19627229 253.75343119 -95 251 C-95.48766846 250.71390869 -95.97533691 250.42781738 -96.4777832 250.13305664 C-106.26902656 244.35701872 -115.4924203 238.58140461 -124 231 C-125.38251953 229.81470703 -125.38251953 229.81470703 -126.79296875 228.60546875 C-147.13031902 210.79275507 -159.21125199 187.49044805 -167 162 C-167.33 162.33 -167.66 162.66 -168 163 C-173.73611111 163.27314815 -173.73611111 163.27314815 -176 163 C-178.63336324 160.36663676 -178.26298046 159.17068099 -178.29052734 155.49633789 C-178.30328705 154.34496841 -178.31604675 153.19359894 -178.32919312 152.00733948 C-178.33141876 150.75839401 -178.33364441 149.50944855 -178.3359375 148.22265625 C-178.3425943 146.94523056 -178.3492511 145.66780487 -178.35610962 144.35166931 C-178.36625163 141.64551902 -178.37178945 138.93977027 -178.37060547 136.23364258 C-178.37040218 132.76527506 -178.39770801 129.29772609 -178.43214989 125.82955265 C-178.45972929 122.52311749 -178.45856712 119.2166909 -178.4609375 115.91015625 C-178.47530853 114.66323502 -178.48967957 113.41631378 -178.50448608 112.13160706 C-178.49833282 110.97708542 -178.49217957 109.82256378 -178.48583984 108.63305664 C-178.48868988 107.61538712 -178.49153992 106.59771759 -178.49447632 105.54920959 C-178 103 -178 103 -176.20401001 101.12840271 C-172.95346405 99.46419753 -170.47871088 100.26411885 -167 101 C-166.9484375 100.43796875 -166.896875 99.8759375 -166.84375 99.296875 C-164.03016068 78.45073597 -152.26338793 58.87460201 -139 43 C-138.57348145 42.48695312 -138.14696289 41.97390625 -137.70751953 41.4453125 C-117.6034931 17.59589914 -86.04243382 -0.42585949 -54.80615234 -3.78466797 C-36.41929517 -5.19559611 -17.82639665 -5.07478941 0 0 Z " fill="#FE713E" transform="translate(337,47)" />
    <path d="M0 0 C1.00039307 0.27287842 1.00039307 0.27287842 2.02099609 0.55126953 C20.55423686 5.71914803 37.3880007 15.63066515 52 28 C52.8353125 28.69996094 53.670625 29.39992187 54.53125 30.12109375 C76.07058719 48.76857548 87.49724231 73.47591075 96 100 C96.94875 100.12375 97.8975 100.2475 98.875 100.375 C102 101 102 101 104 103 C104.25396729 105.42895508 104.25396729 105.42895508 104.25878906 108.51953125 C104.26509338 109.67412842 104.27139771 110.82872559 104.27789307 112.01831055 C104.27182037 113.89643433 104.27182037 113.89643433 104.265625 115.8125 C104.26753845 117.09229736 104.2694519 118.37209473 104.27142334 119.69067383 C104.27437382 122.40092793 104.27007955 125.11105027 104.26074219 127.82128906 C104.24934753 131.29849231 104.25590743 134.77538682 104.26788712 138.25257874 C104.27684425 141.56424404 104.27057635 144.87582591 104.265625 148.1875 C104.26967346 149.43958252 104.27372192 150.69166504 104.27789307 151.98168945 C104.26843658 153.71358521 104.26843658 153.71358521 104.25878906 155.48046875 C104.25719788 156.50035889 104.25560669 157.52024902 104.25396729 158.57104492 C104 161 104 161 102 163 C99.31160615 163.26991906 96.70858064 163.08737357 94 163 C93.84144531 163.65484375 93.68289063 164.3096875 93.51953125 164.984375 C91.64668732 172.31019546 89.11433919 179.1147373 86 186 C85.33677734 187.46953125 85.33677734 187.46953125 84.66015625 188.96875 C72.18247898 215.23754425 50.02693879 237.15178101 24 250 C23.01 250 22.02 250 21 250 C20.84075211 239.73145985 21.27677895 229.52351663 21.79956055 219.27124023 C21.93706875 216.57096853 22.06951485 213.87048456 22.20117188 211.16992188 C22.37127884 207.7039454 22.55368738 204.23896308 22.74633789 200.77416992 C22.91370591 197.76143259 23.0469513 194.75142265 23.14233398 191.7355957 C23.19591064 190.4899585 23.2494873 189.24432129 23.3046875 187.9609375 C23.35665283 186.35871338 23.35665283 186.35871338 23.40966797 184.72412109 C24.15488631 181.28526822 25.43591627 180.17739139 28.1875 178.0625 C29.79156182 177.04150192 31.39572361 176.02066089 33 175 C39.92665405 168.6026754 43.49249665 160.34795174 44.23828125 151.01953125 C44.49749865 139.8186111 41.39832909 130.57266704 34 122 C32.58551249 121.06825502 31.14723388 120.17162781 29.6875 119.3125 C26.77770414 117.32129754 26.09714037 116.49792481 25.41015625 112.9765625 C25.30085123 110.56118808 25.22685355 108.14402186 25.18359375 105.7265625 C24.45768574 90.99217441 15.99322529 77.3819407 6 67 C-9.9615244 53.34490277 -27.65626495 50.45118119 -48 52 C-52.64147745 52.81202786 -56.70085354 54.08993354 -61 56 C-61.92554688 56.40089844 -62.85109375 56.80179688 -63.8046875 57.21484375 C-75.64180468 62.9992707 -84.90974726 72.38943796 -91 84 C-91.48210937 84.88816406 -91.96421875 85.77632813 -92.4609375 86.69140625 C-95.55854059 93.1283329 -96.28762101 98.73761955 -96.6875 105.75 C-97.22082017 114.03210139 -97.22082017 114.03210139 -100.12890625 117.64453125 C-102.75 119.5625 -102.75 119.5625 -105.45703125 121.25390625 C-109.7616197 124.2095914 -111.75577235 128.39303762 -114 133 C-114.33902344 133.65742188 -114.67804688 134.31484375 -115.02734375 134.9921875 C-118.64254127 143.02225757 -117.86074241 152.39760408 -115.03125 160.55859375 C-111.19261235 169.64627759 -105.98766548 176.50616726 -97 181 C-96.56773381 188.73695087 -96.14111625 196.47419901 -95.71826172 204.21166992 C-95.57402777 206.83901881 -95.42854262 209.46629934 -95.28173828 212.09350586 C-95.06987757 215.88898326 -94.86264966 219.68469091 -94.65625 223.48046875 C-94.59062866 224.63830368 -94.52500732 225.79613861 -94.45739746 226.98905945 C-94.04573241 234.66674377 -93.92510908 242.31184245 -94 250 C-98.71382516 248.51138027 -102.63625592 246.58866185 -106.75 243.875 C-107.66906128 243.27449829 -107.66906128 243.27449829 -108.60668945 242.66186523 C-114.00573778 239.08534009 -119.08471131 235.21987807 -124 231 C-124.90492188 230.22914063 -125.80984375 229.45828125 -126.7421875 228.6640625 C-147.09031573 210.79603854 -159.19631914 187.53931919 -167 162 C-167.33 162.33 -167.66 162.66 -168 163 C-173.73611111 163.27314815 -173.73611111 163.27314815 -176 163 C-178.63336324 160.36663676 -178.26298046 159.17068099 -178.29052734 155.49633789 C-178.30328705 154.34496841 -178.31604675 153.19359894 -178.32919312 152.00733948 C-178.33141876 150.75839401 -178.33364441 149.50944855 -178.3359375 148.22265625 C-178.3425943 146.94523056 -178.3492511 145.66780487 -178.35610962 144.35166931 C-178.36625163 141.64551902 -178.37178945 138.93977027 -178.37060547 136.23364258 C-178.37040218 132.76527506 -178.39770801 129.29772609 -178.43214989 125.82955265 C-178.45972929 122.52311749 -178.45856712 119.2166909 -178.4609375 115.91015625 C-178.47530853 114.66323502 -178.48967957 113.41631378 -178.50448608 112.13160706 C-178.49833282 110.97708542 -178.49217957 109.82256378 -178.48583984 108.63305664 C-178.48868988 107.61538712 -178.49153992 106.59771759 -178.49447632 105.54920959 C-178 103 -178 103 -176.20401001 101.12840271 C-172.95346405 99.46419753 -170.47871088 100.26411885 -167 101 C-166.9484375 100.43796875 -166.896875 99.8759375 -166.84375 99.296875 C-164.03016068 78.45073597 -152.26338793 58.87460201 -139 43 C-138.57348145 42.48695312 -138.14696289 41.97390625 -137.70751953 41.4453125 C-117.6034931 17.59589914 -86.04243382 -0.42585949 -54.80615234 -3.78466797 C-36.41929517 -5.19559611 -17.82639665 -5.07478941 0 0 Z " fill="#E2F5FC" transform="translate(337,47)" />
    <path d="M0 0 C1.44705837 1.25993876 2.88552665 2.52985793 4.3125 3.8125 C5.29476562 4.58400391 5.29476562 4.58400391 6.296875 5.37109375 C25.24604384 20.56832716 36.57807089 45.2881995 40.3125 68.8125 C40.67301011 73.69818002 40.69011534 78.54082638 40.625 83.4375 C40.62822266 84.65695313 40.63144531 85.87640625 40.63476562 87.1328125 C40.47112367 114.98169819 28.54313659 139.70601478 9.125 159.3125 C-1.51355809 169.8125 -1.51355809 169.8125 -4.6875 169.8125 C-4.74403837 163.4088771 -4.7451871 157.00769506 -4.6953125 150.60400391 C-4.68865934 148.22674713 -4.72634524 145.85681561 -4.78125 143.48046875 C-4.70770833 134.99559874 -4.70770833 134.99559874 -1.828125 131.65625 C0.47782521 129.89196595 2.86427317 128.37009281 5.3125 126.8125 C12.23915405 120.4151754 15.80499665 112.16045174 16.55078125 102.83203125 C16.80999865 91.6311111 13.71082909 82.38516704 6.3125 73.8125 C4.89801249 72.88075502 3.45973388 71.98412781 2 71.125 C-0.90979586 69.13379754 -1.59035963 68.31042481 -2.27734375 64.7890625 C-2.38664877 62.37368808 -2.46064645 59.95652186 -2.50390625 57.5390625 C-3.22981426 42.80467441 -11.69427471 29.1944407 -21.6875 18.8125 C-37.6490244 5.15740277 -55.34376495 2.26368119 -75.6875 3.8125 C-80.32897745 4.62452786 -84.38835354 5.90243354 -88.6875 7.8125 C-89.61304688 8.21339844 -90.53859375 8.61429688 -91.4921875 9.02734375 C-103.32930468 14.8117707 -112.59724726 24.20193796 -118.6875 35.8125 C-119.16960937 36.70066406 -119.65171875 37.58882812 -120.1484375 38.50390625 C-123.24604059 44.9408329 -123.97512101 50.55011955 -124.375 57.5625 C-124.90832017 65.84460139 -124.90832017 65.84460139 -127.81640625 69.45703125 C-130.4375 71.375 -130.4375 71.375 -133.14453125 73.06640625 C-137.4491197 76.0220914 -139.44327235 80.20553762 -141.6875 84.8125 C-142.19603516 85.79863281 -142.19603516 85.79863281 -142.71484375 86.8046875 C-146.33004127 94.83475757 -145.54824241 104.21010408 -142.71875 112.37109375 C-138.88011235 121.45877759 -133.67516548 128.31866726 -124.6875 132.8125 C-124.2734375 135.41796875 -124.2734375 135.41796875 -124.0625 139 C-124.02455322 139.64332275 -123.98660645 140.28664551 -123.94750977 140.94946289 C-123.45424898 150.55854098 -123.60182635 160.1946444 -123.6875 169.8125 C-132.15211805 165.82666678 -141.46569735 157.5706068 -146.6875 149.8125 C-146.8125 146.1875 -146.8125 146.1875 -146.6875 142.8125 C-147.96812485 141.1050002 -149.3096873 139.44258826 -150.6875 137.8125 C-161.7753547 121.05414427 -167.28891422 103.16845013 -167.125 83.0625 C-167.11670166 81.74427246 -167.10840332 80.42604492 -167.09985352 79.06787109 C-166.7357867 58.01936763 -160.28114626 39.73004357 -147.6875 22.8125 C-147.01074219 21.88953125 -146.33398438 20.9665625 -145.63671875 20.015625 C-137.86465031 9.95598249 -128.15851094 2.11637802 -117.515625 -4.75 C-115.395767 -6.14556618 -115.395767 -6.14556618 -114.6875 -9.1875 C-111.58049946 -11.42454039 -108.39209708 -11.48925559 -104.6875 -11.6484375 C-102.50582636 -12.04404064 -102.50582636 -12.04404064 -100.953125 -14.08984375 C-97.76997146 -17.03700487 -94.60882051 -17.51534525 -90.4375 -18.375 C-89.34888672 -18.6215332 -89.34888672 -18.6215332 -88.23828125 -18.87304688 C-57.89859248 -25.55210492 -24.62996578 -19.41687487 0 0 Z " fill="#CDECF6" transform="translate(364.6875,95.1875)" />
    <path d="M0 0 C2.21605996 1.43606517 4.32932712 2.95029453 6.4375 4.5390625 C7.30375 5.1165625 8.17 5.6940625 9.0625 6.2890625 C17.6695916 14.44314928 22.96854248 25.42720364 23.57794189 37.26785278 C23.5847699 38.19540375 23.5915979 39.12295471 23.59863281 40.07861328 C23.60824036 41.14056915 23.6178479 42.20252502 23.62774658 43.29666138 C23.63199646 44.43110687 23.63624634 45.56555237 23.640625 46.734375 C23.64632507 47.9182077 23.65202515 49.10204041 23.65789795 50.32174683 C23.66732936 52.82484041 23.67387453 55.32794631 23.67773438 57.83105469 C23.68741266 61.62978231 23.71844361 65.42796233 23.75 69.2265625 C23.7565336 71.66666348 23.76178267 74.1067683 23.765625 76.546875 C23.7779718 77.66917511 23.7903186 78.79147522 23.80303955 79.94778442 C23.76261068 94.50855314 19.76745367 106.97433716 9.4375 117.5390625 C-2.81474832 127.51182276 -15.06282837 130.62751163 -30.5625 129.5390625 C-42.4489285 127.54490607 -53.0818634 120.53082113 -60.4609375 111.1171875 C-63.59485879 106.37952245 -65.5267371 102.28011848 -65.078125 96.51953125 C-64.16306839 93.00488199 -62.50743723 91.54412615 -59.5625 89.5390625 C-55.73752532 88.42634259 -53.40222119 88.31163801 -49.5625 89.3515625 C-45.8252204 92.07666221 -43.94755613 95.25965353 -41.42578125 99.08984375 C-37.91959738 103.69860116 -33.23347265 106.45221575 -27.5625 107.5390625 C-19.64384265 108.23935193 -13.65333409 107.01259009 -6.875 102.9140625 C-1.28337367 97.17131113 1.36942336 90.69173731 1.5 82.7265625 C1.479375 81.6746875 1.45875 80.6228125 1.4375 79.5390625 C0.70144531 79.88839844 -0.03460938 80.23773438 -0.79296875 80.59765625 C-1.76878906 81.05269531 -2.74460937 81.50773437 -3.75 81.9765625 C-4.71292969 82.42902344 -5.67585938 82.88148438 -6.66796875 83.34765625 C-16.84583434 87.53692616 -30.63191785 86.88513291 -40.78515625 82.9296875 C-53.52274753 76.55193434 -62.67227917 66.84501678 -67.3125 53.359375 C-70.7881211 40.18097834 -68.37851716 27.12809119 -61.9375 15.2890625 C-48.75532763 -5.02932348 -21.06531046 -12.0097959 0 0 Z M-42.5625 24.5390625 C-46.78305257 31.17684064 -48.68139115 37.83169112 -47.13671875 45.7109375 C-45.18892645 52.64173219 -41.50041068 57.85584121 -35.52734375 61.92578125 C-29.4663956 65.06075443 -23.26018225 65.54197065 -16.5625 64.5390625 C-8.48713013 61.9033515 -4.28833572 57.82251864 0.1875 50.7890625 C2.8155538 43.95612261 3.19641727 37.57062702 0.51171875 30.70703125 C-2.83404487 23.95467194 -6.7242302 19.70492815 -13.5625 16.5390625 C-24.38113856 13.24931322 -35.10157064 16.07450558 -42.5625 24.5390625 Z " fill="#000000" transform="translate(348.5625,428.4609375)" />
    <path d="M0 0 C1.00039307 0.27287842 1.00039307 0.27287842 2.02099609 0.55126953 C20.55423686 5.71914803 37.3880007 15.63066515 52 28 C52.8353125 28.69996094 53.670625 29.39992187 54.53125 30.12109375 C76.07058719 48.76857548 87.49724231 73.47591075 96 100 C96.94875 100.12375 97.8975 100.2475 98.875 100.375 C102 101 102 101 104 103 C104.25396729 105.42895508 104.25396729 105.42895508 104.25878906 108.51953125 C104.26509338 109.67412842 104.27139771 110.82872559 104.27789307 112.01831055 C104.27182037 113.89643433 104.27182037 113.89643433 104.265625 115.8125 C104.26753845 117.09229736 104.2694519 118.37209473 104.27142334 119.69067383 C104.27437382 122.40092793 104.27007955 125.11105027 104.26074219 127.82128906 C104.24934753 131.29849231 104.25590743 134.77538682 104.26788712 138.25257874 C104.27684425 141.56424404 104.27057635 144.87582591 104.265625 148.1875 C104.26967346 149.43958252 104.27372192 150.69166504 104.27789307 151.98168945 C104.26843658 153.71358521 104.26843658 153.71358521 104.25878906 155.48046875 C104.25719788 156.50035889 104.25560669 157.52024902 104.25396729 158.57104492 C104 161 104 161 102 163 C99.31160615 163.26991906 96.70858064 163.08737357 94 163 C93.84144531 163.65484375 93.68289063 164.3096875 93.51953125 164.984375 C91.64668732 172.31019546 89.11433919 179.1147373 86 186 C85.33677734 187.46953125 85.33677734 187.46953125 84.66015625 188.96875 C72.18247898 215.23754425 50.02693879 237.15178101 24 250 C23.01 250 22.02 250 21 250 C20.5703125 247.2734375 20.5703125 247.2734375 21 244 C23.32602335 242.19500588 25.29601982 240.95212262 27.875 239.625 C29.26485649 238.85196884 30.65157988 238.07327845 32.03515625 237.2890625 C33.05633545 236.71333496 33.05633545 236.71333496 34.09814453 236.12597656 C38.43585117 233.55787605 42.2072147 230.29724551 46 227 C46.84175781 226.27941406 47.68351563 225.55882812 48.55078125 224.81640625 C72.64858224 203.71711768 88.34933628 173.00177664 91 141 C91.75548012 127.34004354 91.53435928 114.26532249 88 101 C87.59974609 99.21529297 87.59974609 99.21529297 87.19140625 97.39453125 C80.00969815 67.10368241 60.28357614 39.58247891 34.09082031 22.77490234 C24.80100983 17.07823302 15.21364937 12.76172354 5 9 C4.40034424 8.7517749 3.80068848 8.5035498 3.18286133 8.24780273 C-25.06972505 -3.19815385 -59.47192918 0.58021684 -87 12 C-118.35999067 26.04666249 -143.08508825 50.78878156 -155.77880859 82.87670898 C-158.27390944 89.47156376 -160.37385307 96.13586219 -162 103 C-162.22558594 103.9384375 -162.45117188 104.876875 -162.68359375 105.84375 C-166.27228321 124.25743935 -164.92462734 144.00003107 -160 162 C-159.79632813 162.75684082 -159.59265625 163.51368164 -159.3828125 164.29345703 C-150.19220222 197.30448391 -128.42638606 223.89714743 -99 241 C-98.05640625 241.50273437 -97.1128125 242.00546875 -96.140625 242.5234375 C-95.43421875 243.01070312 -94.7278125 243.49796875 -94 244 C-93.6875 247.1875 -93.6875 247.1875 -94 250 C-98.74567334 248.63382131 -102.65509886 246.57623196 -106.75 243.875 C-107.66906128 243.27449829 -107.66906128 243.27449829 -108.60668945 242.66186523 C-114.00573778 239.08534009 -119.08471131 235.21987807 -124 231 C-124.90492188 230.22914063 -125.80984375 229.45828125 -126.7421875 228.6640625 C-147.09031573 210.79603854 -159.19631914 187.53931919 -167 162 C-167.33 162.33 -167.66 162.66 -168 163 C-173.73611111 163.27314815 -173.73611111 163.27314815 -176 163 C-178.63336324 160.36663676 -178.26298046 159.17068099 -178.29052734 155.49633789 C-178.30328705 154.34496841 -178.31604675 153.19359894 -178.32919312 152.00733948 C-178.33141876 150.75839401 -178.33364441 149.50944855 -178.3359375 148.22265625 C-178.3425943 146.94523056 -178.3492511 145.66780487 -178.35610962 144.35166931 C-178.36625163 141.64551902 -178.37178945 138.93977027 -178.37060547 136.23364258 C-178.37040218 132.76527506 -178.39770801 129.29772609 -178.43214989 125.82955265 C-178.45972929 122.52311749 -178.45856712 119.2166909 -178.4609375 115.91015625 C-178.47530853 114.66323502 -178.48967957 113.41631378 -178.50448608 112.13160706 C-178.49833282 110.97708542 -178.49217957 109.82256378 -178.48583984 108.63305664 C-178.48868988 107.61538712 -178.49153992 106.59771759 -178.49447632 105.54920959 C-178 103 -178 103 -176.20401001 101.12840271 C-172.95346405 99.46419753 -170.47871088 100.26411885 -167 101 C-166.9484375 100.43796875 -166.896875 99.8759375 -166.84375 99.296875 C-164.03016068 78.45073597 -152.26338793 58.87460201 -139 43 C-138.57348145 42.48695312 -138.14696289 41.97390625 -137.70751953 41.4453125 C-117.6034931 17.59589914 -86.04243382 -0.42585949 -54.80615234 -3.78466797 C-36.41929517 -5.19559611 -17.82639665 -5.07478941 0 0 Z " fill="#B4D1F3" transform="translate(337,47)" />
    <path d="M0 0 C8.95089304 8.28849299 14.65093867 20.27275918 15.13427734 32.49731445 C15.15374837 34.35878803 15.1565715 36.22049478 15.14453125 38.08203125 C15.14740143 39.07704147 15.15027161 40.0720517 15.15322876 41.09721375 C15.15525552 43.1820839 15.14982376 45.26697368 15.13720703 47.35180664 C15.12104786 50.54030576 15.13714715 53.72755384 15.15625 56.91601562 C15.15426899 58.95052362 15.15042826 60.98503084 15.14453125 63.01953125 C15.15060394 63.96854813 15.15667664 64.917565 15.16293335 65.89533997 C15.11061958 70.80946372 14.98232143 74.24701603 11.74609375 78.21875 C8.30533494 80.79931911 4.9181365 80.78445071 0.74609375 80.21875 C-1.8595187 78.47491599 -4.06379673 76.4554576 -6.25390625 74.21875 C-6.99833984 74.61707031 -6.99833984 74.61707031 -7.7578125 75.0234375 C-8.43714844 75.37664062 -9.11648437 75.72984375 -9.81640625 76.09375 C-10.47769531 76.44179688 -11.13898438 76.78984375 -11.8203125 77.1484375 C-23.27977157 82.18839221 -36.72235303 81.60112251 -48.37890625 77.4921875 C-52.74425502 75.55862269 -56.47802941 73.1183685 -60.25390625 70.21875 C-61.12015625 69.64125 -61.98640625 69.06375 -62.87890625 68.46875 C-71.63586325 60.17268547 -76.26051634 49.81632572 -76.67358398 37.82275391 C-76.78761754 23.5607487 -72.39667473 11.59203594 -62.25390625 1.21875 C-43.81600112 -14.03442606 -19.01653319 -15.02866401 0 0 Z M-50.625 20.109375 C-55.11675835 26.98062006 -56.18936123 33.00632548 -55.25390625 41.21875 C-52.97382959 48.66629012 -48.96797674 53.38596725 -42.25390625 57.21875 C-36.09058107 60.30041259 -28.29311369 60.24545874 -21.6875 58.56640625 C-14.72812875 55.82269474 -11.04099113 51.31636378 -7.37890625 44.96875 C-5.04866773 37.20128827 -5.52103578 29.91408636 -8.86328125 22.51171875 C-12.40062683 16.67907309 -17.76953873 12.67716207 -24.26171875 10.65625 C-33.84542257 8.55159347 -44.75237312 12.01150773 -50.625 20.109375 Z " fill="#000000" transform="translate(206.25390625,433.78125)" />
    <path d="M0 0 C10.19579037 8.76295001 15.45623422 18.35828961 16.77734375 31.9296875 C17.34623873 45.0519888 13.96826064 55.90458474 5.390625 65.95703125 C-2.55942064 74.36516502 -12.83101251 80.70814153 -24.66015625 81.2578125 C-26.08060105 81.27728647 -27.50134116 81.28076838 -28.921875 81.26953125 C-29.67025635 81.2638916 -30.4186377 81.25825195 -31.18969727 81.25244141 C-43.17027356 80.99050003 -53.84661671 76.23296964 -62.609375 67.95703125 C-71.81491342 57.36571285 -76.05599524 46.04347977 -75.546875 32.01953125 C-74.56128946 21.55628007 -70.49966903 12.81947072 -63.609375 4.95703125 C-63.10921875 4.35246094 -62.6090625 3.74789063 -62.09375 3.125 C-46.06324767 -14.73422469 -18.0133861 -14.1032948 0 0 Z M-48.609375 19.95703125 C-53.8407602 27.22284402 -54.47418475 33.12792708 -53.609375 41.95703125 C-51.44795255 49.37050824 -47.30246883 54.20484228 -40.609375 57.95703125 C-34.409835 60.89472177 -27.70386831 60.95384164 -21.07421875 59.33984375 C-14.43082398 56.7645312 -9.94112132 52.16413226 -6.51171875 45.9765625 C-3.60729692 39.2085842 -3.75245896 32.74565164 -6.109375 25.83203125 C-9.0183548 19.24585515 -13.91701066 14.89109136 -20.484375 12.01953125 C-31.13416667 8.68495852 -41.41923295 11.32886079 -48.609375 19.95703125 Z " fill="#000000" transform="translate(453.609375,433.04296875)" />
    <path d="M0 0 C6.93538057 4.16596239 12.43355871 10.56609725 15.4375 18.0625 C15.89616111 21.01083203 15.96112614 23.89468684 15.9375 26.875 C15.93395508 27.67381592 15.93041016 28.47263184 15.92675781 29.2956543 C15.74819131 35.63411805 14.44020557 40.04748227 10.4375 45.0625 C9.57125 46.42375 9.57125 46.42375 8.6875 47.8125 C2.57057553 53.92942447 -5.66786558 57.06524507 -14.1875 57.5625 C-22.18083384 57.40362628 -28.65379696 54.35848743 -34.73046875 49.234375 C-40.8626528 42.80146551 -43.71292404 35.51461289 -44.1875 26.6875 C-43.87301469 18.34381175 -41.02917643 11.54023441 -35.11328125 5.60546875 C-25.34957251 -2.49446899 -12.00626722 -5.42339173 0 0 Z " fill="#FEFCFB" transform="translate(270.5625,167.9375)" />
    <path d="M0 0 C6.25983748 4.14055787 10.62542459 9.87627378 13 17 C13.71723757 26.69295348 14.24802892 35.00325161 8 43 C7.443125 43.886875 6.88625 44.77375 6.3125 45.6875 C-0.21271864 52.21271864 -7.48169375 55.02979033 -16.5625 55.4375 C-24.41789138 55.36001155 -31.00373508 52.44256556 -36.9453125 47.32421875 C-38.49435679 45.63116783 -39.74935468 43.92152129 -41 42 C-41.40992188 41.46375 -41.81984375 40.9275 -42.2421875 40.375 C-46.5671962 33.69360725 -46.02542412 24.63893931 -45 17 C-42.6741651 8.55411107 -37.14592279 3.29065651 -29.94140625 -1.31640625 C-20.40670524 -6.33743229 -9.19234493 -5.22034403 0 0 Z " fill="#FEFCFB" transform="translate(360,170)" />
    <path d="M0 0 C2.35846964 1.98995876 3.82076254 3.67999678 4.37109375 6.7734375 C4.39300781 7.52882813 4.41492188 8.28421875 4.4375 9.0625 C4.49744141 10.18785156 4.49744141 10.18785156 4.55859375 11.3359375 C3.69239867 14.98243709 1.91222238 16.39383673 -1 18.6875 C-3.67536911 19.51914793 -6.08506504 20.1267554 -8.8125 20.625 C-16.13859636 22.22084088 -21.72191456 24.22969059 -26.32421875 30.48828125 C-29.03816456 34.93534334 -30.11759152 38.85688935 -30.1418457 43.99365234 C-30.14888016 44.8348764 -30.15591461 45.67610046 -30.16316223 46.54281616 C-30.16732651 47.4439212 -30.17149078 48.34502625 -30.17578125 49.2734375 C-30.19897677 51.19271933 -30.223094 53.11199021 -30.24804688 55.03125 C-30.28316063 58.04857764 -30.31251334 61.06550065 -30.32592773 64.08300781 C-30.34142944 67.00114505 -30.38164688 69.91811098 -30.42578125 72.8359375 C-30.42387283 73.73299408 -30.42196442 74.63005066 -30.41999817 75.55429077 C-30.52993549 81.20436424 -31.29740619 84.35100413 -35 88.6875 C-38.45739557 90.41619779 -42.21975568 90.17716895 -46 89.6875 C-48.87029869 87.89356332 -50.49131638 86.70486724 -52 83.6875 C-52.10461661 82.22932353 -52.14866114 80.7665588 -52.16113281 79.3046875 C-52.17074036 78.39614014 -52.1803479 77.48759277 -52.19024658 76.55151367 C-52.19449646 75.56513916 -52.19874634 74.57876465 -52.203125 73.5625 C-52.21167511 72.03749878 -52.21167511 72.03749878 -52.22039795 70.48168945 C-52.2298604 68.32292728 -52.23638685 66.16415058 -52.24023438 64.00537109 C-52.2498791 60.72857697 -52.28086547 57.45242643 -52.3125 54.17578125 C-52.31903623 52.07552455 -52.32428426 49.97526336 -52.328125 47.875 C-52.3404718 46.90481934 -52.3528186 45.93463867 -52.36553955 44.93505859 C-52.32449856 32.16552656 -47.74056463 20.9903307 -39.0625 11.6015625 C-29.5700551 2.79228598 -12.92585506 -5.65506159 0 0 Z " fill="#000000" transform="translate(280,424.3125)" />
    <path d="M0 0 C7.72418504 5.39137748 13.211192 13.43925122 15.578125 22.5625 C16.91568987 34.86179182 15.66359451 44.97479383 8.515625 55.25 C2.79602531 62.18732091 -4.70186827 66.56962293 -13.421875 68.5625 C-26.41259875 69.71188502 -37.1404138 68.13686025 -47.41796875 59.55078125 C-55.23218222 51.79749732 -59.40995982 41.93779461 -59.796875 31 C-59.69870227 21.02319674 -55.25254118 11.76457356 -48.421875 4.5625 C-34.95313187 -7.94626792 -15.66598327 -9.29851911 0 0 Z M-38.421875 6.5625 C-39.02 6.95179688 -39.618125 7.34109375 -40.234375 7.7421875 C-46.00961601 11.94915186 -49.17378486 17.88177983 -51.421875 24.5625 C-52.88702506 34.05801452 -51.13502559 42.10198443 -45.76171875 50.00390625 C-40.35003826 56.74906038 -34.02410003 60.7507934 -25.40234375 62 C-18.33207134 62.29043481 -12.65524154 60.84721315 -6.421875 57.5625 C-5.77347656 57.22347656 -5.12507813 56.88445312 -4.45703125 56.53515625 C1.5727286 52.82757963 4.49208972 46.73457056 7.578125 40.5625 C8.73992336 26.87032387 8.73992336 26.87032387 3.41796875 14.609375 C-2.41149825 8.12393826 -8.48301429 2.70657207 -17.54296875 2.12890625 C-18.98158147 2.10552756 -20.42071514 2.10472812 -21.859375 2.125 C-22.98641846 2.13635986 -22.98641846 2.13635986 -24.13623047 2.14794922 C-29.73247437 2.31487398 -33.89511848 3.10214285 -38.421875 6.5625 Z " fill="#FE6446" transform="translate(278.421875,163.4375)" />
    <path d="M0 0 C1 1 1 1 1.52734375 3.19921875 C0.67322241 7.73555207 -2.78057811 9.30183188 -6.4375 11.8125 C-7.92099174 12.88303595 -9.40277567 13.95594262 -10.8828125 15.03125 C-11.59856445 15.54558594 -12.31431641 16.05992188 -13.05175781 16.58984375 C-30.52495166 29.23710787 -41.83193942 49.30217323 -47 70 C-47.17515137 70.61552734 -47.35030273 71.23105469 -47.53076172 71.86523438 C-49.40560869 79.05688646 -49.38557179 86.22888621 -49.375 93.625 C-49.37412384 94.29429535 -49.37324768 94.9635907 -49.37234497 95.65316772 C-49.32883745 105.71153391 -48.72353599 114.54878952 -45 124 C-44.47395184 125.42577886 -43.94791058 126.85156026 -43.421875 128.27734375 C-39.94176844 137.4081388 -36.01243507 146.98756493 -29 154 C-29.55555556 158.55555556 -29.55555556 158.55555556 -31 160 C-33.32421875 160.33984375 -33.32421875 160.33984375 -36 160 C-48.6381121 148.32046726 -57.31114396 123.53184633 -58.16113281 106.8347168 C-58.59553105 71.81262164 -52.53553248 43.5665149 -27.67797852 17.27685547 C-10.29725642 -0.52806443 -10.29725642 -0.52806443 0 0 Z " fill="#FDFEFE" transform="translate(248,84)" />
    <path d="M0 0 C2 1 2 1 3.1875 3.6875 C6.09853451 9.00766652 9.81653129 12.12661252 15.4375 14.375 C23.55950469 15.7999131 29.78166617 15.18157235 37 11 C38.87159059 9.23427716 40.4105836 7.45485044 41.94140625 5.390625 C42.46541016 4.70226562 42.46541016 4.70226562 43 4 C43.33 4 43.66 4 44 4 C43.53555636 12.35998558 40.86730115 19.80001426 34.5 25.5 C29.99274332 28.93133089 25.9956251 30.61328923 20.18359375 30.4375 C14.35375905 29.26944725 9.51658775 25.24731697 6.1875 20.4375 C2.8470104 14.45245614 0 6.88537142 0 0 Z " fill="#0A0A0A" transform="translate(278,257)" />
    <path d="M0 0 C0.7425 0.53625 1.485 1.0725 2.25 1.625 C13.00505041 8.68946517 13.00505041 8.68946517 25.41796875 10.59765625 C32.54306523 8.94842817 38.81213322 4.75329624 45 1 C44.51289287 8.06305332 42.96707938 12.11533949 37.75 17.1875 C31.89788024 21.04457893 26.02355344 22.97396932 19 22 C12.45148268 20.58030191 7.35617879 17.04715888 3 12 C0.7936018 8.04471761 0 4.56287125 0 0 Z " fill="#F8F6F6" transform="translate(278,251)" />
    <path d="M0 0 C0.66 0 1.32 0 2 0 C3.44465322 2.45222983 4.70538637 4.97350508 5.9765625 7.51953125 C10.44504471 12.99730384 18.85741943 13.79731824 25.5 15.1875 C26.73363281 15.45336914 26.73363281 15.45336914 27.9921875 15.72460938 C29.99363475 16.15515326 31.99665879 16.57835661 34 17 C34 17.66 34 18.32 34 19 C30.71010715 19.51214451 27.41787138 20.00740064 24.125 20.5 C22.74828125 20.71462891 22.74828125 20.71462891 21.34375 20.93359375 C5.02123109 23.34748739 5.02123109 23.34748739 0 20 C-0.34057617 17.93701172 -0.34057617 17.93701172 -0.29296875 15.4296875 C-0.28330078 14.53378906 -0.27363281 13.63789063 -0.26367188 12.71484375 C-0.23853516 11.77769531 -0.21339844 10.84054687 -0.1875 9.875 C-0.17396484 8.93011719 -0.16042969 7.98523438 -0.14648438 7.01171875 C-0.11106306 4.67391221 -0.06167271 2.33723763 0 0 Z " fill="#FF6042" transform="translate(357,298)" />
    <path d="M0 0 C2.77074229 2.77074229 2.28860048 4.69382425 2.32226562 8.4765625 C2.31904297 9.30929687 2.31582031 10.14203125 2.3125 11 C2.32861328 11.83273437 2.34472656 12.66546875 2.36132812 13.5234375 C2.36197266 14.32007813 2.36261719 15.11671875 2.36328125 15.9375 C2.36626221 16.66839844 2.36924316 17.39929688 2.37231445 18.15234375 C2 20 2 20 -1 22 C-7.87795032 22.8097332 -14.84546057 21.61485759 -21.625 20.5 C-22.98818359 20.28537109 -22.98818359 20.28537109 -24.37890625 20.06640625 C-26.58711883 19.71774111 -28.79397643 19.36221173 -31 19 C-31 18.34 -31 17.68 -31 17 C-30.35973877 16.86948242 -29.71947754 16.73896484 -29.05981445 16.60449219 C-26.14081692 16.00087151 -23.22684555 15.37567871 -20.3125 14.75 C-18.80139648 14.44255859 -18.80139648 14.44255859 -17.25976562 14.12890625 C-9.88895729 12.54536513 -9.88895729 12.54536513 -4 8 C-2.60320394 5.91992516 -2.60320394 5.91992516 -1.6875 3.75 C-1.36136719 3.04359375 -1.03523438 2.3371875 -0.69921875 1.609375 C-0.46847656 1.07828125 -0.23773438 0.5471875 0 0 Z " fill="#FF6042" transform="translate(242,298)" />
    <path d="M0 0 C2.9375 1.4375 2.9375 1.4375 5 4 C5.72259546 7.14887127 5.6900808 9.8469479 5 13 C2.9375 16.0625 2.9375 16.0625 0 18 C-4.30274909 18.69151325 -6.20945312 18.51557405 -9.875 16.125 C-12.38666318 13.61333682 -12.92153796 12.70615837 -13.3125 9.1875 C-12.92835642 5.2692355 -11.70743683 3.78706733 -9 1 C-5.89951072 -0.55024464 -3.42105782 -0.28992015 0 0 Z " fill="#0C0F0F" transform="translate(260,181)" />
    <path d="M0 0 C2.75329021 1.79562405 4.52627461 3.05254922 6 6 C6.43023798 9.87214182 6.31669086 11.52496371 4.125 14.8125 C1.42055063 17.59649199 0.57733296 17.93464155 -3.3125 18.375 C-7 18 -7 18 -9.9375 16 C-12.23092162 12.66411401 -12.75815509 10.90015906 -12.48046875 6.9375 C-10.87278432 0.45447986 -5.98096831 -0.96122705 0 0 Z " fill="#0B0D0D" transform="translate(348,181)" />
    <path d="M0 0 C3.44652326 2.44128731 4.78056289 3.82966874 5.5625 8 C4.87642343 11.65907504 3.57265686 13.35167676 1 16 C-1.88861709 17.44430855 -3.79647701 17.37688506 -7 17 C-9.86972996 15.00366611 -11.65210765 13.52770117 -12.44921875 10.02734375 C-12.63063966 6.6804408 -12.22262069 4.37103449 -10.5 1.5 C-7.01402996 -0.59158203 -3.89784294 -0.8876276 0 0 Z " fill="#FFA675" transform="translate(279,119)" />
    <path d="M0 0 C1.8125 1.125 1.8125 1.125 3 3 C3.39310741 6.14485925 3.47555213 8.13281671 1.9375 10.9375 C-1.15212727 12.63181173 -3.67217418 11.73951685 -7 11 C-8 10 -8 10 -8.25 6.625 C-8 3 -8 3 -6.8125 1.0625 C-4.33950907 -0.38718434 -2.82115488 -0.42317323 0 0 Z " fill="#FDFEFE" transform="translate(262,72)" />
</svg>