<?xml version="1.0" encoding="UTF-8"?>
<svg version="1.1" xmlns="http://www.w3.org/2000/svg" viewBox="0 0 200 200" width="40" height="40">
    <path d="M0 0 C0 1.98 0 3.96 0 6 C1.65 6 3.3 6 5 6 C5 4.02 5 2.04 5 0 C7.31 0 9.62 0 12 0 C12 1.98 12 3.96 12 6 C13.65 6 15.3 6 17 6 C17 4.02 17 2.04 17 0 C19.31 0 21.62 0 24 0 C24 1.98 24 3.96 24 6 C25.32 5.67 26.64 5.34 28 5 C28 3.35 28 1.7 28 0 C33.75 -1.125 33.75 -1.125 36 0 C36 1.98 36 3.96 36 6 C37.32 6 38.64 6 40 6 C40 4.02 40 2.04 40 0 C45.75 -1.125 45.75 -1.125 48 0 C48 1.98 48 3.96 48 6 C49.65 6 51.3 6 53 6 C53 4.02 53 2.04 53 0 C55.31 0 57.62 0 60 0 C60 1.98 60 3.96 60 6 C61.65 6 63.3 6 65 6 C65 4.02 65 2.04 65 0 C67.97 -0.495 67.97 -0.495 71 -1 C72.125 3.75 72.125 3.75 71 6 C72.65 6 74.3 6 76 6 C76 4.02 76 2.04 76 0 C78.64 0 81.28 0 84 0 C84 1.98 84 3.96 84 6 C85.32 6 86.64 6 88 6 C88 4.02 88 2.04 88 0 C90.86177057 -1.43088528 92.93375773 -0.59991697 96 0 C96 1.98 96 3.96 96 6 C97.32 6 98.64 6 100 6 C100 4.02 100 2.04 100 0 C102.31 0 104.62 0 107 0 C107.33 1.65 107.66 3.3 108 5 C109.98 5.495 109.98 5.495 112 6 C112 4.02 112 2.04 112 0 C114.31 0 116.62 0 119 0 C119 1.98 119 3.96 119 6 C120.65 6 122.3 6 124 6 C124 4.02 124 2.04 124 0 C126.31 0 128.62 0 131 0 C131 1.98 131 3.96 131 6 C132.32064453 5.91298828 132.32064453 5.91298828 133.66796875 5.82421875 C142.94736842 5.46375372 142.94736842 5.46375372 147.3125 7.6875 C149.98698846 12.9374218 149.38061105 18.22317004 149 24 C150.98 24 152.96 24 155 24 C155 25.98 155 27.96 155 30 C153.35 30.33 151.7 30.66 150 31 C150 32.32 150 33.64 150 35 C151.65 35.33 153.3 35.66 155 36 C155 37.98 155 39.96 155 42 C153.02 42 151.04 42 149 42 C149 43.65 149 45.3 149 47 C149.804375 46.979375 150.60875 46.95875 151.4375 46.9375 C154 47 154 47 155 48 C155.04080783 49.99958364 155.04254356 52.00045254 155 54 C152 55 152 55 149 55 C149 56.32 149 57.64 149 59 C150.98 59 152.96 59 155 59 C155 61.31 155 63.62 155 66 C152.03 66.495 152.03 66.495 149 67 C149 68.32 149 69.64 149 71 C150.98 71 152.96 71 155 71 C155 73.31 155 75.62 155 78 C153.02 78 151.04 78 149 78 C149 79.65 149 81.3 149 83 C149.804375 82.979375 150.60875 82.95875 151.4375 82.9375 C154 83 154 83 155 84 C155.04080783 85.99958364 155.04254356 88.00045254 155 90 C153.02 90 151.04 90 149 90 C149 91.65 149 93.3 149 95 C150.98 95 152.96 95 155 95 C155 97.31 155 99.62 155 102 C153.02 102 151.04 102 149 102 C149 103.65 149 105.3 149 107 C150.98 107 152.96 107 155 107 C155 109.31 155 111.62 155 114 C153.02 114 151.04 114 149 114 C149 115.65 149 117.3 149 119 C149.804375 118.814375 150.60875 118.62875 151.4375 118.4375 C152.283125 118.293125 153.12875 118.14875 154 118 C155 119 155 119 155.0625 122.5625 C155.041875 123.696875 155.02125 124.83125 155 126 C153.02 126 151.04 126 149 126 C149 127.32 149 128.64 149 130 C150.2065625 129.9690625 150.2065625 129.9690625 151.4375 129.9375 C154 130 154 130 155 131 C155.04092937 133.33297433 155.04241723 135.66705225 155 138 C153.02 138 151.04 138 149 138 C149 139.65 149 141.3 149 143 C150.98 143 152.96 143 155 143 C155 144.98 155 146.96 155 149 C153.02 149.33 151.04 149.66 149 150 C149 151.65 149 153.3 149 155 C149.804375 154.814375 150.60875 154.62875 151.4375 154.4375 C152.283125 154.293125 153.12875 154.14875 154 154 C155 155 155 155 155.0625 158.0625 C155.041875 159.031875 155.02125 160.00125 155 161 C153.02 161 151.04 161 149 161 C149.04640625 161.96421875 149.0928125 162.9284375 149.140625 163.921875 C149.17671875 165.18515625 149.2128125 166.4484375 149.25 167.75 C149.29640625 169.00296875 149.3428125 170.2559375 149.390625 171.546875 C149 175 149 175 147.40625 177.40625 C144.27176523 179.48233732 141.9862268 179.60055093 138.25 179.75 C137.07953125 179.80671875 135.9090625 179.8634375 134.703125 179.921875 C133.36507812 179.96054687 133.36507812 179.96054687 132 180 C131.01 182.97 131.01 182.97 130 186 C128.33388095 186.042721 126.66617115 186.04063832 125 186 C124 185 124 185 123.9375 181.9375 C123.958125 180.968125 123.97875 179.99875 124 179 C122.03243548 179.03122943 122.03243548 179.03122943 120 180 C118.6954344 182.99615946 118.6954344 182.99615946 118 186 C116.33388095 186.042721 114.66617115 186.04063832 113 186 C112 185 112 185 111.9375 181.9375 C111.958125 180.968125 111.97875 179.99875 112 179 C110.68 179.33 109.36 179.66 108 180 C108.0309375 181.2065625 108.0309375 181.2065625 108.0625 182.4375 C108 185 108 185 107 186 C104.66702567 186.04092937 102.33294775 186.04241723 100 186 C100 183.69 100 181.38 100 179 C97.96758273 179.63979849 97.96758273 179.63979849 96 181 C95.18828772 183.55519921 95.18828772 183.55519921 95 186 C93.00045254 186.04254356 90.99958364 186.04080783 89 186 C88 185 88 185 87.9375 181.9375 C87.958125 180.968125 87.97875 179.99875 88 179 C86.68 179 85.36 179 84 179 C84 180.98 84 182.96 84 185 C80.71303767 185.79953138 79.28976808 186.09658936 76 185 C76 183.02 76 181.04 76 179 C74.68 179.33 73.36 179.66 72 180 C72.020625 180.804375 72.04125 181.60875 72.0625 182.4375 C72 185 72 185 71 186 C69.33382885 186.04063832 67.66611905 186.042721 66 186 C65.3503125 184.5459375 65.3503125 184.5459375 64.6875 183.0625 C63.2985139 179.72268235 63.2985139 179.72268235 60 179 C60.020625 179.969375 60.04125 180.93875 60.0625 181.9375 C60 185 60 185 59 186 C57.33382885 186.04063832 55.66611905 186.042721 54 186 C53.7525 185.030625 53.505 184.06125 53.25 183.0625 C52.8375 182.051875 52.425 181.04125 52 180 C49.96756452 179.03122943 49.96756452 179.03122943 48 179 C48.020625 179.969375 48.04125 180.93875 48.0625 181.9375 C48 185 48 185 47 186 C45.00041636 186.04080783 42.99954746 186.04254356 41 186 C40 183 40 183 40 179 C38.68 179 37.36 179 36 179 C36.020625 179.969375 36.04125 180.93875 36.0625 181.9375 C36 185 36 185 35 186 C33.00041636 186.04080783 30.99954746 186.04254356 29 186 C28.67 184.02 28.34 182.04 28 180 C27.01 180 26.02 180 25 180 C24.505 182.97 24.505 182.97 24 186 C22.02 186 20.04 186 18 186 C17.62875 184.5459375 17.62875 184.5459375 17.25 183.0625 C16.8375 182.051875 16.425 181.04125 16 180 C13.96756452 179.03122943 13.96756452 179.03122943 12 179 C12.020625 179.969375 12.04125 180.93875 12.0625 181.9375 C12 185 12 185 11 186 C8.5 186.125 8.5 186.125 6 186 C5 185 5 185 4.9375 181.9375 C4.958125 180.968125 4.97875 179.99875 5 179 C3.35 179 1.7 179 0 179 C0.020625 179.969375 0.04125 180.93875 0.0625 181.9375 C0 185 0 185 -1 186 C-2.66617115 186.04063832 -4.33388095 186.042721 -6 186 C-7 183 -7 183 -7 179 C-7.96421875 179.04640625 -8.9284375 179.0928125 -9.921875 179.140625 C-11.18515625 179.17671875 -12.4484375 179.2128125 -13.75 179.25 C-15.00296875 179.29640625 -16.2559375 179.3428125 -17.546875 179.390625 C-21 179 -21 179 -23.4375 177.4375 C-25.58620255 174.08552402 -25.39613718 171.6957039 -25.25 167.75 C-25.21390625 166.48671875 -25.1778125 165.2234375 -25.140625 163.921875 C-25.09421875 162.95765625 -25.0478125 161.9934375 -25 161 C-25.99 161.33 -26.98 161.66 -28 162 C-28.99 161.67 -29.98 161.34 -31 161 C-31 159.02 -31 157.04 -31 155 C-29.02 154.67 -27.04 154.34 -25 154 C-25.33 152.68 -25.66 151.36 -26 150 C-27.65 149.67 -29.3 149.34 -31 149 C-31 147.02 -31 145.04 -31 143 C-29.02 143 -27.04 143 -25 143 C-25 141.68 -25 140.36 -25 139 C-26.98 138.34 -28.96 137.68 -31 137 C-31 135.02 -31 133.04 -31 131 C-29.35 130.67 -27.7 130.34 -26 130 C-25.505 128.02 -25.505 128.02 -25 126 C-25.804375 126.020625 -26.60875 126.04125 -27.4375 126.0625 C-30 126 -30 126 -31 125 C-31.04080783 123.00041636 -31.04254356 120.99954746 -31 119 C-28.03 118.505 -28.03 118.505 -25 118 C-25 116.68 -25 115.36 -25 114 C-26.98 114 -28.96 114 -31 114 C-31 111.69 -31 109.38 -31 107 C-29.02 107 -27.04 107 -25 107 C-25 105.35 -25 103.7 -25 102 C-25.804375 102.020625 -26.60875 102.04125 -27.4375 102.0625 C-30 102 -30 102 -31 101 C-31.125 98.5 -31.125 98.5 -31 96 C-30 95 -30 95 -27.4375 94.9375 C-26.633125 94.958125 -25.82875 94.97875 -25 95 C-25 93.35 -25 91.7 -25 90 C-26.98 90 -28.96 90 -31 90 C-31.04254356 88.00045254 -31.04080783 85.99958364 -31 84 C-30 83 -30 83 -27.4375 82.9375 C-26.633125 82.958125 -25.82875 82.97875 -25 83 C-25 81.35 -25 79.7 -25 78 C-26.98 78 -28.96 78 -31 78 C-31 75.69 -31 73.38 -31 71 C-29.02 71 -27.04 71 -25 71 C-25 69.68 -25 68.36 -25 67 C-25.804375 67.020625 -26.60875 67.04125 -27.4375 67.0625 C-30 67 -30 67 -31 66 C-31.04080783 64.00041636 -31.04254356 61.99954746 -31 60 C-29.02 59.34 -27.04 58.68 -25 58 C-25 57.01 -25 56.02 -25 55 C-25.804375 55.020625 -26.60875 55.04125 -27.4375 55.0625 C-30 55 -30 55 -31 54 C-31.125 51 -31.125 51 -31 48 C-30 47 -30 47 -27.4375 46.9375 C-26.633125 46.958125 -25.82875 46.97875 -25 47 C-25 45.35 -25 43.7 -25 42 C-26.98 42 -28.96 42 -31 42 C-31 40.02 -31 38.04 -31 36 C-28.525 35.505 -28.525 35.505 -26 35 C-25.67 33.35 -25.34 31.7 -25 30 C-25.804375 30.185625 -26.60875 30.37125 -27.4375 30.5625 C-28.283125 30.706875 -29.12875 30.85125 -30 31 C-31 30 -31 30 -31.0625 26.9375 C-31.041875 25.968125 -31.02125 24.99875 -31 24 C-29.02 24 -27.04 24 -25 24 C-25.04640625 23.11957031 -25.0928125 22.23914063 -25.140625 21.33203125 C-25.17671875 20.17058594 -25.2128125 19.00914063 -25.25 17.8125 C-25.29640625 16.66394531 -25.3428125 15.51539062 -25.390625 14.33203125 C-24.91115928 10.24218868 -24.12188444 8.68161868 -21 6 C-17.546875 5.51171875 -17.546875 5.51171875 -13.75 5.6875 C-12.48671875 5.73261719 -11.2234375 5.77773437 -9.921875 5.82421875 C-8.95765625 5.88222656 -7.9934375 5.94023437 -7 6 C-7 4.02 -7 2.04 -7 0 C-3.98968256 -0.93423645 -3.13349732 -1.04449911 0 0 Z " fill="#343333" transform="translate(41,10)"/>
    <path d="M0 0 C0 3.96 0 7.92 0 12 C3.96 12 7.92 12 12 12 C12 13.98 12 15.96 12 18 C10.35 18.33 8.7 18.66 7 19 C7 20.32 7 21.64 7 23 C8.65 23.33 10.3 23.66 12 24 C12 25.98 12 27.96 12 30 C10.02 30 8.04 30 6 30 C6 31.65 6 33.3 6 35 C6.804375 34.979375 7.60875 34.95875 8.4375 34.9375 C11 35 11 35 12 36 C12.04080783 37.99958364 12.04254356 40.00045254 12 42 C9 43 9 43 6 43 C6 44.32 6 45.64 6 47 C7.98 47 9.96 47 12 47 C12 49.31 12 51.62 12 54 C9.03 54.495 9.03 54.495 6 55 C6 56.32 6 57.64 6 59 C7.98 59 9.96 59 12 59 C12 61.31 12 63.62 12 66 C10.02 66 8.04 66 6 66 C6 67.65 6 69.3 6 71 C6.804375 70.979375 7.60875 70.95875 8.4375 70.9375 C11 71 11 71 12 72 C12.04080783 73.99958364 12.04254356 76.00045254 12 78 C10.02 78 8.04 78 6 78 C6 79.65 6 81.3 6 83 C7.98 83 9.96 83 12 83 C12 85.31 12 87.62 12 90 C10.02 90 8.04 90 6 90 C6 91.65 6 93.3 6 95 C7.98 95 9.96 95 12 95 C12 97.31 12 99.62 12 102 C10.02 102 8.04 102 6 102 C6 103.65 6 105.3 6 107 C6.804375 106.814375 7.60875 106.62875 8.4375 106.4375 C9.283125 106.293125 10.12875 106.14875 11 106 C12 107 12 107 12.0625 110.5625 C12.041875 111.696875 12.02125 112.83125 12 114 C10.02 114 8.04 114 6 114 C6 115.32 6 116.64 6 118 C6.804375 117.979375 7.60875 117.95875 8.4375 117.9375 C11 118 11 118 12 119 C12.04092937 121.33297433 12.04241723 123.66705225 12 126 C10.02 126 8.04 126 6 126 C6 127.65 6 129.3 6 131 C7.98 131 9.96 131 12 131 C12 132.98 12 134.96 12 137 C10.02 137.33 8.04 137.66 6 138 C6 139.65 6 141.3 6 143 C6.804375 142.814375 7.60875 142.62875 8.4375 142.4375 C9.283125 142.293125 10.12875 142.14875 11 142 C12 143 12 143 12.0625 146.0625 C12.041875 147.031875 12.02125 148.00125 12 149 C10.02 149 8.04 149 6 149 C6.04640625 149.96421875 6.0928125 150.9284375 6.140625 151.921875 C6.17671875 153.18515625 6.2128125 154.4484375 6.25 155.75 C6.29640625 157.00296875 6.3428125 158.2559375 6.390625 159.546875 C6 163 6 163 4.40625 165.40625 C1.27176523 167.48233732 -1.0137732 167.60055093 -4.75 167.75 C-5.92046875 167.80671875 -7.0909375 167.8634375 -8.296875 167.921875 C-9.63492188 167.96054687 -9.63492188 167.96054687 -11 168 C-11.99 170.97 -11.99 170.97 -13 174 C-14.66611905 174.042721 -16.33382885 174.04063832 -18 174 C-19 173 -19 173 -19.0625 169.9375 C-19.041875 168.968125 -19.02125 167.99875 -19 167 C-20.96756452 167.03122943 -20.96756452 167.03122943 -23 168 C-24.3045656 170.99615946 -24.3045656 170.99615946 -25 174 C-26.66611905 174.042721 -28.33382885 174.04063832 -30 174 C-31 173 -31 173 -31.0625 169.9375 C-31.041875 168.968125 -31.02125 167.99875 -31 167 C-32.32 167.33 -33.64 167.66 -35 168 C-34.979375 168.804375 -34.95875 169.60875 -34.9375 170.4375 C-35 173 -35 173 -36 174 C-38.33297433 174.04092937 -40.66705225 174.04241723 -43 174 C-43 171.69 -43 169.38 -43 167 C-45.03241727 167.63979849 -45.03241727 167.63979849 -47 169 C-47.81171228 171.55519921 -47.81171228 171.55519921 -48 174 C-49.99954746 174.04254356 -52.00041636 174.04080783 -54 174 C-55 173 -55 173 -55.0625 169.9375 C-55.041875 168.968125 -55.02125 167.99875 -55 167 C-56.32 167 -57.64 167 -59 167 C-59 168.98 -59 170.96 -59 173 C-62.28696233 173.79953138 -63.71023192 174.09658936 -67 173 C-67 171.02 -67 169.04 -67 167 C-68.32 167.33 -69.64 167.66 -71 168 C-70.979375 168.804375 -70.95875 169.60875 -70.9375 170.4375 C-71 173 -71 173 -72 174 C-73.66617115 174.04063832 -75.33388095 174.042721 -77 174 C-77.6496875 172.5459375 -77.6496875 172.5459375 -78.3125 171.0625 C-79.7014861 167.72268235 -79.7014861 167.72268235 -83 167 C-82.979375 167.969375 -82.95875 168.93875 -82.9375 169.9375 C-83 173 -83 173 -84 174 C-85.66617115 174.04063832 -87.33388095 174.042721 -89 174 C-89.2475 173.030625 -89.495 172.06125 -89.75 171.0625 C-90.1625 170.051875 -90.575 169.04125 -91 168 C-93.03243548 167.03122943 -93.03243548 167.03122943 -95 167 C-94.979375 167.969375 -94.95875 168.93875 -94.9375 169.9375 C-95 173 -95 173 -96 174 C-97.99958364 174.04080783 -100.00045254 174.04254356 -102 174 C-103 171 -103 171 -103 167 C-104.32 167 -105.64 167 -107 167 C-106.979375 167.969375 -106.95875 168.93875 -106.9375 169.9375 C-107 173 -107 173 -108 174 C-109.99958364 174.04080783 -112.00045254 174.04254356 -114 174 C-114.33 172.02 -114.66 170.04 -115 168 C-115.99 168 -116.98 168 -118 168 C-118.495 170.97 -118.495 170.97 -119 174 C-120.98 174 -122.96 174 -125 174 C-125.37125 172.5459375 -125.37125 172.5459375 -125.75 171.0625 C-126.1625 170.051875 -126.575 169.04125 -127 168 C-129.03243548 167.03122943 -129.03243548 167.03122943 -131 167 C-130.979375 167.969375 -130.95875 168.93875 -130.9375 169.9375 C-131 173 -131 173 -132 174 C-134.5 174.125 -134.5 174.125 -137 174 C-138 173 -138 173 -138.0625 169.9375 C-138.041875 168.968125 -138.02125 167.99875 -138 167 C-139.65 167 -141.3 167 -143 167 C-142.979375 167.969375 -142.95875 168.93875 -142.9375 169.9375 C-143 173 -143 173 -144 174 C-145.66617115 174.04063832 -147.33388095 174.042721 -149 174 C-150.00496852 170.98509443 -150.10335303 168.95818308 -150.0625 165.8125 C-150.05347656 164.91144531 -150.04445313 164.01039063 -150.03515625 163.08203125 C-150.02355469 162.39496094 -150.01195312 161.70789063 -150 161 C-152.97 161 -155.94 161 -159 161 C-158.505 159.02 -158.505 159.02 -158 157 C-157.34 157 -156.68 157 -156 157 C-156 156.34 -156 155.68 -156 155 C-155.34 155 -154.68 155 -154 155 C-153.566875 154.071875 -153.566875 154.071875 -153.125 153.125 C-152 151 -152 151 -150 149 C-147.61432457 148.75390434 -147.61432457 148.75390434 -144.55844116 148.75949097 C-143.40295273 148.75674164 -142.24746429 148.75399231 -141.05696106 148.75115967 C-139.14617012 148.7619455 -139.14617012 148.7619455 -137.19677734 148.77294922 C-135.84674589 148.77351314 -134.49671383 148.77319714 -133.14668274 148.77206421 C-129.47537724 148.77148895 -125.80420169 148.78327108 -122.13292646 148.79721212 C-118.29855471 148.8096908 -114.46418018 148.81088772 -110.62979126 148.81326294 C-103.36601415 148.81948615 -96.10229705 148.8359083 -88.8385464 148.85596192 C-80.57022562 148.8782948 -72.30190202 148.88930777 -64.03355861 148.89935279 C-47.02233766 148.92027383 -30.01117517 148.9554661 -13 149 C-13.00645255 148.30646675 -13.0129051 147.6129335 -13.01955318 146.89838409 C-13.17430078 130.00499671 -13.29005552 113.11183449 -13.3626852 96.21790314 C-13.39874422 88.04800424 -13.44788446 79.87857912 -13.52807617 71.70898438 C-13.59795726 64.58638291 -13.64303353 57.46412463 -13.65861946 50.34118986 C-13.66772723 46.57118958 -13.68905307 42.80217088 -13.7401104 39.03248596 C-13.78783638 35.47977992 -13.80223959 31.92845395 -13.79175377 28.37545776 C-13.79458005 26.45882503 -13.83214122 24.54234068 -13.87094116 22.62609863 C-13.82183812 16.73065018 -13.57279122 12.91266158 -9.63002014 8.35046387 C-8.4441566 7.20803938 -7.235412 6.08865202 -6 5 C-5.03735849 4.00414655 -4.0784473 3.00465966 -3.125 2 C-1 0 -1 0 0 0 Z " fill="#2A2626" transform="translate(184,22)"/>
    <path d="M0 0 C13.86 0 27.72 0 42 0 C42 2.64 42 5.28 42 8 C39.5625 10.0625 39.5625 10.0625 37.92578125 10.92578125 C34.64789448 12.75421707 31.86351515 15.25334488 28.953125 17.609375 C27 19 27 19 25 19 C25 19.66 25 20.32 25 21 C25.804375 20.87625 26.60875 20.7525 27.4375 20.625 C32.53988444 21.1620931 36.16474373 23.65565654 40 27 C43.99484138 33.66014406 42.95092616 43.53451996 42 51 C40.24909132 55.8135349 37.831896 58.51801672 33.9140625 61.6875 C29.64296452 63.61121169 25.69382026 63.47460453 21.0625 63.4375 C19.74088867 63.4674707 19.74088867 63.4674707 18.39257812 63.49804688 C12.7462834 63.49381744 9.46504328 62.77171358 5 59 C1.93727517 55.77172248 0.50729073 53.43879389 0 49 C3.3125 48.6875 3.3125 48.6875 7 49 C8.875 51.4375 8.875 51.4375 10 54 C12.09939785 56.09939785 16.64318528 55.41925196 19.5625 55.5625 C22.346875 55.706875 25.13125 55.85125 28 56 C28 46.76 28 37.52 28 28 C21.4 28 14.8 28 8 28 C8 21 8 21 9.46875 18.99609375 C10.1390625 18.48175781 10.809375 17.96742187 11.5 17.4375 C12.1496875 16.92058594 12.799375 16.40367188 13.46875 15.87109375 C14.3040625 15.25363281 15.139375 14.63617188 16 14 C18.64 12.02 21.28 10.04 24 8 C16.08 7.67 8.16 7.34 0 7 C0 4.69 0 2.38 0 0 Z " fill="#D1D1D1" transform="translate(57,95)"/>
    <path d="M0 0 C4.20973225 2.98090269 7.06496372 6.79394882 8.07421875 11.90625 C8.72689463 16.07202474 8.93546618 19.75971435 8.07421875 23.90625 C6.48363161 26.07688031 4.80850517 27.3551018 2.62890625 28.9296875 C-0.64762949 31.4647442 -3.28821479 34.39429479 -6.05078125 37.46875 C-9.90129756 41.73127915 -13.74220923 45.9656333 -17.92578125 49.90625 C-18.58578125 49.90625 -19.24578125 49.90625 -19.92578125 49.90625 C-19.92578125 51.55625 -19.92578125 53.20625 -19.92578125 54.90625 C-10.68578125 54.90625 -1.44578125 54.90625 8.07421875 54.90625 C8.07421875 57.21625 8.07421875 59.52625 8.07421875 61.90625 C-5.78578125 61.90625 -19.64578125 61.90625 -33.92578125 61.90625 C-33.92578125 50.90625 -33.92578125 50.90625 -30.23828125 47.09375 C-29.50996094 46.56007812 -28.78164062 46.02640625 -28.03125 45.4765625 C-25.99028641 43.9543596 -24.60193096 42.47173611 -23.05078125 40.46875 C-22.34953125 39.623125 -21.64828125 38.7775 -20.92578125 37.90625 C-20.26578125 37.90625 -19.60578125 37.90625 -18.92578125 37.90625 C-18.70019531 37.33132812 -18.47460938 36.75640625 -18.2421875 36.1640625 C-16.57390432 33.30273407 -14.44210169 31.85172742 -11.86328125 29.78125 C-6.76230095 24.90779544 -5.98700396 21.04756255 -5.80078125 14.28125 C-5.76961396 11.47840083 -5.82197527 8.70901156 -5.92578125 5.90625 C-8.51070914 5.99341617 -11.09225627 6.10030119 -13.67578125 6.21875 C-14.40539062 6.24130859 -15.135 6.26386719 -15.88671875 6.28710938 C-20.10076216 6.49781155 -22.96617043 6.75979506 -25.92578125 9.90625 C-26.25578125 10.89625 -26.58578125 11.88625 -26.92578125 12.90625 C-29.23578125 12.90625 -31.54578125 12.90625 -33.92578125 12.90625 C-33.92578125 9.54111494 -33.46521088 7.50131586 -31.18359375 4.984375 C-22.96581528 -2.30024914 -10.48702646 -3.92038372 0 0 Z " fill="#D2D2D2" transform="translate(139.92578125,96.09375)"/>
    <path d="M0 0 C5.506875 -0.1546875 5.506875 -0.1546875 11.125 -0.3125 C12.2711377 -0.35802002 13.41727539 -0.40354004 14.59814453 -0.45043945 C23.05322123 -0.56533836 23.05322123 -0.56533836 26.703125 2.11328125 C29.43379197 5.54519093 29.75684069 7.15939866 29.625 11.5 C29.61726563 12.6034375 29.60953125 13.706875 29.6015625 14.84375 C28.88989061 18.57771681 27.61973836 20.29195585 25 23 C20.53794887 25.23102556 13.78092876 24.04346299 9 24 C9 30.6 9 37.2 9 44 C6.03 44 3.06 44 0 44 C0 29.48 0 14.96 0 0 Z " fill="#DADADA" transform="translate(120,42)"/>
    <path d="M0 0 C7.92 0 15.84 0 24 0 C24 1.65 24 3.3 24 5 C19.38 5 14.76 5 10 5 C10 9.62 10 14.24 10 19 C13.3 19 16.6 19 20 19 C20 20.65 20 22.3 20 24 C19 25 19 25 16.93359375 25.09765625 C13.46679688 25.04882812 13.46679688 25.04882812 10 25 C10 29.62 10 34.24 10 39 C14.95 39 19.9 39 25 39 C25 40.65 25 42.3 25 44 C16.75 44 8.5 44 0 44 C0 29.48 0 14.96 0 0 Z " fill="#D0D0D0" transform="translate(57,42)"/>
    <path d="M0 0 C1.12148437 -0.02835938 2.24296875 -0.05671875 3.3984375 -0.0859375 C7.28286442 0.46898063 8.90038804 1.59559694 11.625 4.375 C12.4375 7.625 12.4375 7.625 12.625 10.375 C10.975 10.375 9.325 10.375 7.625 10.375 C7.295 9.385 6.965 8.395 6.625 7.375 C4.51915562 6.56936362 4.51915562 6.56936362 2.0625 6.1875 C1.23621094 6.02894531 0.40992187 5.87039062 -0.44140625 5.70703125 C-1.07949219 5.59746094 -1.71757813 5.48789062 -2.375 5.375 C-2.21294914 11.54643686 -1.17801638 14.34713514 3.28515625 18.6015625 C3.89230469 19.14554688 4.49945313 19.68953125 5.125 20.25 C6.32457561 21.37062265 7.52257143 22.49293949 8.71875 23.6171875 C9.25177734 24.1004248 9.78480469 24.58366211 10.33398438 25.08154297 C12.82364997 27.5759167 12.84068351 29.78873166 12.9375 33.1875 C12.9056807 36.85732559 12.73354645 38.19159393 10.8125 41.4375 C6.74005165 45.04452568 2.47529011 44.64557732 -2.70703125 44.59765625 C-5.98636363 44.32397844 -7.89220203 43.53743694 -10.375 41.375 C-12.375 38.375 -12.375 38.375 -12.375 34.375 C-10.725 34.375 -9.075 34.375 -7.375 34.375 C-7.1275 35.3340625 -7.1275 35.3340625 -6.875 36.3125 C-5.593214 38.53619241 -5.593214 38.53619241 -3.4609375 38.86328125 C-1.43924845 39.1025978 0.59341939 39.24393028 2.625 39.375 C2.39612182 34.39169775 1.76108165 30.64890784 -1.62890625 26.84765625 C-3.37441897 25.32065022 -5.15231258 23.82963414 -6.96484375 22.3828125 C-9.89958182 19.93799018 -12.07209078 18.03506131 -12.7734375 14.19140625 C-12.72408848 9.44567526 -12.5030357 6.19815474 -9.375 2.375 C-5.85460293 0.02806862 -4.17442991 0.04776236 0 0 Z " fill="#D1D1D1" transform="translate(100.375,41.625)"/>
    <path d="M0 0 C3.01666531 0.56124006 5.20786865 1.4772427 7.51171875 3.54296875 C10.14546256 7.92670845 9.61465677 13.63543722 8.6875 18.5 C6.6484375 21.40625 6.6484375 21.40625 4.6875 23.5 C2.75 23.125 2.75 23.125 0.6875 22.5 C0.3575 21.84 0.0275 21.18 -0.3125 20.5 C-3.9425 20.5 -7.5725 20.5 -11.3125 20.5 C-11.3125 15.22 -11.3125 9.94 -11.3125 4.5 C-9.3325 4.17 -7.3525 3.84 -5.3125 3.5 C-4.796875 2.984375 -4.28125 2.46875 -3.75 1.9375 C-2.3125 0.5 -2.3125 0.5 0 0 Z " fill="#C6C6C6" transform="translate(140.3125,41.5)"/>
    <path d="M0 0 C2.31 0 4.62 0 7 0 C7 3.96 7 7.92 7 12 C10.63 12 14.26 12 18 12 C18 13.98 18 15.96 18 18 C15.75106046 18.10823773 13.50062425 18.18569645 11.25 18.25 C9.37054687 18.31960937 9.37054687 18.31960937 7.453125 18.390625 C4 18 4 18 1.5625 16.4375 C-0.58620255 13.08552402 -0.39613718 10.6957039 -0.25 6.75 C-0.21390625 5.48671875 -0.1778125 4.2234375 -0.140625 2.921875 C-0.09421875 1.95765625 -0.0478125 0.9934375 0 0 Z " fill="#1D0404" transform="translate(16,171)"/>
    <path d="M0 0 C1.2065625 0.0309375 1.2065625 0.0309375 2.4375 0.0625 C2.54573773 2.31143954 2.62319645 4.56187575 2.6875 6.8125 C2.73390625 8.06546875 2.7803125 9.3184375 2.828125 10.609375 C2.4375 14.0625 2.4375 14.0625 0.875 16.46875 C-2.4059345 18.61397641 -4.91842603 18.66827504 -8.8125 18.8125 C-10.07578125 18.86921875 -11.3390625 18.9259375 -12.640625 18.984375 C-13.60484375 19.01015625 -14.5690625 19.0359375 -15.5625 19.0625 C-15.5625 16.7525 -15.5625 14.4425 -15.5625 12.0625 C-11.6025 12.0625 -7.6425 12.0625 -3.5625 12.0625 C-3.583125 10.268125 -3.60375 8.47375 -3.625 6.625 C-3.6463122 4.77083878 -3.63476502 2.91537502 -3.5625 1.0625 C-2.5625 0.0625 -2.5625 0.0625 0 0 Z " fill="#1C0202" transform="translate(187.5625,170.9375)"/>
    <path d="M0 0 C1.26328125 0.04511719 2.5265625 0.09023437 3.828125 0.13671875 C4.79234375 0.19472656 5.7565625 0.25273437 6.75 0.3125 C6.75 2.2925 6.75 4.2725 6.75 6.3125 C2.79 6.3125 -1.17 6.3125 -5.25 6.3125 C-4.92 10.2725 -4.59 14.2325 -4.25 18.3125 C-6.56 18.3125 -8.87 18.3125 -11.25 18.3125 C-11.35864945 16.25117858 -11.43588321 14.18818679 -11.5 12.125 C-11.54640625 10.97644531 -11.5928125 9.82789063 -11.640625 8.64453125 C-10.75817518 1.11723425 -7.08079169 -0.32781443 0 0 Z " fill="#040101" transform="translate(27.25,15.6875)"/>
    <path d="M0 0 C11.51123596 -0.75842697 11.51123596 -0.75842697 16.3125 1.6875 C18.98698846 6.9374218 18.38061105 12.22317004 18 18 C16.02 18 14.04 18 12 18 C12 14.04 12 10.08 12 6 C8.04 6 4.08 6 0 6 C0 4.02 0 2.04 0 0 Z " fill="#1E0101" transform="translate(172,16)"/>
    <path d="M0 0 C2.79192205 -0.05380578 5.5828141 -0.09357669 8.375 -0.125 C9.1690625 -0.14175781 9.963125 -0.15851563 10.78125 -0.17578125 C12.85492015 -0.19335473 14.92883241 -0.10335168 17 0 C19 2 19 2 19 6 C15.69005287 7.65497356 12.00877 7.10084335 8.375 7.0625 C7.57320312 7.05798828 6.77140625 7.05347656 5.9453125 7.04882812 C3.96350994 7.03703168 1.98174567 7.01909605 0 7 C0 4.69 0 2.38 0 0 Z " fill="#826363" transform="translate(10,117)"/>
    <path d="M0 0 C0 2.31 0 4.62 0 7 C-2.81256281 7.02684312 -5.62487241 7.04676188 -8.4375 7.0625 C-9.23994141 7.07087891 -10.04238281 7.07925781 -10.86914062 7.08789062 C-12.91295221 7.0965143 -14.95683902 7.0522815 -17 7 C-18 6 -18 6 -18.125 3.5 C-18 1 -18 1 -17 0 C-14.71397321 -0.26309771 -12.4202452 -0.46071865 -10.125 -0.625 C-8.86945313 -0.72039062 -7.61390625 -0.81578125 -6.3203125 -0.9140625 C-3 -1 -3 -1 0 0 Z " fill="#856767" transform="translate(196,129)"/>
    <path d="M0 0 C2.97 0 5.94 0 9 0 C9 4.62 9 9.24 9 14 C6.03 14 3.06 14 0 14 C0 9.38 0 4.76 0 0 Z " fill="#2E2E2E" transform="translate(130,47)"/>
    <path d="M0 0 C1.32 0 2.64 0 4 0 C5.65497356 3.30994713 5.10084335 6.99123 5.0625 10.625 C5.05798828 11.42679688 5.05347656 12.22859375 5.04882812 13.0546875 C5.03703168 15.03649006 5.01909605 17.01825433 5 19 C3.00045254 19.04254356 0.99958364 19.04080783 -1 19 C-2.91811433 17.08188567 -2.17438668 13.73410709 -2.1875 11.1875 C-2.20167969 9.94355469 -2.21585938 8.69960937 -2.23046875 7.41796875 C-2.01852668 4.27476006 -1.66475807 2.61228836 0 0 Z " fill="#856969" transform="translate(60,177)"/>
    <path d="M0 0 C1.58206057 0.00667536 3.16410534 0.0186375 4.74609375 0.03515625 C5.55240234 0.03966797 6.35871094 0.04417969 7.18945312 0.04882812 C9.18753131 0.06065107 11.18557158 0.07858711 13.18359375 0.09765625 C13.18359375 2.40765625 13.18359375 4.71765625 13.18359375 7.09765625 C10.37103094 7.12449937 7.55872134 7.14441813 4.74609375 7.16015625 C3.94365234 7.16853516 3.14121094 7.17691406 2.31445312 7.18554688 C0.27064154 7.19417055 -1.77324527 7.14993775 -3.81640625 7.09765625 C-4.81640625 6.09765625 -4.81640625 6.09765625 -4.94140625 3.59765625 C-4.73860537 -0.45836144 -4.26592725 0.10915883 0 0 Z " fill="#816969" transform="translate(182.81640625,80.90234375)"/>
    <path d="M0 0 C1.65 0.33 3.3 0.66 5 1 C5.33 6.61 5.66 12.22 6 18 C2.71023192 19.09658936 1.28696233 18.79953138 -2 18 C-1.85980308 15.18711295 -1.71312045 12.37483115 -1.5625 9.5625 C-1.52318359 8.76005859 -1.48386719 7.95761719 -1.44335938 7.13085938 C-1.11328125 1.11328125 -1.11328125 1.11328125 0 0 Z " fill="#969898" transform="translate(131,177)"/>
    <path d="M0 0 C1.67542976 0.28604898 3.34385343 0.61781233 5 1 C5.19384179 3.81219705 5.38036603 6.62454196 5.5625 9.4375 C5.61857422 10.23994141 5.67464844 11.04238281 5.73242188 11.86914062 C5.8616295 13.91062111 5.9351273 15.95546369 6 18 C5 19 5 19 1.4375 19.0625 C0.303125 19.041875 -0.83125 19.02125 -2 19 C-1.85982174 16.02046641 -1.71313658 13.04150696 -1.5625 10.0625 C-1.52318359 9.21236328 -1.48386719 8.36222656 -1.44335938 7.48632812 C-1.40146484 6.67744141 -1.35957031 5.86855469 -1.31640625 5.03515625 C-1.27974854 4.2862915 -1.24309082 3.53742676 -1.20532227 2.76586914 C-1 1 -1 1 0 0 Z " fill="#8E6363" transform="translate(143,177)"/>
    <path d="M0 0 C0 2.31 0 4.62 0 7 C-2.81256281 7.02684312 -5.62487241 7.04676188 -8.4375 7.0625 C-9.23994141 7.07087891 -10.04238281 7.07925781 -10.86914062 7.08789062 C-12.91295221 7.0965143 -14.95683902 7.0522815 -17 7 C-18 6 -18 6 -18.0625 3.4375 C-18.041875 2.633125 -18.02125 1.82875 -18 1 C-12.03325384 -0.32594359 -6.07416385 -0.0884587 0 0 Z " fill="#876D6D" transform="translate(196,117)"/>
    <path d="M0 0 C5.94 0.33 11.88 0.66 18 1 C18.33 2.65 18.66 4.3 19 6 C15.69005287 7.65497356 12.00877 7.10084335 8.375 7.0625 C7.57320312 7.05798828 6.77140625 7.05347656 5.9453125 7.04882812 C3.96350994 7.03703168 1.98174567 7.01909605 0 7 C0 4.69 0 2.38 0 0 Z " fill="#8B6868" transform="translate(10,81)"/>
    <path d="M0 0 C1.65 0.33 3.3 0.66 5 1 C5 6.61 5 12.22 5 18 C1 19 1 19 -2 18 C-1.85980308 15.18711295 -1.71312045 12.37483115 -1.5625 9.5625 C-1.52318359 8.76005859 -1.48386719 7.95761719 -1.44335938 7.13085938 C-1.11328125 1.11328125 -1.11328125 1.11328125 0 0 Z " fill="#896363" transform="translate(155,177)"/>
    <path d="M0 0 C1.67542976 0.28604898 3.34385343 0.61781233 5 1 C5.19384179 3.81219705 5.38036603 6.62454196 5.5625 9.4375 C5.61857422 10.23994141 5.67464844 11.04238281 5.73242188 11.86914062 C5.8616295 13.91062111 5.9351273 15.95546369 6 18 C5 19 5 19 2.4375 19.0625 C1.633125 19.041875 0.82875 19.02125 0 19 C-2.03747967 14.84697631 -2.11697225 11.82413815 -1.6875 7.25 C-1.58824219 6.10015625 -1.48898438 4.9503125 -1.38671875 3.765625 C-1 1 -1 1 0 0 Z " fill="#9D6E6E" transform="translate(107,177)"/>
    <path d="M0 0 C2.70108504 0.090916 5.36930311 0.23740766 8.0625 0.4375 C9.20041992 0.51581055 9.20041992 0.51581055 10.36132812 0.59570312 C12.24121722 0.72575835 14.12065685 0.86228038 16 1 C16.38218767 2.65614657 16.71395102 4.32457024 17 6 C14.94057529 8.05942471 10.84036265 7.45906816 8 7.625 C6.87464844 7.70234375 6.87464844 7.70234375 5.7265625 7.78125 C3.81990351 7.89826517 1.90969078 7.9539329 0 8 C-1 7 -1 7 -1.125 4 C-1 1 -1 1 0 0 Z " fill="#969797" transform="translate(11,69)"/>
    <path d="M0 0 C0 5.61 0 11.22 0 17 C-1.65 17.33 -3.3 17.66 -5 18 C-7.11925604 15.88074396 -6.41831017 11.3803907 -6.5625 8.4375 C-6.60568359 7.63119141 -6.64886719 6.82488281 -6.69335938 5.99414062 C-6.79975262 3.99631195 -6.90040888 1.9981793 -7 0 C-3.98968256 -0.93423645 -3.13349732 -1.04449911 0 0 Z " fill="#876262" transform="translate(41,10)"/>
    <path d="M0 0 C5.94 0 11.88 0 18 0 C18.33 1.65 18.66 3.3 19 5 C18 6 18 6 16.23413086 6.11352539 C15.48526611 6.10828857 14.73640137 6.10305176 13.96484375 6.09765625 C13.15595703 6.09443359 12.34707031 6.09121094 11.51367188 6.08789062 C10.66353516 6.07951172 9.81339844 6.07113281 8.9375 6.0625 C8.08349609 6.05798828 7.22949219 6.05347656 6.34960938 6.04882812 C4.23304337 6.03700373 2.11651315 6.01906769 0 6 C0 4.02 0 2.04 0 0 Z " fill="#7C5D5D" transform="translate(10,94)"/>
    <path d="M0 0 C2.31 0 4.62 0 7 0 C6.67 5.61 6.34 11.22 6 17 C4.35 17.33 2.7 17.66 1 18 C0 17 0 17 -0.09765625 13.18359375 C-0.09098089 11.60153318 -0.07901875 10.01948841 -0.0625 8.4375 C-0.05798828 7.63119141 -0.05347656 6.82488281 -0.04882812 5.99414062 C-0.03700518 3.99606244 -0.01906914 1.99802217 0 0 Z " fill="#876666" transform="translate(94,10)"/>
    <path d="M0 0 C1.58206057 0.00667536 3.16410534 0.0186375 4.74609375 0.03515625 C5.55240234 0.03966797 6.35871094 0.04417969 7.18945312 0.04882812 C9.18753131 0.06065107 11.18557158 0.07858711 13.18359375 0.09765625 C13.18359375 2.07765625 13.18359375 4.05765625 13.18359375 6.09765625 C9.08634106 7.13933066 5.56864151 7.0417515 1.37109375 6.66015625 C0.20964844 6.55832031 -0.95179688 6.45648438 -2.1484375 6.3515625 C-3.02886719 6.26777344 -3.90929687 6.18398438 -4.81640625 6.09765625 C-4.85912725 4.4315372 -4.85704457 2.7638274 -4.81640625 1.09765625 C-3.81640625 0.09765625 -3.81640625 0.09765625 0 0 Z " fill="#866C6C" transform="translate(182.81640625,33.90234375)"/>
    <path d="M0 0 C0 1.98 0 3.96 0 6 C-5.61 6 -11.22 6 -17 6 C-17.33 4.35 -17.66 2.7 -18 1 C-16.075648 -0.924352 -12.69798515 -0.44083951 -10.125 -0.625 C-8.86945313 -0.72039063 -7.61390625 -0.81578125 -6.3203125 -0.9140625 C-3 -1 -3 -1 0 0 Z " fill="#857070" transform="translate(196,46)"/>
    <path d="M0 0 C2.0625 0.4375 2.0625 0.4375 4 1 C4.19384179 3.81219705 4.38036603 6.62454196 4.5625 9.4375 C4.61857422 10.23994141 4.67464844 11.04238281 4.73242188 11.86914062 C4.8616295 13.91062111 4.9351273 15.95546369 5 18 C4 19 4 19 1.5 19.125 C-1 19 -1 19 -2 18 C-1.93527574 15.15213242 -1.80855168 12.34046224 -1.625 9.5 C-1.58117187 8.70207031 -1.53734375 7.90414062 -1.4921875 7.08203125 C-1.1282917 1.1282917 -1.1282917 1.1282917 0 0 Z " fill="#D4A2A2" transform="translate(167,177)"/>
    <path d="M0 0 C2.0625 0.4375 2.0625 0.4375 4 1 C4.19384179 3.81219705 4.38036603 6.62454196 4.5625 9.4375 C4.61857422 10.23994141 4.67464844 11.04238281 4.73242188 11.86914062 C4.8616295 13.91062111 4.9351273 15.95546369 5 18 C4 19 4 19 1.5 19.125 C-1 19 -1 19 -2 18 C-1.93527574 15.15213242 -1.80855168 12.34046224 -1.625 9.5 C-1.58117188 8.70207031 -1.53734375 7.90414062 -1.4921875 7.08203125 C-1.1282917 1.1282917 -1.1282917 1.1282917 0 0 Z " fill="#999A9A" transform="translate(48,177)"/>
    <path d="M0 0 C0.33 0.99 0.66 1.98 1 3 C-2.46104881 8.9225706 -8.72773229 13.69469797 -13.6875 18.375 C-14.34105469 18.99415283 -14.99460938 19.61330566 -15.66796875 20.2512207 C-16.29703125 20.83605225 -16.92609375 21.42088379 -17.57421875 22.0234375 C-18.13713623 22.54856934 -18.70005371 23.07370117 -19.2800293 23.61474609 C-21.09121198 25.07346157 -22.88909382 26.03790004 -25 27 C-25 27.99 -25 28.98 -25 30 C-16.09 30 -7.18 30 2 30 C2 30.33 2 30.66 2 31 C-7.24 31 -16.48 31 -26 31 C-26 26 -26 26 -24.49609375 24.2265625 C-23.81675781 23.69804687 -23.13742188 23.16953125 -22.4375 22.625 C-16.19180563 17.53387942 -10.83472968 11.89796911 -5.578125 5.80078125 C-3.80350185 3.7757781 -1.94223065 1.86454143 0 0 Z " fill="#535353" transform="translate(146,120)"/>
    <path d="M0 0 C0 2.31 0 4.62 0 7 C-5.94 6.67 -11.88 6.34 -18 6 C-18 4.35 -18 2.7 -18 1 C-11.97968656 0.39034801 -6.05329744 -0.13451772 0 0 Z " fill="#D0A2A2" transform="translate(196,105)"/>
    <path d="M0 0 C0 1.98 0 3.96 0 6 C-5.61 6 -11.22 6 -17 6 C-17.33 4.35 -17.66 2.7 -18 1 C-12.03325384 -0.32594359 -6.07416385 -0.0884587 0 0 Z " fill="#A48B8B" transform="translate(196,153)"/>
    <path d="M0 0 C0.08159574 4.16138263 -0.01751476 7.9472484 -1 12 C-2.65 12 -4.3 12 -6 12 C-7.59138085 7.82262526 -8.21278058 4.46839215 -8 0 C-4.71303767 -0.79953138 -3.28976808 -1.09658936 0 0 Z " fill="#B28484" transform="translate(89,10)"/>
    <path d="M0 0 C1.65 0.33 3.3 0.66 5 1 C5.33 4.63 5.66 8.26 6 12 C1 13 1 13 -1 13 C-1.02686553 11.02090602 -1.04633375 9.04171029 -1.0625 7.0625 C-1.07410156 5.96035156 -1.08570312 4.85820312 -1.09765625 3.72265625 C-1 1 -1 1 0 0 Z " fill="#BE8989" transform="translate(119,183)"/>
    <path d="M0 0 C0 2.31 0 4.62 0 7 C-4.16138263 7.08159574 -7.9472484 6.98248524 -12 6 C-12 4.02 -12 2.04 -12 0 C-10.37585622 -0.19477739 -8.75063577 -0.38059458 -7.125 -0.5625 C-6.22007812 -0.66691406 -5.31515625 -0.77132812 -4.3828125 -0.87890625 C-2 -1 -2 -1 0 0 Z " fill="#B08B8B" transform="translate(196,141)"/>
    <path d="M0 0 C1.83647742 0.06392801 3.67070892 0.20055729 5.5 0.375 C6.5003125 0.46523438 7.500625 0.55546875 8.53125 0.6484375 C11 1 11 1 12 2 C12 3.65 12 5.3 12 7 C7.71 7 3.42 7 -1 7 C-1 1 -1 1 0 0 Z " fill="#988E8E" transform="translate(11,45)"/>
    <path d="M0 0 C0 4.62 0 9.24 0 14 C-1.98 14 -3.96 14 -6 14 C-7.31157516 11.37684968 -6.89649988 9.76966564 -6.5625 6.875 C-6.46066406 5.96492187 -6.35882813 5.05484375 -6.25390625 4.1171875 C-6.17011719 3.41851562 -6.08632812 2.71984375 -6 2 C-1.125 0 -1.125 0 0 0 Z " fill="#D0B4B4" transform="translate(88,182)"/>
    <path d="M0 0 C1.65 0 3.3 0 5 0 C5.19397476 1.97854258 5.38001321 3.9578648 5.5625 5.9375 C5.66691406 7.03964844 5.77132812 8.14179688 5.87890625 9.27734375 C5.91886719 10.17582031 5.95882812 11.07429687 6 12 C5 13 5 13 1.9375 13.0625 C0.968125 13.041875 -0.00125 13.02125 -1 13 C-2.51403812 8.15507803 -1.36602172 4.7408989 0 0 Z " fill="#D2A8A8" transform="translate(71,183)"/>
    <path d="M0 0 C0 2.31 0 4.62 0 7 C-3.96 7 -7.92 7 -12 7 C-12 5.02 -12 3.04 -12 1 C-7.9472484 0.01751476 -4.16138263 -0.08159574 0 0 Z " fill="#CFB0B0" transform="translate(196,69)"/>
    <path d="M0 0 C2.00720923 0.28674418 4.0085944 0.61866701 6 1 C6 4.96 6 8.92 6 13 C4.02 13 2.04 13 0 13 C-0.19397476 11.02145742 -0.38001321 9.0421352 -0.5625 7.0625 C-0.66691406 5.96035156 -0.77132812 4.85820312 -0.87890625 3.72265625 C-0.91886719 2.82417969 -0.95882812 1.92570313 -1 1 C-0.67 0.67 -0.34 0.34 0 0 Z " fill="#AF9393" transform="translate(130,9)"/>
    <path d="M0 0 C2.64 0 5.28 0 8 0 C7.67 3.96 7.34 7.92 7 12 C5.35 12 3.7 12 2 12 C0.26043342 10.26043342 0.62809614 7.8063378 0.4375 5.4375 C0.35371094 4.42558594 0.26992187 3.41367188 0.18359375 2.37109375 C0.12300781 1.58863281 0.06242187 0.80617188 0 0 Z " fill="#D2B0B0" transform="translate(117,10)"/>
    <path d="M0 0 C4.29 0 8.58 0 13 0 C13 1.98 13 3.96 13 6 C8.71 6 4.42 6 0 6 C0 4.02 0 2.04 0 0 Z " fill="#CFBCBC" transform="translate(10,58)"/>
    <path d="M0 0 C2.02408755 0.09002398 4.04544287 0.24641038 6.0625 0.4375 C7.71958984 0.59025391 7.71958984 0.59025391 9.41015625 0.74609375 C10.26480469 0.82988281 11.11945312 0.91367188 12 1 C12 2.65 12 4.3 12 6 C10.02145742 6.19397476 8.0421352 6.38001321 6.0625 6.5625 C4.40927734 6.71912109 4.40927734 6.71912109 2.72265625 6.87890625 C1.37494141 6.93884766 1.37494141 6.93884766 0 7 C-1 6 -1 6 -1.125 3.5 C-1 1 -1 1 0 0 Z " fill="#989A9A" transform="translate(11,105)"/>
    <path d="M0 0 C4.29 0.33 8.58 0.66 13 1 C13 2.65 13 4.3 13 6 C11.02145742 6.19397476 9.0421352 6.38001321 7.0625 6.5625 C5.40927734 6.71912109 5.40927734 6.71912109 3.72265625 6.87890625 C2.37494141 6.93884766 2.37494141 6.93884766 1 7 C0.67 6.67 0.34 6.34 0 6 C0 4.02 0 2.04 0 0 Z " fill="#B48A8A" transform="translate(10,153)"/>
    <path d="M0 0 C0.08159574 4.16138263 -0.01751476 7.9472484 -1 12 C-2.65 12 -4.3 12 -6 12 C-6.66 8.04 -7.32 4.08 -8 0 C-3 -1 -3 -1 0 0 Z " fill="#B49292" transform="translate(77,10)"/>
    <path d="M0 0 C4.29 0.33 8.58 0.66 13 1 C13 2.65 13 4.3 13 6 C11.39679026 6.19551338 9.79237014 6.38111983 8.1875 6.5625 C7.29417969 6.66691406 6.40085937 6.77132812 5.48046875 6.87890625 C3 7 3 7 0 6 C0 4.02 0 2.04 0 0 Z " fill="#AB8B8B" transform="translate(10,165)"/>
    <path d="M0 0 C3.96 0 7.92 0 12 0 C12 1.98 12 3.96 12 6 C9.37684968 7.31157516 7.76966564 6.89649988 4.875 6.5625 C3.96492187 6.46066406 3.05484375 6.35882813 2.1171875 6.25390625 C1.41851562 6.17011719 0.71984375 6.08632812 0 6 C0 4.02 0 2.04 0 0 Z " fill="#CDBDBD" transform="translate(184,58)"/>
    <path d="M0 0 C2.31 0 4.62 0 7 0 C8.45606519 4.52092968 7.27032841 7.51648796 6 12 C4.35 12 2.7 12 1 12 C0.67 8.04 0.34 4.08 0 0 Z " fill="#D1B4B4" transform="translate(141,10)"/>
    <path d="M0 0 C1.36511719 0.29197266 1.36511719 0.29197266 2.7578125 0.58984375 C3.45648438 0.74582031 4.15515625 0.90179688 4.875 1.0625 C4.875 2.7125 4.875 4.3625 4.875 6.0625 C0.915 6.0625 -3.045 6.0625 -7.125 6.0625 C-7.125 4.0825 -7.125 2.1025 -7.125 0.0625 C-4.4030754 -1.2984623 -2.9418043 -0.64116248 0 0 Z " fill="#D0B4B4" transform="translate(17.125,140.9375)"/>
    <path d="M0 0 C4.29 0.33 8.58 0.66 13 1 C13 2.65 13 4.3 13 6 C8.71 6 4.42 6 0 6 C0 4.02 0 2.04 0 0 Z " fill="#B09A9A" transform="translate(10,129)"/>
    <path d="M0 0 C2.31 0 4.62 0 7 0 C6.67 3.96 6.34 7.92 6 12 C4.35 12 2.7 12 1 12 C0.67 8.04 0.34 4.08 0 0 Z " fill="#D0B9B9" transform="translate(58,10)"/>
    <path d="M0 0 C1.65 0 3.3 0 5 0 C5 4.29 5 8.58 5 13 C3.35 13 1.7 13 0 13 C-0.33 12.67 -0.66 12.34 -1 12 C-0.90997602 9.97591245 -0.75358962 7.95455713 -0.5625 5.9375 C-0.46066406 4.83277344 -0.35882813 3.72804687 -0.25390625 2.58984375 C-0.17011719 1.73519531 -0.08632812 0.88054687 0 0 Z " fill="#D59393" transform="translate(95,183)"/>
    <path d="M0 0 C4.16138263 -0.08159574 7.9472484 0.01751476 12 1 C12 2.65 12 4.3 12 6 C10.18818595 6.19401633 8.37551468 6.38004375 6.5625 6.5625 C5.04849609 6.71912109 5.04849609 6.71912109 3.50390625 6.87890625 C2.67761719 6.91886719 1.85132813 6.95882812 1 7 C0 6 0 6 -0.0625 2.9375 C-0.041875 1.968125 -0.02125 0.99875 0 0 Z " fill="#B48C8C" transform="translate(10,34)"/>
    <path d="M0 0 C1.98 0 3.96 0 6 0 C6.08159574 4.16138263 5.98248524 7.9472484 5 12 C3.35 12 1.7 12 0 12 C0 8.04 0 4.08 0 0 Z " fill="#A79191" transform="translate(166,10)"/>
    <path d="M0 0 C1.44977894 2.34112451 2.04314411 3.5796929 1.7578125 6.359375 C1.54898438 7.14828125 1.34015625 7.9371875 1.125 8.75 C0.92132813 9.54921875 0.71765625 10.3484375 0.5078125 11.171875 C0.34023437 11.77515625 0.17265625 12.3784375 0 13 C-1.65 12.67 -3.3 12.34 -5 12 C-5 8.37 -5 4.74 -5 1 C-3.35 0.67 -1.7 0.34 0 0 Z " fill="#B19797" transform="translate(111,9)"/>
    <path d="M0 0 C1.98 0 3.96 0 6 0 C6.08159574 4.16138263 5.98248524 7.9472484 5 12 C3.35 12 1.7 12 0 12 C0 8.04 0 4.08 0 0 Z " fill="#A78F8F" transform="translate(47,10)"/>
    <path d="M0 0 C1.98 0 3.96 0 6 0 C6.08159574 4.16138263 5.98248524 7.9472484 5 12 C3.35 11.67 1.7 11.34 0 11 C0 7.37 0 3.74 0 0 Z " fill="#AD9898" transform="translate(154,10)"/>
    <path d="M0 0 C1.32 0 2.64 0 4 0 C4 4.29 4 8.58 4 13 C2.35 13 0.7 13 -1 13 C-2.30055604 10.39888792 -1.93112435 8.81258678 -1.625 5.9375 C-1.53476562 5.03902344 -1.44453125 4.14054688 -1.3515625 3.21484375 C-1 1 -1 1 0 0 Z " fill="#D1B7B7" transform="translate(36,183)"/>
    <path d="M0 0 C0 1.98 0 3.96 0 6 C-4.16138263 6.08159574 -7.9472484 5.98248524 -12 5 C-12 3.68 -12 2.36 -12 1 C-10.37681021 0.63762737 -8.7513642 0.28534843 -7.125 -0.0625 C-6.22007812 -0.25972656 -5.31515625 -0.45695313 -4.3828125 -0.66015625 C-2 -1 -2 -1 0 0 Z " fill="#B99999" transform="translate(196,165)"/>
    <path d="M0 0 C3.96 0 7.92 0 12 0 C12 1.65 12 3.3 12 5 C8.04 5 4.08 5 0 5 C0 3.35 0 1.7 0 0 Z " fill="#9A9B9B" transform="translate(11,118)"/>
    <path d="M0 0 C1.65 0 3.3 0 5 0 C5 3.96 5 7.92 5 12 C3.35 11.67 1.7 11.34 0 11 C0 7.37 0 3.74 0 0 Z " fill="#9A9B9B" transform="translate(59,183)"/>
    <path d="M0 0 C2.64 0 5.28 0 8 0 C8.33 1.65 8.66 3.3 9 5 C5.31912647 7.45391569 2.55644412 7.22802759 -1.6875 7.125 C-2.7403418 7.11146484 -2.7403418 7.11146484 -3.81445312 7.09765625 C-5.54311525 7.07413704 -7.27160145 7.03826713 -9 7 C-9 6.67 -9 6.34 -9 6 C-5.37 6 -1.74 6 2 6 C2 4.35 2 2.7 2 1 C1.34 0.67 0.68 0.34 0 0 Z " fill="#6E5F5F" transform="translate(20,141)"/>
    <path d="M0 0 C1.62490954 -0.02698189 3.24994633 -0.04638757 4.875 -0.0625 C5.77992187 -0.07410156 6.68484375 -0.08570313 7.6171875 -0.09765625 C10 0 10 0 12 1 C11.125 5.875 11.125 5.875 10 7 C7.30345146 7.07319621 4.63308542 7.09242537 1.9375 7.0625 C1.17888672 7.05798828 0.42027344 7.05347656 -0.36132812 7.04882812 C-2.24091871 7.0370068 -4.12046899 7.01907078 -6 7 C-6 6.67 -6 6.34 -6 6 C-2.04 6 1.92 6 6 6 C6 4.35 6 2.7 6 1 C4.02 1 2.04 1 0 1 C0 0.67 0 0.34 0 0 Z " fill="#6D6262" transform="translate(17,129)"/>
    <path d="M0 0 C3.63 0 7.26 0 11 0 C11 1.65 11 3.3 11 5 C7.37 5 3.74 5 0 5 C0 3.35 0 1.7 0 0 Z " fill="#A1A0A0" transform="translate(184,94)"/>
    <path d="M0 0 C1.65 0 3.3 0 5 0 C5 3.63 5 7.26 5 11 C3.35 11 1.7 11 0 11 C0 7.37 0 3.74 0 0 Z " fill="#9C9D9D" transform="translate(35,11)"/>
    <path d="M0 0 C1.32 0 2.64 0 4 0 C4 3.63 4 7.26 4 11 C2.35 11 0.7 11 -1 11 C-1.02688151 9.35425434 -1.04634123 7.70838587 -1.0625 6.0625 C-1.07410156 5.14597656 -1.08570313 4.22945312 -1.09765625 3.28515625 C-1 1 -1 1 0 0 Z " fill="#989A9A" transform="translate(155,183)"/>
    <path d="M0 0 C1.65 0 3.3 0 5 0 C5 3.3 5 6.6 5 10 C3.35 10.33 1.7 10.66 0 11 C0 7.37 0 3.74 0 0 Z " fill="#9B9C9C" transform="translate(95,11)"/>
    <path d="M0 0 C1.65 0 3.3 0 5 0 C5.165 0.639375 5.33 1.27875 5.5 1.9375 C6.781786 4.16119241 6.781786 4.16119241 8.9140625 4.48828125 C10.93575155 4.7275978 12.96841939 4.86893028 15 5 C15 5.33 15 5.66 15 6 C13.9275 6.12375 12.855 6.2475 11.75 6.375 C8.62136385 6.89643936 6.66519576 7.40088254 4 9 C0 4.5 0 4.5 0 0 Z " fill="#C4C4C4" transform="translate(88,76)"/>
    <path d="M0 0 C1.98 0 3.96 0 6 0 C6 1.65 6 3.3 6 5 C9.63 5 13.26 5 17 5 C17 3.35 17 1.7 17 0 C17.33 0 17.66 0 18 0 C18 1.98 18 3.96 18 6 C15.18743719 6.02684312 12.37512759 6.04676188 9.5625 6.0625 C8.76005859 6.07087891 7.95761719 6.07925781 7.13085938 6.08789062 C5.08704779 6.0965143 3.04316098 6.0522815 1 6 C0 5 0 5 -0.0625 2.4375 C-0.041875 1.633125 -0.02125 0.82875 0 0 Z " fill="#7D6464" transform="translate(178,94)"/>
    <path d="M0 0 C3.63 0 7.26 0 11 0 C11 1.32 11 2.64 11 4 C8.24921116 4.91692961 6.64051087 5.10886083 3.8125 5.0625 C1.9253125 5.0315625 1.9253125 5.0315625 0 5 C0 3.35 0 1.7 0 0 Z " fill="#A2A0A0" transform="translate(184,35)"/>
    <path d="M0 0 C2.31 0 4.62 0 7 0 C7.33 1.98 7.66 3.96 8 6 C4.71023192 7.09658936 3.28696233 6.79953138 0 6 C0 4.02 0 2.04 0 0 Z " fill="#D3A1A1" transform="translate(129,189)"/>
    <path d="M0 0 C0 3.63 0 7.26 0 11 C-0.33 11 -0.66 11 -1 11 C-1 9.02 -1 7.04 -1 5 C-2.65 5 -4.3 5 -6 5 C-6 6.98 -6 8.96 -6 11 C-6.33 11 -6.66 11 -7 11 C-7 7.37 -7 3.74 -7 0 C-5 -1 -5 -1 0 0 Z " fill="#5F5F5F" transform="translate(77,178)"/>
    <path d="M0 0 C0 5.61 0 11.22 0 17 C-0.33 17 -0.66 17 -1 17 C-1.33 13.04 -1.66 9.08 -2 5 C-3.65 5.33 -5.3 5.66 -7 6 C-7 4.02 -7 2.04 -7 0 C-5 -1 -5 -1 0 0 Z " fill="#695757" transform="translate(89,178)"/>
    <path d="M0 0 C1.4540625 0.0309375 1.4540625 0.0309375 2.9375 0.0625 C2.9375 2.3725 2.9375 4.6825 2.9375 7.0625 C0.9460944 7.44383299 -1.05529077 7.77575582 -3.0625 8.0625 C-4.0625 7.0625 -4.0625 7.0625 -4.1875 4.0625 C-4.02164894 0.08207447 -4.02164894 0.08207447 0 0 Z " fill="#D57C7C" transform="translate(14.0625,68.9375)"/>
    <path d="M0 0 C0.33 0 0.66 0 1 0 C1 1.98 1 3.96 1 6 C2.65 6 4.3 6 6 6 C6 4.02 6 2.04 6 0 C6.33 0 6.66 0 7 0 C7 3.63 7 7.26 7 11 C5.35 11.33 3.7 11.66 2 12 C0 10 0 10 -0.1953125 7.6171875 C-0.17210937 6.71226563 -0.14890625 5.80734375 -0.125 4.875 C-0.10695312 3.96492188 -0.08890625 3.05484375 -0.0703125 2.1171875 C-0.04710937 1.41851563 -0.02390625 0.71984375 0 0 Z " fill="#626262" transform="translate(58,16)"/>
    <path d="M0 0 C1.26328125 0.04511719 2.5265625 0.09023437 3.828125 0.13671875 C4.79234375 0.19472656 5.7565625 0.25273437 6.75 0.3125 C6.75 0.6425 6.75 0.9725 6.75 1.3125 C6.00234375 1.33828125 5.2546875 1.3640625 4.484375 1.390625 C3.49953125 1.44734375 2.5146875 1.5040625 1.5 1.5625 C0.52546875 1.60890625 -0.4490625 1.6553125 -1.453125 1.703125 C-4.96681923 2.46867849 -6.13180849 3.42405703 -8.25 6.3125 C-9.15466931 9.33551398 -9.15466931 9.33551398 -9.5 12.5625 C-9.64953125 13.64015625 -9.7990625 14.7178125 -9.953125 15.828125 C-10.05109375 16.64796875 -10.1490625 17.4678125 -10.25 18.3125 C-10.58 18.3125 -10.91 18.3125 -11.25 18.3125 C-11.35864945 16.25117858 -11.43588321 14.18818679 -11.5 12.125 C-11.54640625 10.97644531 -11.5928125 9.82789063 -11.640625 8.64453125 C-10.75817518 1.11723425 -7.08079169 -0.32781443 0 0 Z " fill="#680000" transform="translate(27.25,15.6875)"/>
    <path d="M0 0 C2.31 0 4.62 0 7 0 C7.04254356 1.99954746 7.04080783 4.00041636 7 6 C6 7 6 7 3.5 7.125 C1 7 1 7 0 6 C-0.04080783 4.00041636 -0.04254356 1.99954746 0 0 Z " fill="#D3A0A0" transform="translate(46,189)"/>
    <path d="M0 0 C1.65 0.33 3.3 0.66 5 1 C5 6.61 5 12.22 5 18 C4.67 18 4.34 18 4 18 C4 14.04 4 10.08 4 6 C2.35 6.33 0.7 6.66 -1 7 C-1.04254356 5.00045254 -1.04080783 2.99958364 -1 1 C-0.67 0.67 -0.34 0.34 0 0 Z " fill="#6E6060" transform="translate(36,177)"/>
    <path d="M0 0 C3.10408807 -0.05807043 6.2080364 -0.09361914 9.3125 -0.125 C10.19357422 -0.14175781 11.07464844 -0.15851563 11.98242188 -0.17578125 C12.82998047 -0.18222656 13.67753906 -0.18867187 14.55078125 -0.1953125 C15.72120972 -0.21102295 15.72120972 -0.21102295 16.9152832 -0.22705078 C19 0 19 0 22 2 C22 2.66 22 3.32 22 4 C21.35675781 3.84660156 20.71351563 3.69320312 20.05078125 3.53515625 C16.10232463 2.84253326 12.1868113 2.64199119 8.1875 2.4375 C7.39923828 2.39431641 6.61097656 2.35113281 5.79882812 2.30664062 C3.86605785 2.20121679 1.93304974 2.10016906 0 2 C0 1.34 0 0.68 0 0 Z " fill="#C8C8C8" transform="translate(118,95)"/>
    <path d="M0 0 C4.95 0 9.9 0 15 0 C15 1.32 15 2.64 15 4 C10.38 4 5.76 4 1 4 C1.99 3.34 2.98 2.68 4 2 C2.68 1.34 1.36 0.68 0 0 Z " fill="#E0E0E0" transform="translate(66,82)"/>
    <path d="M0 0 C0.33 0 0.66 0 1 0 C1 3.96 1 7.92 1 12 C2.65 12 4.3 12 6 12 C6 13.65 6 15.3 6 17 C4.34385343 17.38218767 2.67542976 17.71395102 1 18 C0 17 0 17 -0.09765625 13.18359375 C-0.09098089 11.60153318 -0.07901875 10.01948841 -0.0625 8.4375 C-0.05798828 7.63119141 -0.05347656 6.82488281 -0.04882812 5.99414062 C-0.03700518 3.99606244 -0.01906914 1.99802217 0 0 Z " fill="#6F5B5B" transform="translate(46,10)"/>
    <path d="M0 0 C0.33 0 0.66 0 1 0 C1 3.96 1 7.92 1 12 C2.65 12 4.3 12 6 12 C6 13.65 6 15.3 6 17 C4.125 17.625 4.125 17.625 2 18 C0 16 0 16 -0.1953125 12.3046875 C-0.182009 10.82799892 -0.15814835 9.35137642 -0.125 7.875 C-0.11146484 6.74384766 -0.11146484 6.74384766 -0.09765625 5.58984375 C-0.0740687 3.72642746 -0.03819719 1.86317407 0 0 Z " fill="#715A5A" transform="translate(165,10)"/>
    <path d="M0 0 C1.22589844 0.01353516 1.22589844 0.01353516 2.4765625 0.02734375 C3.41628906 0.04474609 3.41628906 0.04474609 4.375 0.0625 C4.375 0.3925 4.375 0.7225 4.375 1.0625 C2.725 1.0625 1.075 1.0625 -0.625 1.0625 C-0.625 2.3825 -0.625 3.7025 -0.625 5.0625 C1.025 5.0625 2.675 5.0625 4.375 5.0625 C4.375 5.3925 4.375 5.7225 4.375 6.0625 C1.075 6.0625 -2.225 6.0625 -5.625 6.0625 C-5.955 4.4125 -6.285 2.7625 -6.625 1.0625 C-4.21954362 -0.14022819 -2.67503047 -0.03821472 0 0 Z " fill="#6A6A6A" transform="translate(184.625,164.9375)"/>
    <path d="M0 0 C0.33 0.99 0.66 1.98 1 3 C-3.29 7.29 -7.58 11.58 -12 16 C-12.33 15.01 -12.66 14.02 -13 13 C-8.71 8.71 -4.42 4.42 0 0 Z " fill="#CCCCCC" transform="translate(135,129)"/>
    <path d="M0 0 C0.33 0 0.66 0 1 0 C1.02687279 1.81242052 1.04633715 3.62495233 1.0625 5.4375 C1.07410156 6.44683594 1.08570313 7.45617187 1.09765625 8.49609375 C1 11 1 11 0 12 C-1.66617115 12.04063832 -3.33388095 12.042721 -5 12 C-5 10.02 -5 8.04 -5 6 C-3.35 6 -1.7 6 0 6 C0 4.02 0 2.04 0 0 Z " fill="#656565" transform="translate(147,16)"/>
    <path d="M0 0 C3.63 0 7.26 0 11 0 C11.33 1.65 11.66 3.3 12 5 C11 6 11 6 8.4375 6.0625 C7.2309375 6.0315625 7.2309375 6.0315625 6 6 C6 4.35 6 2.7 6 1 C4.02 1 2.04 1 0 1 C0 0.67 0 0.34 0 0 Z " fill="#626262" transform="translate(17,165)"/>
    <path d="M0 0 C1.98 0.66 3.96 1.32 6 2 C6 3.65 6 5.3 6 7 C3.69 7 1.38 7 -1 7 C-1.04254356 5.00045254 -1.04080783 2.99958364 -1 1 C-0.67 0.67 -0.34 0.34 0 0 Z " fill="#D0AFAF" transform="translate(11,45)"/>
    <path d="M0 0 C0.33 0 0.66 0 1 0 C1 3.3 1 6.6 1 10 C-0.65614657 10.38218767 -2.32457024 10.71395102 -4 11 C-5 10 -5 10 -5.0625 6.9375 C-5.041875 5.968125 -5.02125 4.99875 -5 4 C-2.525 4.495 -2.525 4.495 0 5 C0 3.35 0 1.7 0 0 Z " fill="#606060" transform="translate(159,17)"/>
    <path d="M0 0 C0 1.65 0 3.3 0 5 C-1.65 5 -3.3 5 -5 5 C-5 6.98 -5 8.96 -5 11 C-5.33 11 -5.66 11 -6 11 C-6 7.37 -6 3.74 -6 0 C-3.50907189 -1.24546405 -2.58919267 -0.7767578 0 0 Z " fill="#5E5E5E" transform="translate(100,178)"/>
    <path d="M0 0 C2.97 0 5.94 0 9 0 C8.01 0.495 8.01 0.495 7 1 C8.65 1.33 10.3 1.66 12 2 C11.67 2.66 11.34 3.32 11 4 C7.37 4 3.74 4 0 4 C0 2.66666667 0 1.33333333 0 0 Z " fill="#DDDDDD" transform="translate(95,82)"/>
    <path d="M0 0 C3.3 0 6.6 0 10 0 C10.38218767 1.65614657 10.71395102 3.32457024 11 5 C10 6 10 6 7.4375 6.0625 C6.2309375 6.0315625 6.2309375 6.0315625 5 6 C5 4.35 5 2.7 5 1 C3.35 1 1.7 1 0 1 C0 0.67 0 0.34 0 0 Z " fill="#666666" transform="translate(17,34)"/>
    <path d="M0 0 C0.33 0 0.66 0 1 0 C1 3.63 1 7.26 1 11 C-0.32 11.33 -1.64 11.66 -3 12 C-5 10 -5 10 -5.125 7.375 C-5.08375 6.59125 -5.0425 5.8075 -5 5 C-2.525 5.495 -2.525 5.495 0 6 C0 4.02 0 2.04 0 0 Z " fill="#666666" transform="translate(111,16)"/>
    <path d="M0 0 C1.62463842 -0.05395478 3.24978541 -0.09277195 4.875 -0.125 C5.77992187 -0.14820313 6.68484375 -0.17140625 7.6171875 -0.1953125 C10 0 10 0 12 2 C11.625 4.125 11.625 4.125 11 6 C9.35 6 7.7 6 6 6 C6 4.35 6 2.7 6 1 C4.02 1 2.04 1 0 1 C0 0.67 0 0.34 0 0 Z " fill="#5F5F5F" transform="translate(17,153)"/>
    <path d="M0 0 C0.33 0 0.66 0 1 0 C1 1.65 1 3.3 1 5 C2.65 5 4.3 5 6 5 C6 6.65 6 8.3 6 10 C4.35 10.33 2.7 10.66 1 11 C-0.20272819 8.59454362 -0.10071472 7.05003047 -0.0625 4.375 C-0.05347656 3.55773437 -0.04445313 2.74046875 -0.03515625 1.8984375 C-0.02355469 1.27195312 -0.01195313 0.64546875 0 0 Z " fill="#676868" transform="translate(70,17)"/>
    <path d="M0 0 C1.2065625 0.0309375 1.2065625 0.0309375 2.4375 0.0625 C2.4375 2.3725 2.4375 4.6825 2.4375 7.0625 C0.4575 7.0625 -1.5225 7.0625 -3.5625 7.0625 C-3.60504356 5.06295254 -3.60330783 3.06208364 -3.5625 1.0625 C-2.5625 0.0625 -2.5625 0.0625 0 0 Z " fill="#626262" transform="translate(121.5625,176.9375)"/>
    <path d="M0 0 C1.65 0.33 3.3 0.66 5 1 C5.33 2.98 5.66 4.96 6 7 C4.35 7 2.7 7 1 7 C0.67 6.01 0.34 5.02 0 4 C-0.66 3.34 -1.32 2.68 -2 2 C-1.34 2 -0.68 2 0 2 C0 1.34 0 0.68 0 0 Z " fill="#C3C3C3" transform="translate(107,45)"/>
    <path d="M0 0 C0 2.31 0 4.62 0 7 C-1.98 7 -3.96 7 -6 7 C-6 5.35 -6 3.7 -6 2 C-1.125 0 -1.125 0 0 0 Z " fill="#969797" transform="translate(88,182)"/>
    <path d="M0 0 C1.98 0 3.96 0 6 0 C6 1.98 6 3.96 6 6 C4.02 6 2.04 6 0 6 C0 4.02 0 2.04 0 0 Z " fill="#969797" transform="translate(17,58)"/>
    <path d="M0 0 C1.67542976 0.28604898 3.34385343 0.61781233 5 1 C5 2.98 5 4.96 5 7 C2.03 6.505 2.03 6.505 -1 6 C-1.042721 4.33388095 -1.04063832 2.66617115 -1 1 C-0.67 0.67 -0.34 0.34 0 0 Z " fill="#636363" transform="translate(131,177)"/>
    <path d="M0 0 C2.31 0.33 4.62 0.66 7 1 C7 2.65 7 4.3 7 6 C4.69 6 2.38 6 0 6 C0 4.02 0 2.04 0 0 Z " fill="#230808" transform="translate(16,159)"/>
    <path d="M0 0 C1.2065625 0.0309375 1.2065625 0.0309375 2.4375 0.0625 C2.4375 2.0425 2.4375 4.0225 2.4375 6.0625 C0.4575 6.0625 -1.5225 6.0625 -3.5625 6.0625 C-3.605221 4.39638095 -3.60313832 2.72867115 -3.5625 1.0625 C-2.5625 0.0625 -2.5625 0.0625 0 0 Z " fill="#666666" transform="translate(181.5625,140.9375)"/>
    <path d="M0 0 C0.33 0.99 0.66 1.98 1 3 C-0.36328125 5.0078125 -0.36328125 5.0078125 -2.3125 7.125 C-2.94800781 7.82882813 -3.58351562 8.53265625 -4.23828125 9.2578125 C-6 11 -6 11 -8 12 C-7.84595887 6.91664275 -4.97931568 4.64245282 -1.49609375 1.35546875 C-1.00238281 0.90816406 -0.50867188 0.46085937 0 0 Z " fill="#434343" transform="translate(146,120)"/>
    <path d="M0 0 C2.97 0.495 2.97 0.495 6 1 C6 2.65 6 4.3 6 6 C4.34385343 6.38218767 2.67542976 6.71395102 1 7 C0 6 0 6 -0.0625 2.9375 C-0.041875 1.968125 -0.02125 0.99875 0 0 Z " fill="#666666" transform="translate(118,21)"/>
    <path d="M0 0 C2.97 0.495 2.97 0.495 6 1 C6 2.65 6 4.3 6 6 C4.34385343 6.38218767 2.67542976 6.71395102 1 7 C0 6 0 6 -0.0625 2.9375 C-0.041875 1.968125 -0.02125 0.99875 0 0 Z " fill="#666666" transform="translate(82,21)"/>
    <path d="M0 0 C0.33 0 0.66 0 1 0 C1 1.98 1 3.96 1 6 C2.32 6 3.64 6 5 6 C5 7.98 5 9.96 5 12 C3.35 11.67 1.7 11.34 0 11 C0 7.37 0 3.74 0 0 Z " fill="#3C0F0F" transform="translate(136,10)"/>
    <path d="M0 0 C1.98 0 3.96 0 6 0 C6 1.98 6 3.96 6 6 C4.33388095 6.042721 2.66617115 6.04063832 1 6 C0 5 0 5 -0.0625 2.4375 C-0.041875 1.633125 -0.02125 0.82875 0 0 Z " fill="#9B9B9B" transform="translate(118,16)"/>
    <path d="M0 0 C1.65 0 3.3 0 5 0 C5 2.64 5 5.28 5 8 C3.35 8 1.7 8 0 8 C0 5.36 0 2.72 0 0 Z " fill="#1E0B0B" transform="translate(65,182)"/>
    <path d="M0 0 C1.2065625 0.0309375 1.2065625 0.0309375 2.4375 0.0625 C2.4375 2.0425 2.4375 4.0225 2.4375 6.0625 C0.7875 6.0625 -0.8625 6.0625 -2.5625 6.0625 C-2.94468767 4.40635343 -3.27645102 2.73792976 -3.5625 1.0625 C-2.5625 0.0625 -2.5625 0.0625 0 0 Z " fill="#686868" transform="translate(181.5625,69.9375)"/>
    <path d="M0 0 C1.2065625 0.0309375 1.2065625 0.0309375 2.4375 0.0625 C2.4375 2.0425 2.4375 4.0225 2.4375 6.0625 C0.7875 6.0625 -0.8625 6.0625 -2.5625 6.0625 C-2.94468767 4.40635343 -3.27645102 2.73792976 -3.5625 1.0625 C-2.5625 0.0625 -2.5625 0.0625 0 0 Z " fill="#686868" transform="translate(181.5625,57.9375)"/>
    <path d="M0 0 C1.65 0 3.3 0 5 0 C5.38218767 1.65614657 5.71395102 3.32457024 6 5 C5 6 5 6 2.4375 6.0625 C1.2309375 6.0315625 1.2309375 6.0315625 0 6 C0 4.02 0 2.04 0 0 Z " fill="#626262" transform="translate(23,58)"/>
    <path d="M0 0 C1.98 0 3.96 0 6 0 C6.38218767 1.65614657 6.71395102 3.32457024 7 5 C6 6 6 6 3.4375 6.0625 C2.2309375 6.0315625 2.2309375 6.0315625 1 6 C0.67 4.02 0.34 2.04 0 0 Z " fill="#606060" transform="translate(22,46)"/>
    <path d="M0 0 C1.98 0 3.96 0 6 0 C6 1.65 6 3.3 6 5 C4.34385343 5.38218767 2.67542976 5.71395102 1 6 C0 5 0 5 -0.0625 2.4375 C-0.041875 1.633125 -0.02125 0.82875 0 0 Z " fill="#656565" transform="translate(130,22)"/>
    <path d="M0 0 C0 2.64 0 5.28 0 8 C-1.65 7.67 -3.3 7.34 -5 7 C-5 5.02 -5 3.04 -5 1 C-1.125 0 -1.125 0 0 0 Z " fill="#1D0808" transform="translate(106,182)"/>
    <path d="M0 0 C2.0625 0.4375 2.0625 0.4375 4 1 C4 2.98 4 4.96 4 7 C2.35 7 0.7 7 -1 7 C-1.04254356 5.00045254 -1.04080783 2.99958364 -1 1 C-0.67 0.67 -0.34 0.34 0 0 Z " fill="#696969" transform="translate(167,177)"/>
    <path d="M0 0 C0 2.64 0 5.28 0 8 C-1.65 7.67 -3.3 7.34 -5 7 C-5 5.02 -5 3.04 -5 1 C-1.125 0 -1.125 0 0 0 Z " fill="#150505" transform="translate(58,182)"/>
    <path d="M0 0 C2.31 0 4.62 0 7 0 C7 1.65 7 3.3 7 5 C4.69 5 2.38 5 0 5 C0 3.35 0 1.7 0 0 Z " fill="#200303" transform="translate(183,148)"/>
    <path d="M0 0 C1.65 0 3.3 0 5 0 C5 2.31 5 4.62 5 7 C3.35 6.67 1.7 6.34 0 6 C0 4.02 0 2.04 0 0 Z " fill="#999999" transform="translate(95,183)"/>
    <path d="M0 0 C1.65 0 3.3 0 5 0 C5 1.98 5 3.96 5 6 C3.35 6.33 1.7 6.66 0 7 C0 4.69 0 2.38 0 0 Z " fill="#150505" transform="translate(160,183)"/>
    <path d="M0 0 C2.475 0.495 2.475 0.495 5 1 C5 2.98 5 4.96 5 7 C3.35 7 1.7 7 0 7 C0 4.69 0 2.38 0 0 Z " fill="#0F0505" transform="translate(41,182)"/>
    <path d="M0 0 C0.99 0.33 1.98 0.66 3 1 C-2.96583144 8.66742597 -2.96583144 8.66742597 -8 10 C-7.04367001 8.70684939 -6.08486149 7.41553147 -5.125 6.125 C-4.59132813 5.40570313 -4.05765625 4.68640625 -3.5078125 3.9453125 C-2 2 -2 2 0 0 Z " fill="#C9C9C9" transform="translate(119,134)"/>
    <path d="M0 0 C2.31 0 4.62 0 7 0 C7 1.65 7 3.3 7 5 C5.02 5 3.04 5 1 5 C0.67 3.35 0.34 1.7 0 0 Z " fill="#1F0202" transform="translate(183,100)"/>
    <path d="M0 0 C1.65 0 3.3 0 5 0 C5.33 1.98 5.66 3.96 6 6 C4.02 6 2.04 6 0 6 C0 4.02 0 2.04 0 0 Z " fill="#9A9A9A" transform="translate(184,58)"/>
    <path d="M0 0 C1.98 0 3.96 0 6 0 C6 1.98 6 3.96 6 6 C4.35 6 2.7 6 1 6 C0.67 4.02 0.34 2.04 0 0 Z " fill="#1B0707" transform="translate(100,16)"/>
    <path d="M0 0 C1.65 0 3.3 0 5 0 C5 2.31 5 4.62 5 7 C3.35 6.67 1.7 6.34 0 6 C0 4.02 0 2.04 0 0 Z " fill="#170505" transform="translate(53,16)"/>
    <path d="M0 0 C1.65 0 3.3 0 5 0 C5 1.98 5 3.96 5 6 C3.35 6 1.7 6 0 6 C0 4.02 0 2.04 0 0 Z " fill="#CBD2D2" transform="translate(142,189)"/>
    <path d="M0 0 C1.65 0 3.3 0 5 0 C5 1.98 5 3.96 5 6 C3.35 6 1.7 6 0 6 C0 4.02 0 2.04 0 0 Z " fill="#9A9B9B" transform="translate(142,183)"/>
    <path d="M0 0 C2.475 0.495 2.475 0.495 5 1 C5 2.98 5 4.96 5 7 C3.35 6.67 1.7 6.34 0 6 C0 4.02 0 2.04 0 0 Z " fill="#150404" transform="translate(89,183)"/>
    <path d="M0 0 C1.65 0 3.3 0 5 0 C5 1.98 5 3.96 5 6 C3.35 6 1.7 6 0 6 C0 4.02 0 2.04 0 0 Z " fill="#9A9B9B" transform="translate(71,183)"/>
    <path d="M0 0 C1.98 0 3.96 0 6 0 C6 1.65 6 3.3 6 5 C4.02 5 2.04 5 0 5 C0 3.35 0 1.7 0 0 Z " fill="#CCCACA" transform="translate(11,165)"/>
    <path d="M0 0 C1.98 0 3.96 0 6 0 C6 1.65 6 3.3 6 5 C4.02 5 2.04 5 0 5 C0 3.35 0 1.7 0 0 Z " fill="#C9CECE" transform="translate(189,154)"/>
    <path d="M0 0 C1.98 0 3.96 0 6 0 C6 1.65 6 3.3 6 5 C4.02 5 2.04 5 0 5 C0 3.35 0 1.7 0 0 Z " fill="#C9D1D1" transform="translate(189,130)"/>
    <path d="M0 0 C1.98 0 3.96 0 6 0 C6 1.65 6 3.3 6 5 C4.02 5 2.04 5 0 5 C0 3.35 0 1.7 0 0 Z " fill="#C9D2D2" transform="translate(189,118)"/>
    <path d="M0 0 C1.98 0 3.96 0 6 0 C6 1.65 6 3.3 6 5 C4.02 5 2.04 5 0 5 C0 3.35 0 1.7 0 0 Z " fill="#CAD3D3" transform="translate(11,118)"/>
    <path d="M0 0 C1.98 0 3.96 0 6 0 C6 1.65 6 3.3 6 5 C4.02 5 2.04 5 0 5 C0 3.35 0 1.7 0 0 Z " fill="#200202" transform="translate(184,112)"/>
    <path d="M0 0 C1.98 0 3.96 0 6 0 C6 1.65 6 3.3 6 5 C4.02 5 2.04 5 0 5 C0 3.35 0 1.7 0 0 Z " fill="#240202" transform="translate(16,112)"/>
    <path d="M0 0 C1.98 0 3.96 0 6 0 C6 1.65 6 3.3 6 5 C4.02 5 2.04 5 0 5 C0 3.35 0 1.7 0 0 Z " fill="#686868" transform="translate(178,106)"/>
    <path d="M0 0 C1.98 0 3.96 0 6 0 C6 1.65 6 3.3 6 5 C4.02 5 2.04 5 0 5 C0 3.35 0 1.7 0 0 Z " fill="#230202" transform="translate(16,100)"/>
    <path d="M0 0 C1.98 0 3.96 0 6 0 C6 1.65 6 3.3 6 5 C4.02 5 2.04 5 0 5 C0 3.35 0 1.7 0 0 Z " fill="#CBD1D1" transform="translate(11,94)"/>
    <path d="M0 0 C1.98 0 3.96 0 6 0 C6 1.65 6 3.3 6 5 C4.02 5 2.04 5 0 5 C0 3.35 0 1.7 0 0 Z " fill="#979898" transform="translate(17,94)"/>
    <path d="M0 0 C1.98 0 3.96 0 6 0 C6 1.65 6 3.3 6 5 C4.02 5 2.04 5 0 5 C0 3.35 0 1.7 0 0 Z " fill="#210404" transform="translate(184,88)"/>
    <path d="M0 0 C1.98 0 3.96 0 6 0 C6 1.65 6 3.3 6 5 C4.02 5 2.04 5 0 5 C0 3.35 0 1.7 0 0 Z " fill="#CAD3D3" transform="translate(11,82)"/>
    <path d="M0 0 C1.98 0 3.96 0 6 0 C6 1.65 6 3.3 6 5 C4.02 5 2.04 5 0 5 C0 3.35 0 1.7 0 0 Z " fill="#C9D2D2" transform="translate(189,82)"/>
    <path d="M0 0 C1.98 0 3.96 0 6 0 C6 1.65 6 3.3 6 5 C4.02 5 2.04 5 0 5 C0 3.35 0 1.7 0 0 Z " fill="#9A9B9B" transform="translate(17,82)"/>
    <path d="M0 0 C1.65 0 3.3 0 5 0 C5 1.98 5 3.96 5 6 C3.35 6 1.7 6 0 6 C0 4.02 0 2.04 0 0 Z " fill="#989A9A" transform="translate(184,70)"/>
    <path d="M0 0 C1.98 0 3.96 0 6 0 C6 1.65 6 3.3 6 5 C4.02 5 2.04 5 0 5 C0 3.35 0 1.7 0 0 Z " fill="#CCC6C6" transform="translate(11,34)"/>
    <path d="M0 0 C1.65 0 3.3 0 5 0 C5 1.98 5 3.96 5 6 C3.35 6 1.7 6 0 6 C0 4.02 0 2.04 0 0 Z " fill="#9E9F9F" transform="translate(142,16)"/>
    <path d="M0 0 C1.65 0 3.3 0 5 0 C5 1.98 5 3.96 5 6 C3.35 6 1.7 6 0 6 C0 4.02 0 2.04 0 0 Z " fill="#170404" transform="translate(89,16)"/>
    <path d="M0 0 C1.65 0 3.3 0 5 0 C5 1.98 5 3.96 5 6 C3.35 6 1.7 6 0 6 C0 4.02 0 2.04 0 0 Z " fill="#9E9F9F" transform="translate(59,16)"/>
    <path d="M0 0 C1.65 0 3.3 0 5 0 C5 1.98 5 3.96 5 6 C3.35 6 1.7 6 0 6 C0 4.02 0 2.04 0 0 Z " fill="#150303" transform="translate(41,16)"/>
    <path d="M0 0 C1.65 0 3.3 0 5 0 C5 1.98 5 3.96 5 6 C3.35 6 1.7 6 0 6 C0 4.02 0 2.04 0 0 Z " fill="#170404" transform="translate(160,16)"/>
    <path d="M0 0 C0 1.98 0 3.96 0 6 C-1.65 6.33 -3.3 6.66 -5 7 C-5 5.02 -5 3.04 -5 1 C-1.125 0 -1.125 0 0 0 Z " fill="#200808" transform="translate(70,15)"/>
    <path d="M0 0 C1.65 0 3.3 0 5 0 C5 1.98 5 3.96 5 6 C3.35 6 1.7 6 0 6 C0 4.02 0 2.04 0 0 Z " fill="#CDCBCB" transform="translate(166,10)"/>
    <path d="M0 0 C1.98 0 3.96 0 6 0 C6 1.65 6 3.3 6 5 C4.02 5 2.04 5 0 5 C0 3.35 0 1.7 0 0 Z " fill="#CECFCF" transform="translate(82,11)"/>
    <path d="M0 0 C1.65 0 3.3 0 5 0 C5 1.98 5 3.96 5 6 C3.35 6 1.7 6 0 6 C0 4.02 0 2.04 0 0 Z " fill="#CDCCCC" transform="translate(47,10)"/>
    <path d="M0 0 C1.32 0 2.64 0 4 0 C4 1.98 4 3.96 4 6 C2.35 6 0.7 6 -1 6 C-1.042721 4.33388095 -1.04063832 2.66617115 -1 1 C-0.67 0.67 -0.34 0.34 0 0 Z " fill="#999A9A" transform="translate(36,183)"/>
    <path d="M0 0 C1.98 0 3.96 0 6 0 C6 1.65 6 3.3 6 5 C4.35 5 2.7 5 1 5 C0.67 3.35 0.34 1.7 0 0 Z " fill="#6A6A6A" transform="translate(178,154)"/>
    <path d="M0 0 C1.98 0 3.96 0 6 0 C6 1.65 6 3.3 6 5 C4.02 5 2.04 5 0 5 C0 3.35 0 1.7 0 0 Z " fill="#1D0202" transform="translate(16,148)"/>
    <path d="M0 0 C2.475 0.495 2.475 0.495 5 1 C5 2.65 5 4.3 5 6 C3.35 6 1.7 6 0 6 C0 4.02 0 2.04 0 0 Z " fill="#CCD3D3" transform="translate(190,141)"/>
    <path d="M0 0 C1.65 0 3.3 0 5 0 C5 1.65 5 3.3 5 5 C3.02 5 1.04 5 -1 5 C-0.67 3.35 -0.34 1.7 0 0 Z " fill="#220505" transform="translate(185,124)"/>
    <path d="M0 0 C1.98 0 3.96 0 6 0 C6 1.65 6 3.3 6 5 C4.02 5 2.04 5 0 5 C0 3.35 0 1.7 0 0 Z " fill="#220606" transform="translate(16,124)"/>
    <path d="M0 0 C1.65 0.33 3.3 0.66 5 1 C4.67 2.65 4.34 4.3 4 6 C2.35 6 0.7 6 -1 6 C-0.67 4.02 -0.34 2.04 0 0 Z " fill="#676767" transform="translate(23,70)"/>
    <path d="M0 0 C1.32 0 2.64 0 4 0 C4 1.98 4 3.96 4 6 C2.35 6 0.7 6 -1 6 C-0.67 4.02 -0.34 2.04 0 0 Z " fill="#0F0505" transform="translate(149,183)"/>
    <path d="M0 0 C2.0625 0.4375 2.0625 0.4375 4 1 C4 2.65 4 4.3 4 6 C2.35 6 0.7 6 -1 6 C-1.042721 4.33388095 -1.04063832 2.66617115 -1 1 C-0.67 0.67 -0.34 0.34 0 0 Z " fill="#656565" transform="translate(48,177)"/>
    <path d="M0 0 C2.475 0.495 2.475 0.495 5 1 C5 2.65 5 4.3 5 6 C3.35 6 1.7 6 0 6 C0 4.02 0 2.04 0 0 Z " fill="#9A9C9C" transform="translate(17,141)"/>
    <path d="M0 0 C1.4540625 0.0309375 1.4540625 0.0309375 2.9375 0.0625 C1.9475 0.7225 0.9575 1.3825 -0.0625 2.0625 C-0.0625 3.0525 -0.0625 4.0425 -0.0625 5.0625 C-0.7225 4.7325 -1.3825 4.4025 -2.0625 4.0625 C-2.0625 4.7225 -2.0625 5.3825 -2.0625 6.0625 C-0.4125 6.0625 1.2375 6.0625 2.9375 6.0625 C2.9375 6.3925 2.9375 6.7225 2.9375 7.0625 C0.93795254 7.10504356 -1.06291636 7.10330783 -3.0625 7.0625 C-4.0625 6.0625 -4.0625 6.0625 -4.1875 3.5625 C-4.00295237 -0.12845252 -3.76342282 0.07680455 0 0 Z " fill="#D58383" transform="translate(14.0625,104.9375)"/>
    <path d="M0 0 C1.65 0 3.3 0 5 0 C5.5625 1.9375 5.5625 1.9375 6 4 C5 5 5 5 2.4375 5.0625 C1.2309375 5.0315625 1.2309375 5.0315625 0 5 C0 3.35 0 1.7 0 0 Z " fill="#656565" transform="translate(23,106)"/>
    <path d="M0 0 C2.97 0.495 2.97 0.495 6 1 C6 2.32 6 3.64 6 5 C4.02 5 2.04 5 0 5 C0 3.35 0 1.7 0 0 Z " fill="#270303" transform="translate(16,88)"/>
    <path d="M0 0 C0 1.65 0 3.3 0 5 C-1.98 5 -3.96 5 -6 5 C-6 3.68 -6 2.36 -6 1 C-4 0 -4 0 0 0 Z " fill="#230202" transform="translate(190,52)"/>
    <path d="M0 0 C2.97 0.495 2.97 0.495 6 1 C6 2.32 6 3.64 6 5 C4.02 5 2.04 5 0 5 C0 3.35 0 1.7 0 0 Z " fill="#C9CECE" transform="translate(189,46)"/>
    <path d="M0 0 C1.65 0 3.3 0 5 0 C5 1.98 5 3.96 5 6 C3.35 5.67 1.7 5.34 0 5 C0 3.35 0 1.7 0 0 Z " fill="#CCD4D4" transform="translate(59,189)"/>
    <path d="M0 0 C2.64 0.33 5.28 0.66 8 1 C8 2.32 8 3.64 8 5 C6.02 5 4.04 5 2 5 C2 3.68 2 2.36 2 1 C1.34 0.67 0.68 0.34 0 0 Z " fill="#350505" transform="translate(14,76)"/>
    <path d="M0 0 C1.65 0 3.3 0 5 0 C4.67 1.98 4.34 3.96 4 6 C2.68 6 1.36 6 0 6 C0 4.02 0 2.04 0 0 Z " fill="#1A0505" transform="translate(77,16)"/>
    <path d="M0 0 C1.65 0 3.3 0 5 0 C5 1.65 5 3.3 5 5 C3.35 5 1.7 5 0 5 C0 3.35 0 1.7 0 0 Z " fill="#CCD2D2" transform="translate(154,189)"/>
    <path d="M0 0 C1.65 0 3.3 0 5 0 C5 1.65 5 3.3 5 5 C3.35 5 1.7 5 0 5 C0 3.35 0 1.7 0 0 Z " fill="#9D9E9E" transform="translate(166,184)"/>
    <path d="M0 0 C0 2.31 0 4.62 0 7 C-1.32 7 -2.64 7 -4 7 C-4 5.02 -4 3.04 -4 1 C-1 0 -1 0 0 0 Z " fill="#0E0505" transform="translate(141,182)"/>
    <path d="M0 0 C1.32 0.33 2.64 0.66 4 1 C4 2.98 4 4.96 4 7 C2.68 7 1.36 7 0 7 C0 4.69 0 2.38 0 0 Z " fill="#0E0505" transform="translate(77,182)"/>
    <path d="M0 0 C1.65 0 3.3 0 5 0 C5 1.65 5 3.3 5 5 C3.35 5 1.7 5 0 5 C0 3.35 0 1.7 0 0 Z " fill="#080303" transform="translate(184,160)"/>
    <path d="M0 0 C1.65 0 3.3 0 5 0 C5 1.65 5 3.3 5 5 C3.35 5 1.7 5 0 5 C0 3.35 0 1.7 0 0 Z " fill="#9D9E9E" transform="translate(184,130)"/>
    <path d="M0 0 C1.65 0 3.3 0 5 0 C5 1.65 5 3.3 5 5 C3.35 5 1.7 5 0 5 C0 3.35 0 1.7 0 0 Z " fill="#9D9E9E" transform="translate(184,118)"/>
    <path d="M0 0 C1.65 0 3.3 0 5 0 C5 1.65 5 3.3 5 5 C3.35 5 1.7 5 0 5 C0 3.35 0 1.7 0 0 Z " fill="#9C9D9D" transform="translate(184,106)"/>
    <path d="M0 0 C1.65 0 3.3 0 5 0 C5 1.65 5 3.3 5 5 C3.35 5 1.7 5 0 5 C0 3.35 0 1.7 0 0 Z " fill="#CBD6D6" transform="translate(190,94)"/>
    <path d="M0 0 C1.65 0 3.3 0 5 0 C5 1.65 5 3.3 5 5 C3.35 5 1.7 5 0 5 C0 3.35 0 1.7 0 0 Z " fill="#9D9E9E" transform="translate(184,82)"/>
    <path d="M0 0 C1.65 0 3.3 0 5 0 C5 1.65 5 3.3 5 5 C3.35 5 1.7 5 0 5 C0 3.35 0 1.7 0 0 Z " fill="#CBD5D5" transform="translate(11,70)"/>
    <path d="M0 0 C1.65 0 3.3 0 5 0 C5 1.65 5 3.3 5 5 C3.35 5 1.7 5 0 5 C0 3.35 0 1.7 0 0 Z " fill="#090303" transform="translate(17,41)"/>
    <path d="M0 0 C1.65 0 3.3 0 5 0 C5 1.98 5 3.96 5 6 C3.68 6 2.36 6 1 6 C0.67 4.02 0.34 2.04 0 0 Z " fill="#190404" transform="translate(124,16)"/>
    <path d="M0 0 C1.65 0 3.3 0 5 0 C5 1.65 5 3.3 5 5 C3.35 5 1.7 5 0 5 C0 3.35 0 1.7 0 0 Z " fill="#CCD2D2" transform="translate(95,11)"/>
    <path d="M0 0 C1.65 0 3.3 0 5 0 C5 1.65 5 3.3 5 5 C3.35 5 1.7 5 0 5 C0 3.35 0 1.7 0 0 Z " fill="#CCD2D2" transform="translate(154,11)"/>
    <path d="M0 0 C1.65 0 3.3 0 5 0 C5 1.65 5 3.3 5 5 C3.35 5 1.7 5 0 5 C0 3.35 0 1.7 0 0 Z " fill="#CCD3D3" transform="translate(35,11)"/>
    <path d="M0 0 C1.65 0 3.3 0 5 0 C5 1.65 5 3.3 5 5 C3.35 5 1.7 5 0 5 C0 3.35 0 1.7 0 0 Z " fill="#CCD3D3" transform="translate(130,11)"/>
    <path d="M0 0 C1.65 0 3.3 0 5 0 C5 1.65 5 3.3 5 5 C3.35 5 1.7 5 0 5 C0 3.35 0 1.7 0 0 Z " fill="#CCD5D5" transform="translate(71,11)"/>
    <path d="M0 0 C1.32 0 2.64 0 4 0 C4 1.98 4 3.96 4 6 C2.68 6 1.36 6 0 6 C0 4.02 0 2.04 0 0 Z " fill="#CBD3D3" transform="translate(107,189)"/>
    <path d="M0 0 C1.65 0 3.3 0 5 0 C5 1.65 5 3.3 5 5 C3.35 5 1.7 5 0 5 C0 3.35 0 1.7 0 0 Z " fill="#CCD0D0" transform="translate(119,189)"/>
    <path d="M0 0 C1.32 0 2.64 0 4 0 C4 1.98 4 3.96 4 6 C2.68 6 1.36 6 0 6 C0 4.02 0 2.04 0 0 Z " fill="#9B9C9C" transform="translate(107,183)"/>
    <path d="M0 0 C1.32 0 2.64 0 4 0 C4 1.98 4 3.96 4 6 C2.68 6 1.36 6 0 6 C0 4.02 0 2.04 0 0 Z " fill="#0E0303" transform="translate(125,183)"/>
    <path d="M0 0 C1.98 0 3.96 0 6 0 C6 1.32 6 2.64 6 4 C4.02 4 2.04 4 0 4 C0 2.68 0 1.36 0 0 Z " fill="#CBD3D3" transform="translate(11,154)"/>
    <path d="M0 0 C1.98 0 3.96 0 6 0 C6 1.32 6 2.64 6 4 C4.02 4 2.04 4 0 4 C0 2.68 0 1.36 0 0 Z " fill="#1E0202" transform="translate(184,136)"/>
    <path d="M0 0 C1.98 0 3.96 0 6 0 C6 1.32 6 2.64 6 4 C4.02 4 2.04 4 0 4 C0 2.68 0 1.36 0 0 Z " fill="#CAD0D0" transform="translate(11,131)"/>
    <path d="M0 0 C1.98 0 3.96 0 6 0 C6 1.32 6 2.64 6 4 C4.02 4 2.04 4 0 4 C0 2.68 0 1.36 0 0 Z " fill="#1E0202" transform="translate(184,65)"/>
    <path d="M0 0 C1.65 0 3.3 0 5 0 C5 1.65 5 3.3 5 5 C3.35 4.67 1.7 4.34 0 4 C0 2.68 0 1.36 0 0 Z " fill="#050303" transform="translate(148,17)"/>
    <path d="M0 0 C1.65 0 3.3 0 5 0 C5 1.65 5 3.3 5 5 C3.35 4.67 1.7 4.34 0 4 C0 2.68 0 1.36 0 0 Z " fill="#050303" transform="translate(112,17)"/>
    <path d="M0 0 C0 3 0 3 -1 5 C-0.01 5.33 0.98 5.66 2 6 C-0.64 6 -3.28 6 -6 6 C-6 5.34 -6 4.68 -6 4 C-4.03852126 2.61061923 -2.03833424 1.2739589 0 0 Z " fill="#3C3C3C" transform="translate(88,110)"/>
    <path d="M0 0 C1.98 0 3.96 0 6 0 C6 1.32 6 2.64 6 4 C4.02 4 2.04 4 0 4 C0 2.68 0 1.36 0 0 Z " fill="#1C0101" transform="translate(16,65)"/>
    <path d="M0 0 C4.62 0 9.24 0 14 0 C12.515 1.485 12.515 1.485 11 3 C8.30078125 2.85546875 8.30078125 2.85546875 5.3125 2.1875 C4.31863281 1.97480469 3.32476562 1.76210937 2.30078125 1.54296875 C1.54152344 1.36378906 0.78226562 1.18460937 0 1 C0 0.67 0 0.34 0 0 Z " fill="#474747" transform="translate(68,102)"/>
    <path d="M0 0 C2.475 0.495 2.475 0.495 5 1 C5 2.65 5 4.3 5 6 C3.35 6 1.7 6 0 6 C0.99 5.34 1.98 4.68 3 4 C3 3.34 3 2.68 3 2 C2.34 2 1.68 2 1 2 C0.67 2.66 0.34 3.32 0 4 C0 2.68 0 1.36 0 0 Z " fill="#9B9C9C" transform="translate(119,183)"/>
    <path d="M0 0 C1.32 0 2.64 0 4 0 C4.33 1.65 4.66 3.3 5 5 C3.35 5 1.7 5 0 5 C0 3.35 0 1.7 0 0 Z " fill="#030404" transform="translate(113,183)"/>
    <path d="M0 0 C1.65 0 3.3 0 5 0 C5 1.32 5 2.64 5 4 C3.68 4.33 2.36 4.66 1 5 C0.67 3.35 0.34 1.7 0 0 Z " fill="#CBD6D6" transform="translate(190,35)"/>
    <path d="M0 0 C1.65 0 3.3 0 5 0 C5 1.32 5 2.64 5 4 C3.35 4 1.7 4 0 4 C0 2.68 0 1.36 0 0 Z " fill="#CBD7D7" transform="translate(190,166)"/>
    <path d="M0 0 C1.65 0 3.3 0 5 0 C5 1.32 5 2.64 5 4 C3.35 4 1.7 4 0 4 C0 2.68 0 1.36 0 0 Z " fill="#090202" transform="translate(17,136)"/>
    <path d="M0 0 C1.65 0 3.3 0 5 0 C5 1.32 5 2.64 5 4 C3.35 4 1.7 4 0 4 C0 2.68 0 1.36 0 0 Z " fill="#060202" transform="translate(184,77)"/>
    <path d="M0 0 C1.65 0 3.3 0 5 0 C5 1.32 5 2.64 5 4 C3.35 4 1.7 4 0 4 C0 2.68 0 1.36 0 0 Z " fill="#070000" transform="translate(17,53)"/>
    <path d="M0 0 C1.65 0 3.3 0 5 0 C5 1.32 5 2.64 5 4 C3.35 4 1.7 4 0 4 C0 2.68 0 1.36 0 0 Z " fill="#9E9E9E" transform="translate(184,47)"/>
    <path d="M0 0 C1.65 0 3.3 0 5 0 C5 1.32 5 2.64 5 4 C3.35 4 1.7 4 0 4 C0 2.68 0 1.36 0 0 Z " fill="#050101" transform="translate(184,41)"/>
    <path d="M0 0 C1.32 0 2.64 0 4 0 C4 1.65 4 3.3 4 5 C2.68 5 1.36 5 0 5 C0 3.35 0 1.7 0 0 Z " fill="#CBD7D7" transform="translate(107,11)"/>
    <path d="M0 0 C1.67542976 0.28604898 3.34385343 0.61781233 5 1 C4.67 2.32 4.34 3.64 4 5 C3.01 4.01 2.02 3.02 1 2 C0.67 2.99 0.34 3.98 0 5 C-0.5625 3.0625 -0.5625 3.0625 -1 1 C-0.67 0.67 -0.34 0.34 0 0 Z " fill="#595959" transform="translate(107,177)"/>
    <path d="M0 0 C1.65 0 3.3 0 5 0 C5 1.65 5 3.3 5 5 C3.35 5 1.7 5 0 5 C0 4.34 0 3.68 0 3 C0.66 2.67 1.32 2.34 2 2 C1.34 1.34 0.68 0.68 0 0 Z " fill="#CBD4D4" transform="translate(12,106)"/>
    <path d="M0 0 C4.8 3.44615385 4.8 3.44615385 5.8125 6.25 C5.874375 6.8275 5.93625 7.405 6 8 C2.57701423 6.85900474 1.85241234 5.99914379 0 3 C0 2.01 0 1.02 0 0 Z " fill="#414141" transform="translate(97,67)"/>
    <path d="M0 0 C2.475 0.495 2.475 0.495 5 1 C4.01 1.495 4.01 1.495 3 2 C2.67 2.99 2.34 3.98 2 5 C1.34 5 0.68 5 0 5 C0 3.35 0 1.7 0 0 Z " fill="#CCD4D4" transform="translate(95,189)"/>
    <path d="M0 0 C2.31 0 4.62 0 7 0 C7 2.31 7 4.62 7 7 C6.6596875 6.071875 6.6596875 6.071875 6.3125 5.125 C4.62070165 2.38589791 3.00755839 1.94975528 0 1 C0 0.67 0 0.34 0 0 Z " fill="#252525" transform="translate(132,47)"/>
    <path d="M0 0 C0.78375 0.04125 1.5675 0.0825 2.375 0.125 C0.5625 2.125 0.5625 2.125 -1.625 4.125 C-2.615 4.125 -3.605 4.125 -4.625 4.125 C-4.955 4.785 -5.285 5.445 -5.625 6.125 C-4.86443086 2.32215429 -4.27658992 0.20364714 0 0 Z " fill="#DEDEDE" transform="translate(101.625,41.875)"/>
    <path d="M0 0 C1.98 0.99 1.98 0.99 4 2 C3.01 2 2.02 2 1 2 C0.67 1.34 0.34 0.68 0 0 Z " fill="#D67071" transform="translate(192,0)"/>
    <path d="M0 0 C0.99 0.33 1.98 0.66 3 1 C2.67 1.66 2.34 2.32 2 3 C1.34 2.01 0.68 1.02 0 0 Z " fill="#D77071" transform="translate(204,10)"/>
    <path d="M0 0 C0.99 0.33 1.98 0.66 3 1 C2.01 1 1.02 1 0 1 C0 0.67 0 0.34 0 0 Z " fill="#D17E7F" transform="translate(198,5)"/>
    <path d="" fill="#D36F70" transform="translate(0,0)"/>
    <path d="" fill="#C88788" transform="translate(0,0)"/>
    <path d="" fill="#CD9192" transform="translate(0,0)"/>
    <path d="" fill="#D66A6B" transform="translate(0,0)"/>
    <path d="" fill="#CB8284" transform="translate(0,0)"/>
    <path d="" fill="#828282" transform="translate(0,0)"/>
</svg>
