<?xml version="1.0" encoding="UTF-8"?>
<svg version="1.1" xmlns="http://www.w3.org/2000/svg" width="740" height="400">
<path d="M0 0 C0.89169638 -0.00507454 1.78339275 -0.01014909 2.70211023 -0.0153774 C3.67767407 -0.01587516 4.65323791 -0.01637292 5.6583643 -0.01688576 C6.69799904 -0.02126801 7.73763379 -0.02565027 8.80877262 -0.03016531 C12.30380944 -0.04355447 15.79882104 -0.04973252 19.2938776 -0.0558567 C21.79551145 -0.06375771 24.29714416 -0.07202666 26.79877567 -0.08063698 C34.31521603 -0.10459709 41.83165222 -0.11978703 49.34811768 -0.13269705 C51.47268654 -0.13641091 53.59725476 -0.140384 55.72182298 -0.14444971 C68.92647796 -0.16969242 82.13113402 -0.19173685 95.3358078 -0.20417786 C98.39344569 -0.20710737 101.45108354 -0.21006906 104.50872135 -0.21308327 C105.26864669 -0.21382932 106.02857203 -0.21457537 106.81152541 -0.21534403 C119.10835952 -0.22798434 131.40504861 -0.26119031 143.701815 -0.3028851 C156.33893403 -0.345381 168.97597899 -0.36888186 181.61316925 -0.37409842 C188.70344149 -0.3775043 195.79348725 -0.38916138 202.88368893 -0.42220116 C209.55927829 -0.45325846 216.23440534 -0.45857576 222.910079 -0.4468174 C225.35411136 -0.44659706 227.79816225 -0.45486858 230.24213123 -0.47247124 C248.42789743 -0.5962744 261.45282456 0.81771177 275.23357487 13.63701439 C275.99669987 14.46201439 276.75982487 15.28701439 277.54607487 16.13701439 C278.75263737 17.40545189 278.75263737 17.40545189 279.98357487 18.69951439 C285.43247933 25.3246903 289.65687544 33.94049955 289.68308926 42.59093952 C289.69070107 43.92848409 289.69070107 43.92848409 289.69846666 45.29304975 C289.69896442 46.26861359 289.69946217 47.24417744 289.69997501 48.24930382 C289.70435727 49.28893857 289.70873952 50.32857331 289.71325457 51.39971215 C289.72664372 54.89474896 289.73282178 58.38976056 289.73894596 61.88481712 C289.74684697 64.38645097 289.75511592 66.88808369 289.76372623 69.38971519 C289.78768635 76.90615555 289.80287629 84.42259175 289.8157863 91.9390572 C289.81950016 94.06362607 289.82347325 96.18819428 289.82753897 98.3127625 C289.85278168 111.51741748 289.87482611 124.72207354 289.88726711 137.92674732 C289.89019663 140.98438521 289.89315831 144.04202307 289.89617252 147.09966087 C289.89691857 147.85958621 289.89766462 148.61951155 289.89843328 149.40246493 C289.9110736 161.69929905 289.94427957 173.99598813 289.98597436 186.29275452 C290.02847025 198.92987355 290.05197111 211.56691851 290.05718768 224.20410877 C290.06059355 231.29438101 290.07225064 238.38442678 290.10529041 245.47462845 C290.13634772 252.15021781 290.14166502 258.82534486 290.12990665 265.50101852 C290.12968632 267.94505088 290.13795783 270.38910178 290.15556049 272.83307076 C290.27936365 291.01883695 288.86537748 304.04376408 276.04607487 317.82451439 C275.22107487 318.58763939 274.39607487 319.35076439 273.54607487 320.13701439 C272.70044987 320.94138939 271.85482487 321.74576439 270.98357487 322.57451439 C264.35839896 328.02341886 255.74258971 332.24781496 247.09214973 332.27402878 C246.20045336 332.27910332 245.30875698 332.28417786 244.3900395 332.28940618 C243.41447566 332.28990394 242.43891182 332.29040169 241.43378544 332.29091454 C240.39415069 332.29529679 239.35451594 332.29967904 238.28337711 332.30419409 C234.7883403 332.31758325 231.2933287 332.3237613 227.79827213 332.32988548 C225.29663828 332.33778649 222.79500557 332.34605544 220.29337406 332.35466576 C212.7769337 332.37862587 205.26049751 332.39381581 197.74403206 332.40672582 C195.61946319 332.41043968 193.49489498 332.41441277 191.37032676 332.41847849 C178.16567178 332.4437212 164.96101571 332.46576563 151.75634193 332.47820663 C148.69870404 332.48113615 145.64106619 332.48409783 142.58342838 332.48711205 C141.82350304 332.4878581 141.0635777 332.48860415 140.28062432 332.4893728 C127.98379021 332.50201312 115.68710113 332.53521909 103.39033473 332.57691388 C90.7532157 332.61940977 78.11617075 332.64291063 65.47898048 332.6481272 C58.38870825 332.65153308 51.29866248 332.66319016 44.20846081 332.69622993 C37.53287144 332.72728724 30.85774439 332.73260454 24.18207073 332.72084618 C21.73803837 332.72062584 19.29398748 332.72889736 16.8500185 332.74650002 C-1.3357477 332.87030317 -14.36067482 331.456317 -28.14142513 318.63701439 C-28.90455013 317.81201439 -29.66767513 316.98701439 -30.45392513 316.13701439 C-31.25830013 315.29138939 -32.06267513 314.44576439 -32.89142513 313.57451439 C-38.3403296 306.94933848 -42.5647257 298.33352923 -42.59093952 289.68308926 C-42.59601406 288.79139288 -42.60108861 287.8996965 -42.60631692 286.98097903 C-42.60681468 286.00541518 -42.60731244 285.02985134 -42.60782528 284.02472496 C-42.61220753 282.98509021 -42.61658979 281.94545546 -42.62110484 280.87431663 C-42.63449399 277.37927982 -42.64067205 273.88426822 -42.64679623 270.38921165 C-42.65469724 267.8875778 -42.66296619 265.38594509 -42.6715765 262.88431358 C-42.69553662 255.36787322 -42.71072655 247.85143703 -42.72363657 240.33497158 C-42.72735043 238.21040271 -42.73132352 236.0858345 -42.73538923 233.96126628 C-42.76063194 220.7566113 -42.78267637 207.55195524 -42.79511738 194.34728146 C-42.79804689 191.28964357 -42.80100858 188.23200571 -42.80402279 185.1743679 C-42.80476884 184.41444256 -42.80551489 183.65451722 -42.80628355 182.87156384 C-42.81892387 170.57472973 -42.85212984 158.27804065 -42.89382462 145.98127425 C-42.93632052 133.34415523 -42.95982138 120.70711027 -42.96503794 108.06992 C-42.96844382 100.97964777 -42.9801009 93.889602 -43.01314068 86.79940033 C-43.04419798 80.12381097 -43.04951528 73.44868391 -43.03775692 66.77301025 C-43.03753659 64.32897789 -43.0458081 61.884927 -43.06341076 59.44095802 C-43.18721392 41.25519182 -41.77322775 28.2302647 -28.95392513 14.44951439 C-28.12892513 13.68638939 -27.30392513 12.92326439 -26.45392513 12.13701439 C-25.60830013 11.33263939 -24.76267513 10.52826439 -23.89142513 9.69951439 C-17.26624923 4.25060992 -8.65043997 0.02621382 0 0 Z M48.0841608 84.81670189 C37.34458451 97.8168615 25.9300587 116.81155969 26.54607487 134.13701439 C25.45294987 134.21951439 24.35982487 134.30201439 23.23357487 134.38701439 C9.41865682 136.16565463 -3.17468813 143.97980716 -12.45392513 154.13701439 C-17.39335443 160.90461956 -21.51586736 167.93630713 -23.45392513 176.13701439 C-23.63439388 176.84857689 -23.81486263 177.56013939 -24.00080013 178.29326439 C-26.81130764 195.93162183 -23.31612451 212.22565953 -13.45392513 227.13701439 C-10.07937531 231.41470335 -6.27907391 235.26605544 -2.45392513 239.13701439 C-1.88158138 239.78154564 -1.30923763 240.42607689 -0.71955013 241.09013939 C15.07412138 258.51202446 41.62118409 267.78480458 63.54607487 274.13701439 C64.78297062 274.50258446 64.78297062 274.50258446 66.04485416 274.87553978 C106.25090236 286.37076002 154.14676992 284.49499792 193.54607487 271.13701439 C194.26537174 270.89724876 194.98466862 270.65748314 195.72576237 270.41045189 C215.61171212 263.68323468 234.41974738 253.84096624 249.54607487 239.13701439 C250.25377018 238.49119408 250.96146549 237.84537376 251.69060612 237.17998314 C262.63612722 226.90416887 271.24648205 211.58765319 271.84685612 196.36748314 C271.86616334 194.6865999 271.86965281 193.00547201 271.85857487 191.32451439 C271.85366032 190.44231224 271.84874577 189.56011009 271.84368229 188.65117455 C271.56507013 173.13747799 265.37477344 160.47243739 254.77654362 149.26592064 C245.77115934 140.75346266 233.10918837 134.13701439 220.54607487 134.13701439 C220.54349674 133.60076439 220.54091862 133.06451439 220.53826237 132.51201439 C219.48279109 111.12112975 205.32178007 90.17941948 190.23357487 75.82451439 C148.53015389 39.79181355 84.76042027 42.67697826 48.0841608 84.81670189 Z " fill="#00587F" transform="translate(246.45392513275146,33.862985610961914)"/>
<path d="M0 0 C0.7354303 -0.00700928 1.4708606 -0.01401855 2.22857666 -0.02124023 C4.65537467 -0.03882069 7.08100299 -0.02719827 9.5078125 -0.01367188 C11.1964541 -0.0163668 12.88509418 -0.02024922 14.57373047 -0.02526855 C18.11115304 -0.03116364 21.64817133 -0.02260061 25.18554688 -0.00390625 C29.71870095 0.01888364 34.25090777 0.00576057 38.7840271 -0.01819611 C42.27049897 -0.03265401 45.75674645 -0.0280482 49.2432251 -0.01768494 C50.91457227 -0.01501761 52.58593985 -0.01828764 54.25726318 -0.02760315 C56.59393225 -0.03776907 58.92906994 -0.02226936 61.265625 0 C61.95561584 -0.00809692 62.64560669 -0.01619385 63.35650635 -0.02453613 C66.4918242 0.0307901 68.41072485 0.37380342 71.06091309 2.08947754 C73.16168627 5.33452526 73.19432925 8.14047324 73.15039062 11.88476562 C73.1573999 12.62019592 73.16440918 13.35562622 73.17163086 14.11334229 C73.18921131 16.5401403 73.17758889 18.96576862 73.1640625 21.39257812 C73.16675742 23.08121972 73.17063985 24.76985981 73.17565918 26.45849609 C73.18155426 29.99591866 73.17299123 33.53293696 73.15429688 37.0703125 C73.13150698 41.60346658 73.14463006 46.1356734 73.16858673 50.66879272 C73.18304464 54.15526459 73.17843883 57.64151208 73.16807556 61.12799072 C73.16540824 62.79933789 73.16867826 64.47070547 73.17799377 66.14202881 C73.18815969 68.47869787 73.17265999 70.81383557 73.15039062 73.15039062 C73.15848755 73.84038147 73.16658447 74.53037231 73.17492676 75.24127197 C73.11960053 78.37658982 72.77658721 80.29549047 71.06091309 82.94567871 C67.81586537 85.0464519 65.00991739 85.07909488 61.265625 85.03515625 C60.5301947 85.04216553 59.7947644 85.0491748 59.03704834 85.05639648 C56.61025033 85.07397694 54.18462201 85.06235452 51.7578125 85.04882812 C50.0691709 85.05152305 48.38053082 85.05540547 46.69189453 85.0604248 C43.15447196 85.06631989 39.61745367 85.05775686 36.08007812 85.0390625 C31.54692405 85.01627261 27.01471723 85.02939568 22.4815979 85.05335236 C18.99512603 85.06781026 15.50887855 85.06320445 12.0223999 85.05284119 C10.35105273 85.05017386 8.67968515 85.05344389 7.00836182 85.0627594 C4.67169275 85.07292532 2.33655506 85.05742561 0 85.03515625 C-1.03498627 85.04730164 -1.03498627 85.04730164 -2.09088135 85.05969238 C-5.2261992 85.00436615 -7.14509985 84.66135283 -9.79528809 82.94567871 C-11.89606127 79.70063099 -11.92870425 76.89468301 -11.88476562 73.15039062 C-11.8917749 72.41496033 -11.89878418 71.67953003 -11.90600586 70.92181396 C-11.92358631 68.49501595 -11.91196389 66.06938763 -11.8984375 63.64257812 C-11.90113242 61.95393653 -11.90501485 60.26529644 -11.91003418 58.57666016 C-11.91592926 55.03923759 -11.90736623 51.50221929 -11.88867188 47.96484375 C-11.86588198 43.43168967 -11.87900506 38.89948285 -11.90296173 34.36636353 C-11.91741964 30.87989166 -11.91281383 27.39364417 -11.90245056 23.90716553 C-11.89978324 22.23581836 -11.90305326 20.56445078 -11.91236877 18.89312744 C-11.92253469 16.55645838 -11.90703499 14.22132068 -11.88476562 11.88476562 C-11.89286255 11.19477478 -11.90095947 10.50478394 -11.90930176 9.79388428 C-11.85397553 6.65856643 -11.51096221 4.73966578 -9.79528809 2.08947754 C-6.55024037 -0.01129565 -3.74429239 -0.04393863 0 0 Z M36.6328125 25.51757812 C35.46696059 28.92852727 35.46696059 28.92852727 35.6328125 32.51757812 C36.58580027 33.8849084 37.58655841 35.22022306 38.6328125 36.51757812 C38.69536011 38.51659983 38.70061611 40.51872779 38.6328125 42.51757812 C38.19001953 42.03289062 37.74722656 41.54820312 37.29101562 41.04882812 C35.2598184 38.85065423 33.19726952 36.68452592 31.1328125 34.51757812 C30.08867187 33.37289062 30.08867187 33.37289062 29.0234375 32.20507812 C25.26680023 28.13277949 25.26680023 28.13277949 20.31640625 26.01757812 C17.88282682 25.96491298 17.88282682 25.96491298 14.6328125 26.51757812 C14.61822998 27.15783936 14.60364746 27.79810059 14.58862305 28.45776367 C14.51389868 31.37412644 14.41731957 34.28937499 14.3203125 37.20507812 C14.29775391 38.21248047 14.27519531 39.21988281 14.25195312 40.2578125 C14.05975624 45.55196318 13.85529742 49.12013892 10.6328125 53.51757812 C10.46170801 56.65797753 10.46170801 56.65797753 11.6328125 59.51757812 C14.46701354 62.02787047 15.96796915 62.53087499 19.7578125 62.45507812 C22.6473445 61.71079361 22.6473445 61.71079361 24.5703125 59.89257812 C26.10143301 56.47007346 25.4954429 54.1008121 24.6328125 50.51757812 C23.9728125 49.85757813 23.3128125 49.19757813 22.6328125 48.51757812 C22.23233806 46.19482636 21.8931021 43.86018455 21.6328125 41.51757812 C22.2928125 41.51757812 22.9528125 41.51757812 23.6328125 41.51757812 C24.04249268 42.40751465 24.04249268 42.40751465 24.46044922 43.31542969 C26.32878216 46.8248764 29.01022968 49.42632771 31.7578125 52.26757812 C32.30179687 52.86957031 32.84578125 53.4715625 33.40625 54.09179688 C36.60235857 57.41269084 36.60235857 57.41269084 40.84667969 58.90625 C43.29398993 58.94889628 43.29398993 58.94889628 46.6328125 58.51757812 C46.64739502 57.87731689 46.66197754 57.23705566 46.67700195 56.57739258 C46.75172632 53.66102981 46.84830543 50.74578126 46.9453125 47.83007812 C46.96787109 46.82267578 46.99042969 45.81527344 47.01367188 44.77734375 C47.20586876 39.48319307 47.41032758 35.91501733 50.6328125 31.51757812 C50.80391699 28.37717872 50.80391699 28.37717872 49.6328125 25.51757812 C44.85913758 21.7488874 41.37776291 21.64669753 36.6328125 25.51757812 Z " fill="#00587F" transform="translate(339.3671875,157.482421875)"/>
<path d="M0 0 C2.6953125 1.7734375 2.6953125 1.7734375 5 5 C5.71940079 9.01269993 5.65225602 12.93429478 5.5625 17 C5.57345703 18.08023437 5.58441406 19.16046875 5.59570312 20.2734375 C5.52298224 28.12729345 5.52298224 28.12729345 3.08984375 32.1875 C0.57800418 34.36599263 -0.49447186 34.94383021 -3.8125 35.3125 C-7.7307645 34.92835642 -9.21293267 33.70743683 -12 31 C-13.98683397 27.02633205 -13.27256128 22.05679562 -13.3125 17.6875 C-13.34150391 16.64142578 -13.37050781 15.59535156 -13.40039062 14.51757812 C-13.46444683 6.77663172 -13.46444683 6.77663172 -11.10546875 2.83203125 C-7.42947818 -0.36655795 -4.84685771 -0.49290078 0 0 Z " fill="#00587F" transform="translate(349,249)"/>
<path d="M0 0 C2.75329021 1.79562405 4.52627461 3.05254922 6 6 C6.29495558 9.76444689 6.2779968 13.53784947 6.3125 17.3125 C6.34150391 18.35857422 6.37050781 19.40464844 6.40039062 20.48242188 C6.46444683 28.22336828 6.46444683 28.22336828 4.10546875 32.16796875 C1.58486688 34.36121973 0.51987219 34.94223642 -2.8125 35.3125 C-6.7307645 34.92835642 -8.21293267 33.70743683 -11 31 C-13.04905049 26.90189901 -12.31721725 21.69192814 -12.375 17.1875 C-12.43107422 15.5468457 -12.43107422 15.5468457 -12.48828125 13.87304688 C-12.57675212 5.80745296 -12.57675212 5.80745296 -9.6953125 1.7734375 C-6.1406877 -0.56540259 -4.18041039 -0.67185167 0 0 Z " fill="#00587F" transform="translate(398,249)"/>
<path d="M0 0 C1.6406543 -0.05607422 1.6406543 -0.05607422 3.31445312 -0.11328125 C11.38004704 -0.20175212 11.38004704 -0.20175212 15.4140625 2.6796875 C17.75290259 6.2343123 17.85935167 8.19458961 17.1875 12.375 C15.39187595 15.12829021 14.13495078 16.90127461 11.1875 18.375 C7.42305311 18.66995558 3.64965053 18.6529968 -0.125 18.6875 C-1.69411133 18.73100586 -1.69411133 18.73100586 -3.29492188 18.77539062 C-11.03586828 18.83944683 -11.03586828 18.83944683 -14.98046875 16.48046875 C-17.17371973 13.95986688 -17.75473642 12.89487219 -18.125 9.5625 C-17.74085642 5.6442355 -16.51993683 4.16206733 -13.8125 1.375 C-9.71439901 -0.67405049 -4.50442814 0.05778275 0 0 Z " fill="#00587F" transform="translate(303.8125,215.625)"/>
<path d="M0 0 C1.56911133 -0.04350586 1.56911133 -0.04350586 3.16992188 -0.08789062 C10.91086828 -0.15194683 10.91086828 -0.15194683 14.85546875 2.20703125 C17.23334026 4.93980896 17.64807627 5.96425702 18.0625 9.625 C17.6875 13.3125 17.6875 13.3125 15.9140625 16.0078125 C11.03449664 19.49321669 6.53464396 19.00408373 0.6875 18.875 C-0.39273437 18.88595703 -1.47296875 18.89691406 -2.5859375 18.90820312 C-10.43979345 18.83548224 -10.43979345 18.83548224 -14.5 16.40234375 C-16.67849263 13.89050418 -17.25633021 12.81802814 -17.625 9.5 C-17.24085642 5.5817355 -16.01993683 4.09956733 -13.3125 1.3125 C-9.33883205 -0.67433397 -4.36929562 0.03993872 0 0 Z " fill="#00587F" transform="translate(303.3125,165.6875)"/>
<path d="M0 0 C1.08023437 -0.00644531 2.16046875 -0.01289063 3.2734375 -0.01953125 C11.10374261 0.08680623 11.10374261 0.08680623 15.1875 2.5390625 C17.36786587 5.04836287 17.94389073 6.12001655 18.3125 9.4375 C17.92835642 13.3557645 16.70743683 14.83793267 14 17.625 C10.02633205 19.61183397 5.05679562 18.89756128 0.6875 18.9375 C-0.88161133 18.98100586 -0.88161133 18.98100586 -2.48242188 19.02539062 C-10.22336828 19.08944683 -10.22336828 19.08944683 -14.16796875 16.73046875 C-16.32160077 14.25539912 -16.93099775 13.13101651 -17.375 9.875 C-16.97822879 6.43631621 -16.1349682 4.49727405 -13.85009766 1.890625 C-9.81070127 -0.87266754 -4.70232791 -0.14028425 0 0 Z " fill="#00587F" transform="translate(436,215.375)"/>
<path d="M0 0 C1.56911133 -0.04350586 1.56911133 -0.04350586 3.16992188 -0.08789062 C10.91086828 -0.15194683 10.91086828 -0.15194683 14.85546875 2.20703125 C17.04871973 4.72763312 17.62973642 5.79262781 18 9.125 C17.61585642 13.0432645 16.39493683 14.52543267 13.6875 17.3125 C9.58193141 19.36528429 4.38774945 18.67369112 -0.125 18.75 C-1.7656543 18.81864258 -1.7656543 18.81864258 -3.43945312 18.88867188 C-11.30034498 18.99884891 -11.30034498 18.99884891 -14.16918945 17.0534668 C-16.33076237 14.56521167 -17.28144001 12.48160437 -17.875 9.25 C-17.18270639 5.63468892 -15.85658967 3.93141584 -13.3125 1.3125 C-9.33883205 -0.67433397 -4.36929562 0.03993872 0 0 Z " fill="#00587F" transform="translate(436.3125,165.6875)"/>
<path d="M0 0 C2.69990662 1.79993774 4.5418865 3.083773 6 6 C6.29495558 9.76444689 6.2779968 13.53784947 6.3125 17.3125 C6.34150391 18.35857422 6.37050781 19.40464844 6.40039062 20.48242188 C6.46444683 28.22336828 6.46444683 28.22336828 4.10546875 32.16796875 C1.63039912 34.32160077 0.50601651 34.93099775 -2.75 35.375 C-6.18868379 34.97822879 -8.12772595 34.1349682 -10.734375 31.85009766 C-13.49766754 27.81070127 -12.76528425 22.70232791 -12.625 18 C-12.63144531 16.91976562 -12.63789063 15.83953125 -12.64453125 14.7265625 C-12.53819377 6.89625739 -12.53819377 6.89625739 -10.0859375 2.8125 C-6.67881576 -0.1479953 -4.49063563 -0.4402584 0 0 Z " fill="#00587F" transform="translate(398,116)"/>
<path d="M0 0 C2.69990662 1.79993774 4.5418865 3.083773 6 6 C6.34897296 9.9301294 6.37081536 13.86890811 6.4375 17.8125 C6.48326172 18.90626953 6.52902344 20.00003906 6.57617188 21.12695312 C6.68634891 28.98784498 6.68634891 28.98784498 4.7409668 31.85668945 C2.25271167 34.01826237 0.16910437 34.96894001 -3.0625 35.5625 C-6.67781108 34.87020639 -8.38108416 33.54408967 -11 31 C-12.98683397 27.02633205 -12.27256128 22.05679562 -12.3125 17.6875 C-12.34150391 16.64142578 -12.37050781 15.59535156 -12.40039062 14.51757812 C-12.46444683 6.77663172 -12.46444683 6.77663172 -10.10546875 2.83203125 C-6.68782922 -0.14175899 -4.50830239 -0.44199043 0 0 Z " fill="#00587F" transform="translate(348,116)"/>
<path d="M0 0 C2.69990662 1.79993774 4.5418865 3.083773 6 6 C6.29495558 9.76444689 6.2779968 13.53784947 6.3125 17.3125 C6.34150391 18.35857422 6.37050781 19.40464844 6.40039062 20.48242188 C6.46444683 28.22336828 6.46444683 28.22336828 4.10546875 32.16796875 C1.58486688 34.36121973 0.51987219 34.94223642 -2.8125 35.3125 C-6.7307645 34.92835642 -8.21293267 33.70743683 -11 31 C-12.98683397 27.02633205 -12.27256128 22.05679562 -12.3125 17.6875 C-12.34150391 16.64142578 -12.37050781 15.59535156 -12.40039062 14.51757812 C-12.46444683 6.77663172 -12.46444683 6.77663172 -10.10546875 2.83203125 C-6.68782922 -0.14175899 -4.50830239 -0.44199043 0 0 Z " fill="#00587F" transform="translate(373,249)"/>
<path d="M0 0 C1.56911133 -0.04350586 1.56911133 -0.04350586 3.16992188 -0.08789062 C10.91086828 -0.15194683 10.91086828 -0.15194683 14.85546875 2.20703125 C17.04871973 4.72763312 17.62973642 5.79262781 18 9.125 C17.61585642 13.0432645 16.39493683 14.52543267 13.6875 17.3125 C9.71383205 19.29933397 4.74429562 18.58506128 0.375 18.625 C-1.19411133 18.66850586 -1.19411133 18.66850586 -2.79492188 18.71289062 C-10.53586828 18.77694683 -10.53586828 18.77694683 -14.48046875 16.41796875 C-16.67371973 13.89736688 -17.25473642 12.83237219 -17.625 9.5 C-17.24085642 5.5817355 -16.01993683 4.09956733 -13.3125 1.3125 C-9.33883205 -0.67433397 -4.36929562 0.03993872 0 0 Z " fill="#00587F" transform="translate(436.3125,190.6875)"/>
<path d="M0 0 C1.56911133 -0.04350586 1.56911133 -0.04350586 3.16992188 -0.08789062 C10.91086828 -0.15194683 10.91086828 -0.15194683 14.85546875 2.20703125 C17.04871973 4.72763312 17.62973642 5.79262781 18 9.125 C17.61585642 13.0432645 16.39493683 14.52543267 13.6875 17.3125 C9.71383205 19.29933397 4.74429562 18.58506128 0.375 18.625 C-1.19411133 18.66850586 -1.19411133 18.66850586 -2.79492188 18.71289062 C-10.53586828 18.77694683 -10.53586828 18.77694683 -14.48046875 16.41796875 C-16.67371973 13.89736688 -17.25473642 12.83237219 -17.625 9.5 C-17.24085642 5.5817355 -16.01993683 4.09956733 -13.3125 1.3125 C-9.33883205 -0.67433397 -4.36929562 0.03993872 0 0 Z " fill="#00587F" transform="translate(303.3125,190.6875)"/>
<path d="M0 0 C2.69990662 1.79993774 4.5418865 3.083773 6 6 C6.29495558 9.76444689 6.2779968 13.53784947 6.3125 17.3125 C6.34150391 18.35857422 6.37050781 19.40464844 6.40039062 20.48242188 C6.46444683 28.22336828 6.46444683 28.22336828 4.10546875 32.16796875 C1.58486688 34.36121973 0.51987219 34.94223642 -2.8125 35.3125 C-6.7307645 34.92835642 -8.21293267 33.70743683 -11 31 C-12.98683397 27.02633205 -12.27256128 22.05679562 -12.3125 17.6875 C-12.34150391 16.64142578 -12.37050781 15.59535156 -12.40039062 14.51757812 C-12.46444683 6.77663172 -12.46444683 6.77663172 -10.10546875 2.83203125 C-6.68782922 -0.14175899 -4.50830239 -0.44199043 0 0 Z " fill="#00587F" transform="translate(373,116)"/>
<path d="M0 0 C25.08 0 50.16 0 76 0 C76 0.33 76 0.66 76 1 C50.92 1 25.84 1 0 1 C0 0.67 0 0.34 0 0 Z " fill="#004180" transform="translate(332,243)"/>
<path d="M0 0 C0.33 0 0.66 0 1 0 C1 25.08 1 50.16 1 76 C0.67 76 0.34 76 0 76 C0 50.92 0 25.84 0 0 Z " fill="#004280" transform="translate(326,162)"/>
<path d="M0 0 C0.33 0 0.66 0 1 0 C1 25.08 1 50.16 1 76 C0.67 76 0.34 76 0 76 C0 50.92 0 25.84 0 0 Z " fill="#004281" transform="translate(413,162)"/>
<path d="M0 0 C25.08 0 50.16 0 76 0 C76 0.33 76 0.66 76 1 C50.92 1 25.84 1 0 1 C0 0.67 0 0.34 0 0 Z " fill="#004281" transform="translate(332,156)"/>
<path d="M0 0 C13.2 0 26.4 0 40 0 C40 0.33 40 0.66 40 1 C26.8 1 13.6 1 0 1 C0 0.67 0 0.34 0 0 Z " fill="#0039BD" transform="translate(350,313)"/>
<path d="M0 0 C2.31 0 4.62 0 7 0 C6.67 0.66 6.34 1.32 6 2 C4.35 1.67 2.7 1.34 1 1 C1 7.6 1 14.2 1 21 C0.67 21 0.34 21 0 21 C0 14.07 0 7.14 0 0 Z " fill="#003E7E" transform="translate(355,185)"/>
<path d="M0 0 C0.33 0 0.66 0 1 0 C1 6.93 1 13.86 1 21 C-0.98 21 -2.96 21 -5 21 C-5 20.67 -5 20.34 -5 20 C-3.35 20 -1.7 20 0 20 C0 13.4 0 6.8 0 0 Z " fill="#00427E" transform="translate(384,194)"/>
<path d="M0 0 C8.58 0 17.16 0 26 0 C26 0.33 26 0.66 26 1 C17.42 1 8.84 1 0 1 C0 0.67 0 0.34 0 0 Z " fill="#003EBA" transform="translate(357,86)"/>
<path d="M0 0 C0.33 0 0.66 0 1 0 C1 7.92 1 15.84 1 24 C0.67 24 0.34 24 0 24 C0 16.08 0 8.16 0 0 Z " fill="#004278" transform="translate(384,254)"/>
<path d="M0 0 C0.33 0 0.66 0 1 0 C1 7.92 1 15.84 1 24 C0.67 24 0.34 24 0 24 C0 16.08 0 8.16 0 0 Z " fill="#004278" transform="translate(359,254)"/>
<path d="M0 0 C0.33 0 0.66 0 1 0 C1 7.92 1 15.84 1 24 C0.67 24 0.34 24 0 24 C0 16.08 0 8.16 0 0 Z " fill="#005594" transform="translate(334,254)"/>
<path d="M0 0 C0.33 0 0.66 0 1 0 C1 7.92 1 15.84 1 24 C0.67 24 0.34 24 0 24 C0 16.08 0 8.16 0 0 Z " fill="#00559B" transform="translate(405,254)"/>
<path d="M0 0 C0.33 0 0.66 0 1 0 C1 7.92 1 15.84 1 24 C0.67 24 0.34 24 0 24 C0 16.08 0 8.16 0 0 Z " fill="#004078" transform="translate(380,254)"/>
<path d="M0 0 C0.33 0 0.66 0 1 0 C1 7.92 1 15.84 1 24 C0.67 24 0.34 24 0 24 C0 16.08 0 8.16 0 0 Z " fill="#004078" transform="translate(355,254)"/>
<path d="M0 0 C7.92 0 15.84 0 24 0 C24 0.33 24 0.66 24 1 C16.08 1 8.16 1 0 1 C0 0.67 0 0.34 0 0 Z " fill="#00559B" transform="translate(292,235)"/>
<path d="M0 0 C7.92 0 15.84 0 24 0 C24 0.33 24 0.66 24 1 C16.08 1 8.16 1 0 1 C0 0.67 0 0.34 0 0 Z " fill="#004078" transform="translate(424,214)"/>
<path d="M0 0 C7.92 0 15.84 0 24 0 C24 0.33 24 0.66 24 1 C16.08 1 8.16 1 0 1 C0 0.67 0 0.34 0 0 Z " fill="#004078" transform="translate(292,214)"/>
<path d="M0 0 C7.92 0 15.84 0 24 0 C24 0.33 24 0.66 24 1 C16.08 1 8.16 1 0 1 C0 0.67 0 0.34 0 0 Z " fill="#004078" transform="translate(424,210)"/>
<path d="M0 0 C7.92 0 15.84 0 24 0 C24 0.33 24 0.66 24 1 C16.08 1 8.16 1 0 1 C0 0.67 0 0.34 0 0 Z " fill="#004078" transform="translate(292,210)"/>
<path d="M0 0 C7.92 0 15.84 0 24 0 C24 0.33 24 0.66 24 1 C16.08 1 8.16 1 0 1 C0 0.67 0 0.34 0 0 Z " fill="#004078" transform="translate(424,189)"/>
<path d="M0 0 C7.92 0 15.84 0 24 0 C24 0.33 24 0.66 24 1 C16.08 1 8.16 1 0 1 C0 0.67 0 0.34 0 0 Z " fill="#004078" transform="translate(292,189)"/>
<path d="M0 0 C7.92 0 15.84 0 24 0 C24 0.33 24 0.66 24 1 C16.08 1 8.16 1 0 1 C0 0.67 0 0.34 0 0 Z " fill="#004078" transform="translate(424,185)"/>
<path d="M0 0 C7.92 0 15.84 0 24 0 C24 0.33 24 0.66 24 1 C16.08 1 8.16 1 0 1 C0 0.67 0 0.34 0 0 Z " fill="#004078" transform="translate(292,185)"/>
<path d="M0 0 C7.92 0 15.84 0 24 0 C24 0.33 24 0.66 24 1 C16.08 1 8.16 1 0 1 C0 0.67 0 0.34 0 0 Z " fill="#00559B" transform="translate(424,164)"/>
<path d="M0 0 C7.92 0 15.84 0 24 0 C24 0.33 24 0.66 24 1 C16.08 1 8.16 1 0 1 C0 0.67 0 0.34 0 0 Z " fill="#00559B" transform="translate(292,164)"/>
<path d="M0 0 C0.33 0 0.66 0 1 0 C1 7.92 1 15.84 1 24 C0.67 24 0.34 24 0 24 C0 16.08 0 8.16 0 0 Z " fill="#004177" transform="translate(384,122)"/>
<path d="M0 0 C0.33 0 0.66 0 1 0 C1 7.92 1 15.84 1 24 C0.67 24 0.34 24 0 24 C0 16.08 0 8.16 0 0 Z " fill="#004278" transform="translate(359,122)"/>
<path d="M0 0 C0.33 0 0.66 0 1 0 C1 7.92 1 15.84 1 24 C0.67 24 0.34 24 0 24 C0 16.08 0 8.16 0 0 Z " fill="#00559B" transform="translate(405,122)"/>
<path d="M0 0 C0.33 0 0.66 0 1 0 C1 7.92 1 15.84 1 24 C0.67 24 0.34 24 0 24 C0 16.08 0 8.16 0 0 Z " fill="#004078" transform="translate(380,122)"/>
<path d="M0 0 C0.33 0 0.66 0 1 0 C1 7.92 1 15.84 1 24 C0.67 24 0.34 24 0 24 C0 16.08 0 8.16 0 0 Z " fill="#004078" transform="translate(355,122)"/>
<path d="M0 0 C7.59 0 15.18 0 23 0 C23 0.33 23 0.66 23 1 C15.41 1 7.82 1 0 1 C0 0.67 0 0.34 0 0 Z " fill="#0058A2" transform="translate(425,235)"/>
<path d="M0 0 C0.33 0 0.66 0 1 0 C1 7.59 1 15.18 1 23 C0.67 23 0.34 23 0 23 C0 15.41 0 7.82 0 0 Z " fill="#00589E" transform="translate(334,122)"/>
<path d="M0 0 C0.33 0 0.66 0 1 0 C1 6.6 1 13.2 1 20 C0.67 20 0.34 20 0 20 C0 13.4 0 6.8 0 0 Z " fill="#00335B" transform="translate(516,215)"/>
<path d="M0 0 C0.33 0 0.66 0 1 0 C1 6.6 1 13.2 1 20 C0.67 20 0.34 20 0 20 C0 13.4 0 6.8 0 0 Z " fill="#003357" transform="translate(223,215)"/>
<path d="M0 0 C2.97 0 5.94 0 9 0 C9 0.33 9 0.66 9 1 C6.03 1 3.06 1 0 1 C0 0.67 0 0.34 0 0 Z " fill="#004250" transform="translate(390,312)"/>
<path d="M0 0 C2.97 0 5.94 0 9 0 C9 0.33 9 0.66 9 1 C6.03 1 3.06 1 0 1 C0 0.67 0 0.34 0 0 Z " fill="#004250" transform="translate(341,312)"/>
<path d="M0 0 C1.98 0.99 1.98 0.99 4 2 C4 2.99 4 3.98 4 5 C2.68 3.35 1.36 1.7 0 0 Z " fill="#000071" transform="translate(498,183)"/>
<path d="M0 0 C0.66 0.33 1.32 0.66 2 1 C0.35 2.32 -1.3 3.64 -3 5 C-1.125 1.125 -1.125 1.125 0 0 Z " fill="#000071" transform="translate(240,183)"/>
<path d="M0 0 C2.64 0 5.28 0 8 0 C8 0.33 8 0.66 8 1 C5.36 1 2.72 1 0 1 C0 0.67 0 0.34 0 0 Z " fill="#004A75" transform="translate(391,247)"/>
<path d="M0 0 C2.64 0 5.28 0 8 0 C8 0.33 8 0.66 8 1 C5.36 1 2.72 1 0 1 C0 0.67 0 0.34 0 0 Z " fill="#004A75" transform="translate(366,247)"/>
<path d="M0 0 C2.64 0 5.28 0 8 0 C8 0.33 8 0.66 8 1 C5.36 1 2.72 1 0 1 C0 0.67 0 0.34 0 0 Z " fill="#004A75" transform="translate(341,247)"/>
<path d="M0 0 C0.33 0 0.66 0 1 0 C1 2.64 1 5.28 1 8 C0.67 8 0.34 8 0 8 C0 5.36 0 2.72 0 0 Z " fill="#004A75" transform="translate(322,221)"/>
<path d="M0 0 C0.33 0 0.66 0 1 0 C1 2.64 1 5.28 1 8 C0.67 8 0.34 8 0 8 C0 5.36 0 2.72 0 0 Z " fill="#004A5F" transform="translate(417,196)"/>
<path d="M0 0 C0.33 0 0.66 0 1 0 C1 2.64 1 5.28 1 8 C0.67 8 0.34 8 0 8 C0 5.36 0 2.72 0 0 Z " fill="#004A75" transform="translate(322,196)"/>
<path d="M0 0 C0.33 0 0.66 0 1 0 C1 2.64 1 5.28 1 8 C0.67 8 0.34 8 0 8 C0 5.36 0 2.72 0 0 Z " fill="#004A5F" transform="translate(417,171)"/>
<path d="M0 0 C0.33 0 0.66 0 1 0 C1 2.64 1 5.28 1 8 C0.67 8 0.34 8 0 8 C0 5.36 0 2.72 0 0 Z " fill="#004A75" transform="translate(322,171)"/>
<path d="M0 0 C2.64 0 5.28 0 8 0 C8 0.33 8 0.66 8 1 C5.36 1 2.72 1 0 1 C0 0.67 0 0.34 0 0 Z " fill="#004A75" transform="translate(391,152)"/>
<path d="M0 0 C2.64 0 5.28 0 8 0 C8 0.33 8 0.66 8 1 C5.36 1 2.72 1 0 1 C0 0.67 0 0.34 0 0 Z " fill="#004A75" transform="translate(366,152)"/>
<path d="M0 0 C0.33 0 0.66 0 1 0 C1 2.31 1 4.62 1 7 C0.67 7 0.34 7 0 7 C0 4.69 0 2.38 0 0 Z " fill="#00556D" transform="translate(417,221)"/>
<path d="M0 0 C0.33 0.99 0.66 1.98 1 3 C-0.32 3.33 -1.64 3.66 -3 4 C-2.01 2.68 -1.02 1.36 0 0 Z " fill="#003043" transform="translate(362,214)"/>
<path d="M0 0 C1.32 1.32 2.64 2.64 4 4 C2.68 3.67 1.36 3.34 0 3 C0 2.01 0 1.02 0 0 Z " fill="#002491" transform="translate(352,214)"/>
<path d="M0 0 C1.32 0.33 2.64 0.66 4 1 C3.67 1.99 3.34 2.98 3 4 C2.01 2.68 1.02 1.36 0 0 Z " fill="#0024B6" transform="translate(384,182)"/>
<path d="M0 0 C0.99 0.33 1.98 0.66 3 1 C1.68 1.99 0.36 2.98 -1 4 C-0.67 2.68 -0.34 1.36 0 0 Z " fill="#003079" transform="translate(378,182)"/>
<path d="M0 0 C2.31 0 4.62 0 7 0 C7 0.33 7 0.66 7 1 C4.69 1 2.38 1 0 1 C0 0.67 0 0.34 0 0 Z " fill="#005585" transform="translate(342,152)"/>
<path d="M0 0 C1.98 0 3.96 0 6 0 C6 0.33 6 0.66 6 1 C4.02 1 2.04 1 0 1 C0 0.67 0 0.34 0 0 Z " fill="#00515C" transform="translate(399,311)"/>
<path d="M0 0 C1.98 0 3.96 0 6 0 C6 0.33 6 0.66 6 1 C4.02 1 2.04 1 0 1 C0 0.67 0 0.34 0 0 Z " fill="#00515C" transform="translate(335,311)"/>
<path d="M0 0 C1.98 0 3.96 0 6 0 C6 0.33 6 0.66 6 1 C4.02 1 2.04 1 0 1 C0 0.67 0 0.34 0 0 Z " fill="#003863" transform="translate(405,310)"/>
<path d="M0 0 C1.98 0 3.96 0 6 0 C6 0.33 6 0.66 6 1 C4.02 1 2.04 1 0 1 C0 0.67 0 0.34 0 0 Z " fill="#003863" transform="translate(329,310)"/>
<path d="M0 0 C1.98 0 3.96 0 6 0 C6 0.33 6 0.66 6 1 C4.02 1 2.04 1 0 1 C0 0.67 0 0.34 0 0 Z " fill="#00002A" transform="translate(411,309)"/>
<path d="M0 0 C1.98 0 3.96 0 6 0 C6 0.33 6 0.66 6 1 C4.02 1 2.04 1 0 1 C0 0.67 0 0.34 0 0 Z " fill="#00002A" transform="translate(323,309)"/>
<path d="M0 0 C1.98 0 3.96 0 6 0 C6 0.33 6 0.66 6 1 C4.02 1 2.04 1 0 1 C0 0.67 0 0.34 0 0 Z " fill="#0055AA" transform="translate(392,285)"/>
<path d="M0 0 C1.98 0 3.96 0 6 0 C6 0.33 6 0.66 6 1 C4.02 1 2.04 1 0 1 C0 0.67 0 0.34 0 0 Z " fill="#0055AA" transform="translate(367,285)"/>
<path d="M0 0 C1.98 0 3.96 0 6 0 C6 0.33 6 0.66 6 1 C4.02 1 2.04 1 0 1 C0 0.67 0 0.34 0 0 Z " fill="#0055AA" transform="translate(342,285)"/>
<path d="M0 0 C0.33 0 0.66 0 1 0 C1 1.98 1 3.96 1 6 C0.67 6 0.34 6 0 6 C0 4.02 0 2.04 0 0 Z " fill="#0055AA" transform="translate(455,222)"/>
<path d="M0 0 C0.33 0 0.66 0 1 0 C1 1.98 1 3.96 1 6 C0.67 6 0.34 6 0 6 C0 4.02 0 2.04 0 0 Z " fill="#0055AA" transform="translate(284,222)"/>
<path d="M0 0 C0.33 0 0.66 0 1 0 C1 1.98 1 3.96 1 6 C0.67 6 0.34 6 0 6 C0 4.02 0 2.04 0 0 Z " fill="#00477F" transform="translate(359,200)"/>
<path d="M0 0 C0.33 0 0.66 0 1 0 C1 1.98 1 3.96 1 6 C0.67 6 0.34 6 0 6 C0 4.02 0 2.04 0 0 Z " fill="#0055AA" transform="translate(455,197)"/>
<path d="M0 0 C0.33 0 0.66 0 1 0 C1 1.98 1 3.96 1 6 C0.67 6 0.34 6 0 6 C0 4.02 0 2.04 0 0 Z " fill="#0055AA" transform="translate(284,197)"/>
<path d="M0 0 C0.33 0 0.66 0 1 0 C1 1.98 1 3.96 1 6 C0.67 6 0.34 6 0 6 C0 4.02 0 2.04 0 0 Z " fill="#004771" transform="translate(380,194)"/>
<path d="M0 0 C0.33 0 0.66 0 1 0 C1 1.98 1 3.96 1 6 C0.67 6 0.34 6 0 6 C0 4.02 0 2.04 0 0 Z " fill="#0055AA" transform="translate(455,172)"/>
<path d="M0 0 C0.33 0 0.66 0 1 0 C1 1.98 1 3.96 1 6 C0.67 6 0.34 6 0 6 C0 4.02 0 2.04 0 0 Z " fill="#0055AA" transform="translate(284,172)"/>
<path d="M0 0 C1.98 0 3.96 0 6 0 C6 0.33 6 0.66 6 1 C4.02 1 2.04 1 0 1 C0 0.67 0 0.34 0 0 Z " fill="#0055AA" transform="translate(392,114)"/>
<path d="M0 0 C1.98 0 3.96 0 6 0 C6 0.33 6 0.66 6 1 C4.02 1 2.04 1 0 1 C0 0.67 0 0.34 0 0 Z " fill="#0055AA" transform="translate(367,114)"/>
<path d="M0 0 C1.98 0 3.96 0 6 0 C6 0.33 6 0.66 6 1 C4.02 1 2.04 1 0 1 C0 0.67 0 0.34 0 0 Z " fill="#0055AA" transform="translate(342,114)"/>
<path d="M0 0 C0.33 0.66 0.66 1.32 1 2 C0.34 2.66 -0.32 3.32 -1 4 C-0.67 2.68 -0.34 1.36 0 0 Z " fill="#003366" transform="translate(353,207)"/>
<path d="M0 0 C0.33 0.99 0.66 1.98 1 3 C0.01 3.495 0.01 3.495 -1 4 C-0.67 2.68 -0.34 1.36 0 0 Z " fill="#001966" transform="translate(387,189)"/>
<path d="M0 0 C0.33 0 0.66 0 1 0 C1 1.65 1 3.3 1 5 C0.67 5 0.34 5 0 5 C0 3.35 0 1.7 0 0 Z " fill="#00007F" transform="translate(464,159)"/>
<path d="M0 0 C0.33 0 0.66 0 1 0 C1 1.65 1 3.3 1 5 C0.67 5 0.34 5 0 5 C0 3.35 0 1.7 0 0 Z " fill="#000099" transform="translate(275,159)"/>
<path d="M0 0 C1.65 0 3.3 0 5 0 C5 0.33 5 0.66 5 1 C3.35 1 1.7 1 0 1 C0 0.67 0 0.34 0 0 Z " fill="#003744" transform="translate(388,88)"/>
<path d="M0 0 C1.65 0 3.3 0 5 0 C5 0.33 5 0.66 5 1 C3.35 1 1.7 1 0 1 C0 0.67 0 0.34 0 0 Z " fill="#003744" transform="translate(347,88)"/>
<path d="M0 0 C1.65 0 3.3 0 5 0 C5 0.33 5 0.66 5 1 C3.35 1 1.7 1 0 1 C0 0.67 0 0.34 0 0 Z " fill="#00516E" transform="translate(383,87)"/>
<path d="M0 0 C1.65 0 3.3 0 5 0 C5 0.33 5 0.66 5 1 C3.35 1 1.7 1 0 1 C0 0.67 0 0.34 0 0 Z " fill="#00516E" transform="translate(352,87)"/>
<path d="M0 0 C4 1 4 1 4 1 Z " fill="#00358A" transform="translate(418,308)"/>
<path d="M0 0 C4 1 4 1 4 1 Z " fill="#00358A" transform="translate(318,308)"/>
<path d="M0 0 C4 1 4 1 4 1 Z " fill="#00007F" transform="translate(433,304)"/>
<path d="M0 0 C4 1 4 1 4 1 Z " fill="#00007F" transform="translate(303,304)"/>
<path d="M0 0 C0.66 0.33 1.32 0.66 2 1 C1.01 1 0.02 1 -1 1 C-0.67 0.67 -0.34 0.34 0 0 Z " fill="#00007F" transform="translate(490,275)"/>
<path d="M0 0 C0.99 0.33 1.98 0.66 3 1 C2.01 1 1.02 1 0 1 C0 0.67 0 0.34 0 0 Z " fill="#00007F" transform="translate(248,275)"/>
<path d="M0 0 C0 3 0 3 0 3 Z " fill="#00005F" transform="translate(501,264)"/>
<path d="M0 0 C0.99 0.495 0.99 0.495 2 1 C1.67 1.66 1.34 2.32 1 3 C0.67 2.01 0.34 1.02 0 0 Z " fill="#00005F" transform="translate(238,264)"/>
<path d="M0 0 C1 4 1 4 1 4 Z " fill="#0000BF" transform="translate(513,242)"/>
<path d="M0 0 C1 4 1 4 1 4 Z " fill="#00007F" transform="translate(226,242)"/>
<path d="M0 0 C1 4 1 4 1 4 Z " fill="#00358A" transform="translate(515,235)"/>
<path d="M0 0 C1 4 1 4 1 4 Z " fill="#00358A" transform="translate(224,235)"/>
<path d="M0 0 C1 4 1 4 1 4 Z " fill="#004A4A" transform="translate(515,211)"/>
<path d="M0 0 C1 4 1 4 1 4 Z " fill="#004A4A" transform="translate(224,211)"/>
<path d="M0 0 C4 1 4 1 4 1 Z " fill="#004595" transform="translate(471,170)"/>
<path d="M0 0 C4 1 4 1 4 1 Z " fill="#004595" transform="translate(265,170)"/>
<path d="M0 0 C4 1 4 1 4 1 Z " fill="#00007F" transform="translate(396,90)"/>
<path d="M0 0 C4 1 4 1 4 1 Z " fill="#00007F" transform="translate(340,90)"/>
<path d="M0 0 C3 1 3 1 3 1 Z " fill="#002A2A" transform="translate(504,364)"/>
<path d="M0 0 C3 1 3 1 3 1 Z " fill="#002A2A" transform="translate(233,364)"/>
<path d="" fill="#002A2A" transform="translate(0,0)"/>
<path d="" fill="#002A2A" transform="translate(0,0)"/>
<path d="M0 0 C3 1 3 1 3 1 Z " fill="#00639C" transform="translate(423,307)"/>
<path d="M0 0 C3 1 3 1 3 1 Z " fill="#00639C" transform="translate(314,307)"/>
<path d="M0 0 C3 1 3 1 3 1 Z " fill="#004763" transform="translate(426,306)"/>
<path d="M0 0 C3 1 3 1 3 1 Z " fill="#004763" transform="translate(311,306)"/>
<path d="M0 0 C3 1 3 1 3 1 Z " fill="#001C71" transform="translate(430,305)"/>
<path d="M0 0 C3 1 3 1 3 1 Z " fill="#001C71" transform="translate(307,305)"/>
<path d="M0 0 C3 1 3 1 3 1 Z " fill="#004747" transform="translate(437,303)"/>
<path d="M0 0 C3 1 3 1 3 1 Z " fill="#004747" transform="translate(300,303)"/>
<path d="M0 0 C3 1 3 1 3 1 Z " fill="#003838" transform="translate(440,302)"/>
<path d="M0 0 C3 1 3 1 3 1 Z " fill="#003838" transform="translate(297,302)"/>
<path d="M0 0 C3 1 3 1 3 1 Z " fill="#001C71" transform="translate(443,301)"/>
<path d="M0 0 C3 1 3 1 3 1 Z " fill="#001C71" transform="translate(294,301)"/>
<path d="M0 0 C3 1 3 1 3 1 Z " fill="#0000AA" transform="translate(448,299)"/>
<path d="M0 0 C3 1 3 1 3 1 Z " fill="#0000AA" transform="translate(289,299)"/>
<path d="M0 0 C3 1 3 1 3 1 Z " fill="#002A7F" transform="translate(460,294)"/>
<path d="M0 0 C3 1 3 1 3 1 Z " fill="#002A7F" transform="translate(277,294)"/>
<path d="" fill="#0055AA" transform="translate(0,0)"/>
<path d="" fill="#002A55" transform="translate(0,0)"/>
<path d="" fill="#000000" transform="translate(0,0)"/>
<path d="" fill="#005555" transform="translate(0,0)"/>
<path d="" fill="#001C71" transform="translate(0,0)"/>
<path d="" fill="#005555" transform="translate(0,0)"/>
<path d="" fill="#0000FF" transform="translate(0,0)"/>
<path d="" fill="#0000FF" transform="translate(0,0)"/>
<path d="" fill="#001C71" transform="translate(0,0)"/>
<path d="" fill="#000000" transform="translate(0,0)"/>
<path d="M0 0 C3 1 3 1 3 1 Z " fill="#0000AA" transform="translate(481,173)"/>
<path d="M0 0 C3 1 3 1 3 1 Z " fill="#0000AA" transform="translate(256,173)"/>
<path d="M0 0 C3 1 3 1 3 1 Z " fill="#002A7F" transform="translate(478,172)"/>
<path d="M0 0 C3 1 3 1 3 1 Z " fill="#002A7F" transform="translate(259,172)"/>
<path d="M0 0 C3 1 3 1 3 1 Z " fill="#0038AA" transform="translate(475,171)"/>
<path d="M0 0 C3 1 3 1 3 1 Z " fill="#0038AA" transform="translate(262,171)"/>
<path d="M0 0 C3 1 3 1 3 1 Z " fill="#00718E" transform="translate(468,169)"/>
<path d="M0 0 C3 1 3 1 3 1 Z " fill="#00478E" transform="translate(269,169)"/>
<path d="" fill="#005555" transform="translate(0,0)"/>
<path d="" fill="#005555" transform="translate(0,0)"/>
<path d="" fill="#0038AA" transform="translate(0,0)"/>
<path d="" fill="#0038AA" transform="translate(0,0)"/>
<path d="" fill="#004763" transform="translate(0,0)"/>
<path d="" fill="#003855" transform="translate(0,0)"/>
<path d="" fill="#002A2A" transform="translate(0,0)"/>
<path d="" fill="#002A7F" transform="translate(0,0)"/>
<path d="" fill="#002A7F" transform="translate(0,0)"/>
<path d="" fill="#002A7F" transform="translate(0,0)"/>
<path d="M0 0 C3 1 3 1 3 1 Z " fill="#002A7F" transform="translate(410,95)"/>
<path d="M0 0 C3 1 3 1 3 1 Z " fill="#002A7F" transform="translate(327,95)"/>
<path d="M0 0 C3 1 3 1 3 1 Z " fill="#001C71" transform="translate(400,91)"/>
<path d="M0 0 C3 1 3 1 3 1 Z " fill="#001C71" transform="translate(337,91)"/>
<path d="M0 0 C3 1 3 1 3 1 Z " fill="#0055AA" transform="translate(393,89)"/>
<path d="M0 0 C3 1 3 1 3 1 Z " fill="#0055AA" transform="translate(344,89)"/>
<path d="" fill="#002A2A" transform="translate(0,0)"/>
<path d="" fill="#002A2A" transform="translate(0,0)"/>
<path d="M0 0 C3 1 3 1 3 1 Z " fill="#002A2A" transform="translate(504,35)"/>
<path d="M0 0 C3 1 3 1 3 1 Z " fill="#002A2A" transform="translate(233,35)"/>
<path d="M0 0 C2 1 2 1 2 1 Z " fill="#006A95" transform="translate(502,365)"/>
<path d="M0 0 C2 1 2 1 2 1 Z " fill="#006A95" transform="translate(236,365)"/>
<path d="M0 0 C2 1 2 1 2 1 Z " fill="#004040" transform="translate(509,362)"/>
<path d="M0 0 C2 1 2 1 2 1 Z " fill="#004040" transform="translate(229,362)"/>
<path d="M0 0 C2 1 2 1 2 1 Z " fill="#002A2A" transform="translate(511,361)"/>
<path d="M0 0 C2 1 2 1 2 1 Z " fill="#002A2A" transform="translate(227,361)"/>
<path d="M0 0 C2 1 2 1 2 1 Z " fill="#002A2A" transform="translate(514,359)"/>
<path d="M0 0 C2 1 2 1 2 1 Z " fill="#002A2A" transform="translate(224,359)"/>
<path d="M0 0 C2 1 2 1 2 1 Z " fill="#00007F" transform="translate(518,356)"/>
<path d="M0 0 C2 1 2 1 2 1 Z " fill="#00007F" transform="translate(220,356)"/>
<path d="" fill="#00007F" transform="translate(0,0)"/>
<path d="" fill="#00007F" transform="translate(0,0)"/>
<path d="" fill="#002A2A" transform="translate(0,0)"/>
<path d="" fill="#002A2A" transform="translate(0,0)"/>
<path d="" fill="#002A2A" transform="translate(0,0)"/>
<path d="" fill="#002A2A" transform="translate(0,0)"/>
<path d="" fill="#004040" transform="translate(0,0)"/>
<path d="" fill="#004040" transform="translate(0,0)"/>
<path d="" fill="#006A95" transform="translate(0,0)"/>
<path d="" fill="#006A95" transform="translate(0,0)"/>
<path d="M0 0 C2 1 2 1 2 1 Z " fill="#008080" transform="translate(446,300)"/>
<path d="M0 0 C2 1 2 1 2 1 Z " fill="#008080" transform="translate(292,300)"/>
<path d="M0 0 C2 1 2 1 2 1 Z " fill="#006A6A" transform="translate(452,298)"/>
<path d="M0 0 C2 1 2 1 2 1 Z " fill="#006A6A" transform="translate(286,298)"/>
<path d="M0 0 C2 1 2 1 2 1 Z " fill="#006A95" transform="translate(454,297)"/>
<path d="M0 0 C2 1 2 1 2 1 Z " fill="#006A95" transform="translate(284,297)"/>
<path d="M0 0 C2 1 2 1 2 1 Z " fill="#006A6A" transform="translate(456,296)"/>
<path d="M0 0 C2 1 2 1 2 1 Z " fill="#006A6A" transform="translate(282,296)"/>
<path d="M0 0 C2 1 2 1 2 1 Z " fill="#0040BF" transform="translate(458,295)"/>
<path d="M0 0 C2 1 2 1 2 1 Z " fill="#0040BF" transform="translate(280,295)"/>
<path d="M0 0 C2 1 2 1 2 1 Z " fill="#006A6A" transform="translate(463,293)"/>
<path d="M0 0 C2 1 2 1 2 1 Z " fill="#008080" transform="translate(275,293)"/>
<path d="M0 0 C2 1 2 1 2 1 Z " fill="#002A2A" transform="translate(466,291)"/>
<path d="M0 0 C2 1 2 1 2 1 Z " fill="#002A2A" transform="translate(272,291)"/>
<path d="M0 0 C2 1 2 1 2 1 Z " fill="#00007F" transform="translate(468,290)"/>
<path d="M0 0 C2 1 2 1 2 1 Z " fill="#00007F" transform="translate(270,290)"/>
<path d="M0 0 C2 1 2 1 2 1 Z " fill="#004040" transform="translate(470,289)"/>
<path d="M0 0 C2 1 2 1 2 1 Z " fill="#004040" transform="translate(268,289)"/>
<path d="M0 0 C2 1 2 1 2 1 Z " fill="#002AAA" transform="translate(472,288)"/>
<path d="M0 0 C2 1 2 1 2 1 Z " fill="#002AAA" transform="translate(266,288)"/>
<path d="M0 0 C2 1 2 1 2 1 Z " fill="#0000BF" transform="translate(475,286)"/>
<path d="M0 0 C2 1 2 1 2 1 Z " fill="#0000BF" transform="translate(263,286)"/>
<path d="M0 0 C2 1 2 1 2 1 Z " fill="#00007F" transform="translate(477,285)"/>
<path d="M0 0 C2 1 2 1 2 1 Z " fill="#00007F" transform="translate(261,285)"/>
<path d="M0 0 C2 1 2 1 2 1 Z " fill="#004040" transform="translate(398,284)"/>
<path d="M0 0 C2 1 2 1 2 1 Z " fill="#004040" transform="translate(373,284)"/>
<path d="M0 0 C2 1 2 1 2 1 Z " fill="#004040" transform="translate(365,284)"/>
<path d="M0 0 C2 1 2 1 2 1 Z " fill="#004040" transform="translate(340,284)"/>
<path d="M0 0 C2 1 2 1 2 1 Z " fill="#004040" transform="translate(481,282)"/>
<path d="M0 0 C2 1 2 1 2 1 Z " fill="#000000" transform="translate(387,282)"/>
<path d="" fill="#000040" transform="translate(0,0)"/>
<path d="M0 0 C2 1 2 1 2 1 Z " fill="#004040" transform="translate(257,282)"/>
<path d="M0 0 C2 1 2 1 2 1 Z " fill="#0000FF" transform="translate(484,280)"/>
<path d="M0 0 C2 1 2 1 2 1 Z " fill="#0000FF" transform="translate(254,280)"/>
<path d="" fill="#004080" transform="translate(0,0)"/>
<path d="" fill="#0040BF" transform="translate(0,0)"/>
<path d="" fill="#0040BF" transform="translate(0,0)"/>
<path d="" fill="#008080" transform="translate(0,0)"/>
<path d="" fill="#0040BF" transform="translate(0,0)"/>
<path d="" fill="#0040BF" transform="translate(0,0)"/>
<path d="" fill="#002A2A" transform="translate(0,0)"/>
<path d="" fill="#002A2A" transform="translate(0,0)"/>
<path d="" fill="#004040" transform="translate(0,0)"/>
<path d="" fill="#004040" transform="translate(0,0)"/>
<path d="" fill="#0000FF" transform="translate(0,0)"/>
<path d="" fill="#0000FF" transform="translate(0,0)"/>
<path d="" fill="#000000" transform="translate(0,0)"/>
<path d="" fill="#000000" transform="translate(0,0)"/>
<path d="" fill="#002AAA" transform="translate(0,0)"/>
<path d="" fill="#002AAA" transform="translate(0,0)"/>
<path d="" fill="#002A55" transform="translate(0,0)"/>
<path d="M0 0 C2 1 2 1 2 1 Z " fill="#000000" transform="translate(388,249)"/>
<path d="M0 0 C2 1 2 1 2 1 Z " fill="#004040" transform="translate(350,249)"/>
<path d="" fill="#002A55" transform="translate(0,0)"/>
<path d="" fill="#0020BF" transform="translate(0,0)"/>
<path d="" fill="#002AD4" transform="translate(0,0)"/>
<path d="M0 0 C2 1 2 1 2 1 Z " fill="#000040" transform="translate(408,242)"/>
<path d="M0 0 C2 1 2 1 2 1 Z " fill="#004040" transform="translate(330,242)"/>
<path d="" fill="#000040" transform="translate(0,0)"/>
<path d="" fill="#004040" transform="translate(0,0)"/>
<path d="M0 0 C2 1 2 1 2 1 Z " fill="#004080" transform="translate(448,234)"/>
<path d="M0 0 C2 1 2 1 2 1 Z " fill="#008080" transform="translate(290,234)"/>
<path d="" fill="#004040" transform="translate(0,0)"/>
<path d="" fill="#004040" transform="translate(0,0)"/>
<path d="" fill="#000000" transform="translate(0,0)"/>
<path d="" fill="#000000" transform="translate(0,0)"/>
<path d="M0 0 C2 1 2 1 2 1 Z " fill="#004040" transform="translate(421,216)"/>
<path d="M0 0 C2 1 2 1 2 1 Z " fill="#004040" transform="translate(317,216)"/>
<path d="M0 0 C2 1 2 1 2 1 Z " fill="#0040BF" transform="translate(448,209)"/>
<path d="M0 0 C2 1 2 1 2 1 Z " fill="#0040BF" transform="translate(290,209)"/>
<path d="" fill="#004040" transform="translate(0,0)"/>
<path d="" fill="#004040" transform="translate(0,0)"/>
<path d="" fill="#002A2A" transform="translate(0,0)"/>
<path d="" fill="#002A2A" transform="translate(0,0)"/>
<path d="" fill="#002A2A" transform="translate(0,0)"/>
<path d="" fill="#002A2A" transform="translate(0,0)"/>
<path d="" fill="#0040BF" transform="translate(0,0)"/>
<path d="" fill="#0040BF" transform="translate(0,0)"/>
<path d="" fill="#004040" transform="translate(0,0)"/>
<path d="" fill="#004040" transform="translate(0,0)"/>
<path d="" fill="#002A2A" transform="translate(0,0)"/>
<path d="" fill="#002A2A" transform="translate(0,0)"/>
<path d="" fill="#0000FF" transform="translate(0,0)"/>
<path d="" fill="#0000FF" transform="translate(0,0)"/>
<path d="M0 0 C2 1 2 1 2 1 Z " fill="#004040" transform="translate(448,190)"/>
<path d="M0 0 C2 1 2 1 2 1 Z " fill="#0040BF" transform="translate(290,190)"/>
<path d="M0 0 C2 1 2 1 2 1 Z " fill="#004040" transform="translate(421,183)"/>
<path d="M0 0 C2 1 2 1 2 1 Z " fill="#004040" transform="translate(317,183)"/>
<path d="M0 0 C2 1 2 1 2 1 Z " fill="#00007F" transform="translate(451,182)"/>
<path d="M0 0 C2 1 2 1 2 1 Z " fill="#000040" transform="translate(287,182)"/>
<path d="" fill="#000000" transform="translate(0,0)"/>
<path d="" fill="#004040" transform="translate(0,0)"/>
<path d="M0 0 C2 1 2 1 2 1 Z " fill="#0040BF" transform="translate(493,179)"/>
<path d="M0 0 C2 1 2 1 2 1 Z " fill="#0000BF" transform="translate(245,179)"/>
<path d="M0 0 C2 1 2 1 2 1 Z " fill="#008080" transform="translate(488,176)"/>
<path d="M0 0 C2 1 2 1 2 1 Z " fill="#008080" transform="translate(250,176)"/>
<path d="M0 0 C2 1 2 1 2 1 Z " fill="#002A55" transform="translate(486,175)"/>
<path d="M0 0 C2 1 2 1 2 1 Z " fill="#002A55" transform="translate(252,175)"/>
<path d="M0 0 C2 1 2 1 2 1 Z " fill="#002A2A" transform="translate(484,174)"/>
<path d="M0 0 C2 1 2 1 2 1 Z " fill="#002A2A" transform="translate(254,174)"/>
<path d="" fill="#004040" transform="translate(0,0)"/>
<path d="" fill="#004040" transform="translate(0,0)"/>
<path d="M0 0 C2 1 2 1 2 1 Z " fill="#004080" transform="translate(448,165)"/>
<path d="M0 0 C2 1 2 1 2 1 Z " fill="#004080" transform="translate(290,165)"/>
<path d="" fill="#000040" transform="translate(0,0)"/>
<path d="" fill="#000040" transform="translate(0,0)"/>
<path d="M0 0 C2 1 2 1 2 1 Z " fill="#000040" transform="translate(408,157)"/>
<path d="M0 0 C2 1 2 1 2 1 Z " fill="#000040" transform="translate(330,157)"/>
<path d="" fill="#006A6A" transform="translate(0,0)"/>
<path d="" fill="#006A6A" transform="translate(0,0)"/>
<path d="M0 0 C2 1 2 1 2 1 Z " fill="#000000" transform="translate(388,150)"/>
<path d="M0 0 C2 1 2 1 2 1 Z " fill="#004040" transform="translate(350,150)"/>
<path d="" fill="#000000" transform="translate(0,0)"/>
<path d="" fill="#004040" transform="translate(0,0)"/>
<path d="" fill="#002040" transform="translate(0,0)"/>
<path d="" fill="#002040" transform="translate(0,0)"/>
<path d="" fill="#002AAA" transform="translate(0,0)"/>
<path d="" fill="#002AAA" transform="translate(0,0)"/>
<path d="" fill="#008080" transform="translate(0,0)"/>
<path d="" fill="#008080" transform="translate(0,0)"/>
<path d="" fill="#0000FF" transform="translate(0,0)"/>
<path d="" fill="#0000FF" transform="translate(0,0)"/>
<path d="" fill="#002A2A" transform="translate(0,0)"/>
<path d="" fill="#004040" transform="translate(0,0)"/>
<path d="" fill="#002A2A" transform="translate(0,0)"/>
<path d="" fill="#002A2A" transform="translate(0,0)"/>
<path d="" fill="#004040" transform="translate(0,0)"/>
<path d="" fill="#004040" transform="translate(0,0)"/>
<path d="" fill="#0000FF" transform="translate(0,0)"/>
<path d="" fill="#00007F" transform="translate(0,0)"/>
<path d="" fill="#0000FF" transform="translate(0,0)"/>
<path d="" fill="#0000FF" transform="translate(0,0)"/>
<path d="" fill="#0040BF" transform="translate(0,0)"/>
<path d="" fill="#004040" transform="translate(0,0)"/>
<path d="" fill="#0040BF" transform="translate(0,0)"/>
<path d="" fill="#004080" transform="translate(0,0)"/>
<path d="" fill="#000000" transform="translate(0,0)"/>
<path d="M0 0 C2 1 2 1 2 1 Z " fill="#000000" transform="translate(387,117)"/>
<path d="M0 0 C2 1 2 1 2 1 Z " fill="#004040" transform="translate(398,115)"/>
<path d="M0 0 C2 1 2 1 2 1 Z " fill="#004040" transform="translate(373,115)"/>
<path d="M0 0 C2 1 2 1 2 1 Z " fill="#004040" transform="translate(365,115)"/>
<path d="M0 0 C2 1 2 1 2 1 Z " fill="#004040" transform="translate(340,115)"/>
<path d="M0 0 C2 1 2 1 2 1 Z " fill="#004040" transform="translate(430,107)"/>
<path d="M0 0 C2 1 2 1 2 1 Z " fill="#004040" transform="translate(308,107)"/>
<path d="M0 0 C2 1 2 1 2 1 Z " fill="#004040" transform="translate(426,104)"/>
<path d="M0 0 C2 1 2 1 2 1 Z " fill="#004040" transform="translate(312,104)"/>
<path d="M0 0 C2 1 2 1 2 1 Z " fill="#002A2A" transform="translate(315,102)"/>
<path d="M0 0 C2 1 2 1 2 1 Z " fill="#002A2A" transform="translate(420,100)"/>
<path d="M0 0 C2 1 2 1 2 1 Z " fill="#004040" transform="translate(318,100)"/>
<path d="M0 0 C2 1 2 1 2 1 Z " fill="#004040" transform="translate(418,99)"/>
<path d="M0 0 C2 1 2 1 2 1 Z " fill="#004040" transform="translate(320,99)"/>
<path d="M0 0 C2 1 2 1 2 1 Z " fill="#008080" transform="translate(415,97)"/>
<path d="M0 0 C2 1 2 1 2 1 Z " fill="#008080" transform="translate(323,97)"/>
<path d="M0 0 C2 1 2 1 2 1 Z " fill="#002AAA" transform="translate(413,96)"/>
<path d="M0 0 C2 1 2 1 2 1 Z " fill="#002AAA" transform="translate(325,96)"/>
<path d="M0 0 C2 1 2 1 2 1 Z " fill="#0040BF" transform="translate(408,94)"/>
<path d="M0 0 C2 1 2 1 2 1 Z " fill="#0040BF" transform="translate(330,94)"/>
<path d="M0 0 C2 1 2 1 2 1 Z " fill="#006A6A" transform="translate(406,93)"/>
<path d="M0 0 C2 1 2 1 2 1 Z " fill="#006A6A" transform="translate(332,93)"/>
<path d="M0 0 C2 1 2 1 2 1 Z " fill="#005555" transform="translate(404,92)"/>
<path d="M0 0 C2 1 2 1 2 1 Z " fill="#005555" transform="translate(334,92)"/>
<path d="" fill="#006A95" transform="translate(0,0)"/>
<path d="" fill="#006A95" transform="translate(0,0)"/>
<path d="" fill="#004040" transform="translate(0,0)"/>
<path d="" fill="#004040" transform="translate(0,0)"/>
<path d="" fill="#002A2A" transform="translate(0,0)"/>
<path d="" fill="#002A2A" transform="translate(0,0)"/>
<path d="" fill="#002A2A" transform="translate(0,0)"/>
<path d="" fill="#002A2A" transform="translate(0,0)"/>
<path d="" fill="#000000" transform="translate(0,0)"/>
<path d="" fill="#00007F" transform="translate(0,0)"/>
<path d="M0 0 C2 1 2 1 2 1 Z " fill="#000000" transform="translate(518,43)"/>
<path d="M0 0 C2 1 2 1 2 1 Z " fill="#00007F" transform="translate(220,43)"/>
<path d="M0 0 C2 1 2 1 2 1 Z " fill="#002A2A" transform="translate(514,40)"/>
<path d="M0 0 C2 1 2 1 2 1 Z " fill="#002A2A" transform="translate(224,40)"/>
<path d="M0 0 C2 1 2 1 2 1 Z " fill="#002A2A" transform="translate(511,38)"/>
<path d="M0 0 C2 1 2 1 2 1 Z " fill="#002A2A" transform="translate(227,38)"/>
<path d="M0 0 C2 1 2 1 2 1 Z " fill="#004040" transform="translate(509,37)"/>
<path d="M0 0 C2 1 2 1 2 1 Z " fill="#004040" transform="translate(229,37)"/>
<path d="M0 0 C2 1 2 1 2 1 Z " fill="#006A95" transform="translate(502,34)"/>
<path d="M0 0 C2 1 2 1 2 1 Z " fill="#006A95" transform="translate(236,34)"/>
<path d="" fill="#008080" transform="translate(0,0)"/>
<path d="" fill="#008080" transform="translate(0,0)"/>
<path d="" fill="#005555" transform="translate(0,0)"/>
<path d="" fill="#005555" transform="translate(0,0)"/>
<path d="" fill="#000080" transform="translate(0,0)"/>
<path d="" fill="#000080" transform="translate(0,0)"/>
<path d="" fill="#008080" transform="translate(0,0)"/>
<path d="" fill="#008080" transform="translate(0,0)"/>
<path d="" fill="#0000FF" transform="translate(0,0)"/>
<path d="" fill="#0000FF" transform="translate(0,0)"/>
<path d="" fill="#008080" transform="translate(0,0)"/>
<path d="" fill="#008080" transform="translate(0,0)"/>
<path d="" fill="#008080" transform="translate(0,0)"/>
<path d="" fill="#008080" transform="translate(0,0)"/>
<path d="" fill="#008080" transform="translate(0,0)"/>
<path d="" fill="#008080" transform="translate(0,0)"/>
<path d="" fill="#008080" transform="translate(0,0)"/>
<path d="" fill="#008080" transform="translate(0,0)"/>
<path d="" fill="#0000FF" transform="translate(0,0)"/>
<path d="" fill="#0000FF" transform="translate(0,0)"/>
<path d="" fill="#008080" transform="translate(0,0)"/>
<path d="" fill="#008080" transform="translate(0,0)"/>
<path d="" fill="#000080" transform="translate(0,0)"/>
<path d="" fill="#000080" transform="translate(0,0)"/>
<path d="" fill="#005555" transform="translate(0,0)"/>
<path d="" fill="#005555" transform="translate(0,0)"/>
<path d="" fill="#008080" transform="translate(0,0)"/>
<path d="" fill="#008080" transform="translate(0,0)"/>
<path d="" fill="#0055AA" transform="translate(0,0)"/>
<path d="" fill="#005555" transform="translate(0,0)"/>
<path d="" fill="#005555" transform="translate(0,0)"/>
<path d="" fill="#005555" transform="translate(0,0)"/>
<path d="" fill="#005555" transform="translate(0,0)"/>
<path d="" fill="#008080" transform="translate(0,0)"/>
<path d="" fill="#008080" transform="translate(0,0)"/>
<path d="" fill="#005555" transform="translate(0,0)"/>
<path d="" fill="#008080" transform="translate(0,0)"/>
<path d="" fill="#005555" transform="translate(0,0)"/>
<path d="" fill="#0000FF" transform="translate(0,0)"/>
<path d="" fill="#005555" transform="translate(0,0)"/>
<path d="" fill="#005555" transform="translate(0,0)"/>
<path d="" fill="#008080" transform="translate(0,0)"/>
<path d="" fill="#005555" transform="translate(0,0)"/>
<path d="" fill="#008080" transform="translate(0,0)"/>
<path d="" fill="#008080" transform="translate(0,0)"/>
<path d="" fill="#000080" transform="translate(0,0)"/>
<path d="" fill="#0000FF" transform="translate(0,0)"/>
<path d="" fill="#008080" transform="translate(0,0)"/>
<path d="" fill="#008080" transform="translate(0,0)"/>
<path d="" fill="#008080" transform="translate(0,0)"/>
<path d="" fill="#0000FF" transform="translate(0,0)"/>
<path d="" fill="#008080" transform="translate(0,0)"/>
<path d="" fill="#005555" transform="translate(0,0)"/>
<path d="" fill="#008080" transform="translate(0,0)"/>
<path d="" fill="#008080" transform="translate(0,0)"/>
<path d="" fill="#000080" transform="translate(0,0)"/>
<path d="" fill="#008080" transform="translate(0,0)"/>
<path d="" fill="#005555" transform="translate(0,0)"/>
<path d="" fill="#008080" transform="translate(0,0)"/>
<path d="" fill="#0055AA" transform="translate(0,0)"/>
<path d="" fill="#005555" transform="translate(0,0)"/>
<path d="" fill="#008080" transform="translate(0,0)"/>
<path d="" fill="#008080" transform="translate(0,0)"/>
<path d="" fill="#005555" transform="translate(0,0)"/>
<path d="" fill="#0055AA" transform="translate(0,0)"/>
<path d="" fill="#0055AA" transform="translate(0,0)"/>
<path d="" fill="#008080" transform="translate(0,0)"/>
<path d="" fill="#008080" transform="translate(0,0)"/>
<path d="" fill="#005555" transform="translate(0,0)"/>
<path d="" fill="#005555" transform="translate(0,0)"/>
<path d="" fill="#0055AA" transform="translate(0,0)"/>
<path d="" fill="#0055AA" transform="translate(0,0)"/>
<path d="" fill="#005555" transform="translate(0,0)"/>
<path d="" fill="#005555" transform="translate(0,0)"/>
<path d="" fill="#005555" transform="translate(0,0)"/>
<path d="" fill="#005555" transform="translate(0,0)"/>
<path d="" fill="#005555" transform="translate(0,0)"/>
<path d="" fill="#005555" transform="translate(0,0)"/>
<path d="" fill="#005555" transform="translate(0,0)"/>
<path d="" fill="#005555" transform="translate(0,0)"/>
<path d="" fill="#0055AA" transform="translate(0,0)"/>
<path d="" fill="#0055AA" transform="translate(0,0)"/>
<path d="" fill="#005555" transform="translate(0,0)"/>
<path d="" fill="#005555" transform="translate(0,0)"/>
<path d="" fill="#008080" transform="translate(0,0)"/>
<path d="" fill="#008080" transform="translate(0,0)"/>
<path d="" fill="#005555" transform="translate(0,0)"/>
<path d="" fill="#005555" transform="translate(0,0)"/>
<path d="" fill="#008080" transform="translate(0,0)"/>
<path d="" fill="#008080" transform="translate(0,0)"/>
<path d="" fill="#008080" transform="translate(0,0)"/>
<path d="" fill="#008080" transform="translate(0,0)"/>
<path d="" fill="#008080" transform="translate(0,0)"/>
<path d="" fill="#008080" transform="translate(0,0)"/>
<path d="" fill="#008080" transform="translate(0,0)"/>
<path d="" fill="#005555" transform="translate(0,0)"/>
<path d="" fill="#008080" transform="translate(0,0)"/>
<path d="" fill="#008080" transform="translate(0,0)"/>
<path d="" fill="#008080" transform="translate(0,0)"/>
<path d="" fill="#0000FF" transform="translate(0,0)"/>
<path d="" fill="#0000FF" transform="translate(0,0)"/>
<path d="" fill="#008080" transform="translate(0,0)"/>
<path d="" fill="#000000" transform="translate(0,0)"/>
<path d="" fill="#000000" transform="translate(0,0)"/>
<path d="" fill="#000000" transform="translate(0,0)"/>
<path d="" fill="#000000" transform="translate(0,0)"/>
<path d="" fill="#000000" transform="translate(0,0)"/>
<path d="" fill="#000000" transform="translate(0,0)"/>
<path d="" fill="#0000FF" transform="translate(0,0)"/>
<path d="" fill="#0000FF" transform="translate(0,0)"/>
<path d="" fill="#008080" transform="translate(0,0)"/>
<path d="" fill="#0000FF" transform="translate(0,0)"/>
<path d="" fill="#005555" transform="translate(0,0)"/>
<path d="" fill="#005555" transform="translate(0,0)"/>
<path d="" fill="#008080" transform="translate(0,0)"/>
<path d="" fill="#005555" transform="translate(0,0)"/>
<path d="" fill="#005555" transform="translate(0,0)"/>
<path d="" fill="#005555" transform="translate(0,0)"/>
<path d="" fill="#005555" transform="translate(0,0)"/>
<path d="" fill="#008080" transform="translate(0,0)"/>
<path d="" fill="#000080" transform="translate(0,0)"/>
<path d="" fill="#000080" transform="translate(0,0)"/>
<path d="" fill="#0000FF" transform="translate(0,0)"/>
<path d="" fill="#000080" transform="translate(0,0)"/>
<path d="" fill="#008080" transform="translate(0,0)"/>
<path d="" fill="#008080" transform="translate(0,0)"/>
<path d="" fill="#0055AA" transform="translate(0,0)"/>
<path d="" fill="#005555" transform="translate(0,0)"/>
<path d="" fill="#005555" transform="translate(0,0)"/>
<path d="" fill="#0055AA" transform="translate(0,0)"/>
<path d="" fill="#005555" transform="translate(0,0)"/>
<path d="" fill="#0000FF" transform="translate(0,0)"/>
<path d="" fill="#0000FF" transform="translate(0,0)"/>
<path d="" fill="#005555" transform="translate(0,0)"/>
<path d="" fill="#008080" transform="translate(0,0)"/>
<path d="" fill="#0000FF" transform="translate(0,0)"/>
<path d="" fill="#000000" transform="translate(0,0)"/>
<path d="" fill="#008080" transform="translate(0,0)"/>
<path d="" fill="#005555" transform="translate(0,0)"/>
<path d="" fill="#005555" transform="translate(0,0)"/>
<path d="" fill="#008080" transform="translate(0,0)"/>
<path d="" fill="#008080" transform="translate(0,0)"/>
<path d="" fill="#008080" transform="translate(0,0)"/>
<path d="" fill="#008080" transform="translate(0,0)"/>
<path d="" fill="#008080" transform="translate(0,0)"/>
<path d="" fill="#005555" transform="translate(0,0)"/>
<path d="" fill="#005555" transform="translate(0,0)"/>
<path d="" fill="#008080" transform="translate(0,0)"/>
<path d="" fill="#0000FF" transform="translate(0,0)"/>
<path d="" fill="#0000FF" transform="translate(0,0)"/>
<path d="" fill="#000000" transform="translate(0,0)"/>
<path d="" fill="#000000" transform="translate(0,0)"/>
<path d="" fill="#0000FF" transform="translate(0,0)"/>
<path d="" fill="#000000" transform="translate(0,0)"/>
<path d="" fill="#000000" transform="translate(0,0)"/>
<path d="" fill="#000000" transform="translate(0,0)"/>
<path d="" fill="#0000FF" transform="translate(0,0)"/>
<path d="" fill="#008080" transform="translate(0,0)"/>
<path d="" fill="#008080" transform="translate(0,0)"/>
<path d="" fill="#008080" transform="translate(0,0)"/>
<path d="" fill="#008080" transform="translate(0,0)"/>
<path d="" fill="#008080" transform="translate(0,0)"/>
<path d="" fill="#008080" transform="translate(0,0)"/>
<path d="" fill="#008080" transform="translate(0,0)"/>
<path d="" fill="#008080" transform="translate(0,0)"/>
<path d="" fill="#000000" transform="translate(0,0)"/>
<path d="" fill="#008080" transform="translate(0,0)"/>
<path d="" fill="#008080" transform="translate(0,0)"/>
<path d="" fill="#008080" transform="translate(0,0)"/>
<path d="" fill="#008080" transform="translate(0,0)"/>
<path d="" fill="#008080" transform="translate(0,0)"/>
<path d="" fill="#005555" transform="translate(0,0)"/>
<path d="" fill="#005555" transform="translate(0,0)"/>
<path d="" fill="#008080" transform="translate(0,0)"/>
<path d="" fill="#005555" transform="translate(0,0)"/>
<path d="" fill="#005555" transform="translate(0,0)"/>
<path d="" fill="#008080" transform="translate(0,0)"/>
<path d="" fill="#000000" transform="translate(0,0)"/>
<path d="" fill="#008080" transform="translate(0,0)"/>
<path d="" fill="#008080" transform="translate(0,0)"/>
<path d="" fill="#000000" transform="translate(0,0)"/>
<path d="" fill="#008080" transform="translate(0,0)"/>
<path d="" fill="#0000FF" transform="translate(0,0)"/>
<path d="" fill="#008080" transform="translate(0,0)"/>
<path d="" fill="#0000FF" transform="translate(0,0)"/>
<path d="" fill="#0000FF" transform="translate(0,0)"/>
<path d="" fill="#0000FF" transform="translate(0,0)"/>
<path d="" fill="#008080" transform="translate(0,0)"/>
<path d="" fill="#0000FF" transform="translate(0,0)"/>
<path d="" fill="#008080" transform="translate(0,0)"/>
<path d="" fill="#005555" transform="translate(0,0)"/>
<path d="" fill="#008080" transform="translate(0,0)"/>
<path d="" fill="#005555" transform="translate(0,0)"/>
<path d="" fill="#008080" transform="translate(0,0)"/>
<path d="" fill="#005555" transform="translate(0,0)"/>
<path d="" fill="#008080" transform="translate(0,0)"/>
<path d="" fill="#000000" transform="translate(0,0)"/>
<path d="" fill="#008080" transform="translate(0,0)"/>
<path d="" fill="#0000FF" transform="translate(0,0)"/>
<path d="" fill="#008080" transform="translate(0,0)"/>
<path d="" fill="#0055AA" transform="translate(0,0)"/>
<path d="" fill="#0000FF" transform="translate(0,0)"/>
<path d="" fill="#008080" transform="translate(0,0)"/>
<path d="" fill="#005555" transform="translate(0,0)"/>
<path d="" fill="#000080" transform="translate(0,0)"/>
<path d="" fill="#008080" transform="translate(0,0)"/>
<path d="" fill="#0000FF" transform="translate(0,0)"/>
<path d="" fill="#0000FF" transform="translate(0,0)"/>
<path d="" fill="#000080" transform="translate(0,0)"/>
<path d="" fill="#000000" transform="translate(0,0)"/>
<path d="" fill="#0000FF" transform="translate(0,0)"/>
<path d="" fill="#005555" transform="translate(0,0)"/>
<path d="" fill="#0000FF" transform="translate(0,0)"/>
<path d="" fill="#005555" transform="translate(0,0)"/>
<path d="" fill="#008080" transform="translate(0,0)"/>
<path d="" fill="#0000FF" transform="translate(0,0)"/>
<path d="" fill="#0000FF" transform="translate(0,0)"/>
<path d="" fill="#0000FF" transform="translate(0,0)"/>
<path d="" fill="#008080" transform="translate(0,0)"/>
<path d="" fill="#005555" transform="translate(0,0)"/>
<path d="" fill="#0000FF" transform="translate(0,0)"/>
<path d="" fill="#0000FF" transform="translate(0,0)"/>
<path d="" fill="#0000FF" transform="translate(0,0)"/>
<path d="" fill="#0000FF" transform="translate(0,0)"/>
<path d="" fill="#0000FF" transform="translate(0,0)"/>
<path d="" fill="#005555" transform="translate(0,0)"/>
<path d="" fill="#008080" transform="translate(0,0)"/>
<path d="" fill="#000000" transform="translate(0,0)"/>
<path d="" fill="#008080" transform="translate(0,0)"/>
<path d="" fill="#000080" transform="translate(0,0)"/>
<path d="" fill="#000000" transform="translate(0,0)"/>
<path d="" fill="#008080" transform="translate(0,0)"/>
<path d="" fill="#005555" transform="translate(0,0)"/>
<path d="" fill="#005555" transform="translate(0,0)"/>
<path d="" fill="#0000FF" transform="translate(0,0)"/>
<path d="" fill="#005555" transform="translate(0,0)"/>
<path d="" fill="#005555" transform="translate(0,0)"/>
<path d="" fill="#008080" transform="translate(0,0)"/>
<path d="" fill="#008080" transform="translate(0,0)"/>
<path d="" fill="#0000FF" transform="translate(0,0)"/>
<path d="" fill="#008080" transform="translate(0,0)"/>
<path d="" fill="#008080" transform="translate(0,0)"/>
<path d="" fill="#008080" transform="translate(0,0)"/>
<path d="" fill="#0000FF" transform="translate(0,0)"/>
<path d="" fill="#008080" transform="translate(0,0)"/>
<path d="" fill="#0000FF" transform="translate(0,0)"/>
<path d="" fill="#0000FF" transform="translate(0,0)"/>
<path d="" fill="#0000FF" transform="translate(0,0)"/>
<path d="" fill="#0000FF" transform="translate(0,0)"/>
<path d="" fill="#008080" transform="translate(0,0)"/>
<path d="" fill="#008080" transform="translate(0,0)"/>
<path d="" fill="#008080" transform="translate(0,0)"/>
<path d="" fill="#008080" transform="translate(0,0)"/>
<path d="" fill="#008080" transform="translate(0,0)"/>
<path d="" fill="#008080" transform="translate(0,0)"/>
<path d="" fill="#008080" transform="translate(0,0)"/>
<path d="" fill="#000000" transform="translate(0,0)"/>
<path d="" fill="#0000FF" transform="translate(0,0)"/>
<path d="" fill="#0000FF" transform="translate(0,0)"/>
<path d="" fill="#008080" transform="translate(0,0)"/>
<path d="" fill="#005555" transform="translate(0,0)"/>
<path d="" fill="#008080" transform="translate(0,0)"/>
<path d="" fill="#008080" transform="translate(0,0)"/>
<path d="" fill="#008080" transform="translate(0,0)"/>
<path d="" fill="#005555" transform="translate(0,0)"/>
<path d="" fill="#008080" transform="translate(0,0)"/>
<path d="" fill="#005555" transform="translate(0,0)"/>
<path d="" fill="#005555" transform="translate(0,0)"/>
<path d="" fill="#008080" transform="translate(0,0)"/>
<path d="" fill="#008080" transform="translate(0,0)"/>
<path d="" fill="#008080" transform="translate(0,0)"/>
<path d="" fill="#008080" transform="translate(0,0)"/>
<path d="" fill="#008080" transform="translate(0,0)"/>
<path d="" fill="#008080" transform="translate(0,0)"/>
<path d="" fill="#008080" transform="translate(0,0)"/>
<path d="" fill="#005555" transform="translate(0,0)"/>
<path d="" fill="#008080" transform="translate(0,0)"/>
<path d="" fill="#008080" transform="translate(0,0)"/>
<path d="" fill="#008080" transform="translate(0,0)"/>
<path d="" fill="#008080" transform="translate(0,0)"/>
<path d="" fill="#000000" transform="translate(0,0)"/>
<path d="" fill="#000000" transform="translate(0,0)"/>
<path d="" fill="#008080" transform="translate(0,0)"/>
<path d="" fill="#005555" transform="translate(0,0)"/>
<path d="" fill="#0000FF" transform="translate(0,0)"/>
<path d="" fill="#0000FF" transform="translate(0,0)"/>
<path d="" fill="#005555" transform="translate(0,0)"/>
<path d="" fill="#005555" transform="translate(0,0)"/>
<path d="" fill="#005555" transform="translate(0,0)"/>
<path d="" fill="#005555" transform="translate(0,0)"/>
<path d="" fill="#005555" transform="translate(0,0)"/>
<path d="" fill="#008080" transform="translate(0,0)"/>
<path d="" fill="#008080" transform="translate(0,0)"/>
<path d="" fill="#0000FF" transform="translate(0,0)"/>
<path d="" fill="#000080" transform="translate(0,0)"/>
<path d="" fill="#0000FF" transform="translate(0,0)"/>
<path d="" fill="#0000FF" transform="translate(0,0)"/>
<path d="" fill="#008080" transform="translate(0,0)"/>
<path d="" fill="#005555" transform="translate(0,0)"/>
<path d="" fill="#005555" transform="translate(0,0)"/>
<path d="" fill="#005555" transform="translate(0,0)"/>
<path d="" fill="#005555" transform="translate(0,0)"/>
<path d="" fill="#008080" transform="translate(0,0)"/>
<path d="" fill="#005555" transform="translate(0,0)"/>
<path d="" fill="#005555" transform="translate(0,0)"/>
<path d="" fill="#005555" transform="translate(0,0)"/>
<path d="" fill="#005555" transform="translate(0,0)"/>
<path d="" fill="#0000FF" transform="translate(0,0)"/>
<path d="" fill="#000000" transform="translate(0,0)"/>
<path d="" fill="#000000" transform="translate(0,0)"/>
<path d="" fill="#000000" transform="translate(0,0)"/>
<path d="" fill="#0000FF" transform="translate(0,0)"/>
<path d="" fill="#0000FF" transform="translate(0,0)"/>
<path d="" fill="#000000" transform="translate(0,0)"/>
<path d="" fill="#0000FF" transform="translate(0,0)"/>
<path d="" fill="#008080" transform="translate(0,0)"/>
<path d="" fill="#0000FF" transform="translate(0,0)"/>
<path d="" fill="#005555" transform="translate(0,0)"/>
<path d="" fill="#005555" transform="translate(0,0)"/>
<path d="" fill="#008080" transform="translate(0,0)"/>
<path d="" fill="#008080" transform="translate(0,0)"/>
<path d="" fill="#008080" transform="translate(0,0)"/>
<path d="" fill="#008080" transform="translate(0,0)"/>
<path d="" fill="#008080" transform="translate(0,0)"/>
<path d="" fill="#008080" transform="translate(0,0)"/>
<path d="" fill="#008080" transform="translate(0,0)"/>
<path d="" fill="#008080" transform="translate(0,0)"/>
<path d="" fill="#008080" transform="translate(0,0)"/>
<path d="" fill="#008080" transform="translate(0,0)"/>
<path d="" fill="#005555" transform="translate(0,0)"/>
<path d="" fill="#005555" transform="translate(0,0)"/>
<path d="" fill="#008080" transform="translate(0,0)"/>
<path d="" fill="#008080" transform="translate(0,0)"/>
<path d="" fill="#0055AA" transform="translate(0,0)"/>
<path d="" fill="#0055AA" transform="translate(0,0)"/>
<path d="" fill="#0055AA" transform="translate(0,0)"/>
<path d="" fill="#008080" transform="translate(0,0)"/>
<path d="" fill="#008080" transform="translate(0,0)"/>
<path d="" fill="#0055AA" transform="translate(0,0)"/>
<path d="" fill="#005555" transform="translate(0,0)"/>
<path d="" fill="#008080" transform="translate(0,0)"/>
<path d="" fill="#000080" transform="translate(0,0)"/>
<path d="" fill="#008080" transform="translate(0,0)"/>
<path d="" fill="#008080" transform="translate(0,0)"/>
<path d="" fill="#000080" transform="translate(0,0)"/>
<path d="" fill="#008080" transform="translate(0,0)"/>
<path d="" fill="#005555" transform="translate(0,0)"/>
<path d="" fill="#008080" transform="translate(0,0)"/>
<path d="" fill="#008080" transform="translate(0,0)"/>
<path d="" fill="#0000FF" transform="translate(0,0)"/>
<path d="" fill="#0000FF" transform="translate(0,0)"/>
<path d="" fill="#008080" transform="translate(0,0)"/>
<path d="" fill="#008080" transform="translate(0,0)"/>
<path d="" fill="#0000FF" transform="translate(0,0)"/>
<path d="" fill="#008080" transform="translate(0,0)"/>
<path d="" fill="#0000FF" transform="translate(0,0)"/>
<path d="" fill="#000080" transform="translate(0,0)"/>
<path d="" fill="#008080" transform="translate(0,0)"/>
<path d="" fill="#0000FF" transform="translate(0,0)"/>
<path d="" fill="#0000FF" transform="translate(0,0)"/>
<path d="" fill="#008080" transform="translate(0,0)"/>
<path d="" fill="#0000FF" transform="translate(0,0)"/>
<path d="" fill="#008080" transform="translate(0,0)"/>
<path d="" fill="#005555" transform="translate(0,0)"/>
<path d="" fill="#008080" transform="translate(0,0)"/>
<path d="" fill="#005555" transform="translate(0,0)"/>
<path d="" fill="#0000FF" transform="translate(0,0)"/>
<path d="" fill="#000000" transform="translate(0,0)"/>
<path d="" fill="#008080" transform="translate(0,0)"/>
<path d="" fill="#008080" transform="translate(0,0)"/>
<path d="" fill="#000000" transform="translate(0,0)"/>
<path d="" fill="#000000" transform="translate(0,0)"/>
<path d="" fill="#000000" transform="translate(0,0)"/>
<path d="" fill="#0000FF" transform="translate(0,0)"/>
<path d="" fill="#0000FF" transform="translate(0,0)"/>
<path d="" fill="#0000FF" transform="translate(0,0)"/>
<path d="" fill="#0000FF" transform="translate(0,0)"/>
<path d="" fill="#000080" transform="translate(0,0)"/>
<path d="" fill="#000080" transform="translate(0,0)"/>
<path d="" fill="#008080" transform="translate(0,0)"/>
<path d="" fill="#008080" transform="translate(0,0)"/>
<path d="" fill="#005555" transform="translate(0,0)"/>
<path d="" fill="#005555" transform="translate(0,0)"/>
<path d="" fill="#005555" transform="translate(0,0)"/>
<path d="" fill="#005555" transform="translate(0,0)"/>
<path d="" fill="#008080" transform="translate(0,0)"/>
<path d="" fill="#008080" transform="translate(0,0)"/>
<path d="" fill="#008080" transform="translate(0,0)"/>
<path d="" fill="#008080" transform="translate(0,0)"/>
<path d="" fill="#008080" transform="translate(0,0)"/>
<path d="" fill="#008080" transform="translate(0,0)"/>
<path d="" fill="#005555" transform="translate(0,0)"/>
<path d="" fill="#008080" transform="translate(0,0)"/>
<path d="" fill="#008080" transform="translate(0,0)"/>
<path d="" fill="#005555" transform="translate(0,0)"/>
<path d="" fill="#005555" transform="translate(0,0)"/>
<path d="" fill="#008080" transform="translate(0,0)"/>
<path d="" fill="#008080" transform="translate(0,0)"/>
<path d="" fill="#005555" transform="translate(0,0)"/>
<path d="" fill="#005555" transform="translate(0,0)"/>
<path d="" fill="#000080" transform="translate(0,0)"/>
<path d="" fill="#000080" transform="translate(0,0)"/>
<path d="" fill="#008080" transform="translate(0,0)"/>
<path d="" fill="#008080" transform="translate(0,0)"/>
<path d="" fill="#0000FF" transform="translate(0,0)"/>
<path d="" fill="#0000FF" transform="translate(0,0)"/>
<path d="" fill="#008080" transform="translate(0,0)"/>
<path d="" fill="#008080" transform="translate(0,0)"/>
<path d="" fill="#008080" transform="translate(0,0)"/>
<path d="" fill="#008080" transform="translate(0,0)"/>
<path d="" fill="#008080" transform="translate(0,0)"/>
<path d="" fill="#008080" transform="translate(0,0)"/>
<path d="" fill="#008080" transform="translate(0,0)"/>
<path d="" fill="#008080" transform="translate(0,0)"/>
<path d="" fill="#0000FF" transform="translate(0,0)"/>
<path d="" fill="#0000FF" transform="translate(0,0)"/>
<path d="" fill="#008080" transform="translate(0,0)"/>
<path d="" fill="#008080" transform="translate(0,0)"/>
<path d="" fill="#000080" transform="translate(0,0)"/>
<path d="" fill="#000080" transform="translate(0,0)"/>
<path d="" fill="#005555" transform="translate(0,0)"/>
<path d="" fill="#005555" transform="translate(0,0)"/>
<path d="" fill="#008080" transform="translate(0,0)"/>
<path d="" fill="#008080" transform="translate(0,0)"/>
</svg>
