<?xml version="1.0" encoding="UTF-8"?>
<svg version="1.1" xmlns="http://www.w3.org/2000/svg" width="600" height="370">
<path d="M0 0 C24.069375 -0.0928125 24.069375 -0.0928125 48.625 -0.1875 C53.66604004 -0.21481201 58.70708008 -0.24212402 63.90087891 -0.27026367 C70.12182617 -0.28381348 70.12182617 -0.28381348 73.04672241 -0.28633118 C75.06196081 -0.29089671 77.07719172 -0.301361 79.09237671 -0.31672668 C98.4109526 -0.45649085 117.34565566 0.57306199 132.74609375 13.7734375 C144.3536543 25.24017842 147.89023636 39.9138037 148.03515625 55.87109375 C147.4323808 70.23479159 143.25181522 81.79292248 133 92 C127.10807904 96.77642385 120.97268708 100.13451216 114 103 C122.70291314 118.78650612 131.52207472 134.49369265 140.5625 150.08984375 C141.12195313 151.05647949 141.68140625 152.02311523 142.2578125 153.01904297 C143.48872984 155.12519498 144.73504999 157.22238093 145.9921875 159.31298828 C146.63414062 160.38661621 147.27609375 161.46024414 147.9375 162.56640625 C148.52402344 163.53650635 149.11054688 164.50660645 149.71484375 165.50610352 C151 168 151 168 151 171 C144.25613888 171.20297343 137.51306546 171.34298898 130.7668457 171.43945312 C128.472601 171.47966605 126.17856108 171.53424675 123.88500977 171.60351562 C120.58558698 171.70066252 117.28887387 171.74594803 113.98828125 171.78125 C112.96414627 171.82254028 111.94001129 171.86383057 110.88484192 171.90637207 C103.9361486 171.91074294 103.9361486 171.91074294 101.31660461 169.36228943 C100.00094883 167.29512321 98.97956306 165.24375677 98 163 C97.46189697 162.04359619 96.92379395 161.08719238 96.36938477 160.10180664 C95.89815186 159.21356201 95.42691895 158.32531738 94.94140625 157.41015625 C94.39693848 156.38986328 93.8524707 155.36957031 93.29150391 154.31835938 C92.72093262 153.24392578 92.15036133 152.16949219 91.5625 151.0625 C85.94440324 140.53669268 80.18270586 130.10885317 74.26782227 119.74633789 C73.70764404 118.75754639 73.14746582 117.76875488 72.5703125 116.75 C72.07289551 115.87859375 71.57547852 115.0071875 71.06298828 114.109375 C70 112 70 112 70 110 C61.42 110 52.84 110 44 110 C44 130.13 44 150.26 44 171 C29.48 171 14.96 171 0 171 C0 114.57 0 58.14 0 0 Z M44 33 C44 47.52 44 62.04 44 77 C51.095 77.061875 58.19 77.12375 65.5 77.1875 C67.72427734 77.21481201 69.94855469 77.24212402 72.24023438 77.27026367 C74.02473408 77.27903446 75.80923983 77.28667699 77.59375 77.29296875 C78.95741699 77.3159906 78.95741699 77.3159906 80.34863281 77.33947754 C86.89409542 77.34213685 92.68654314 76.58424048 98.0234375 72.421875 C103.56008645 65.57307225 104.84789233 58.67764803 104 50 C102.78843182 44.02734749 100.93834647 39.815995 96 36 C90.06300138 32.81965396 85.13438522 32.59824595 78.47265625 32.70703125 C77.48373886 32.71127609 76.49482147 32.71552094 75.47593689 32.71989441 C72.33783991 32.73659871 69.20040072 32.77423585 66.0625 32.8125 C63.92644161 32.82755749 61.79037309 32.84124403 59.65429688 32.85351562 C54.43574466 32.88391496 49.21860291 32.94265272 44 33 Z " fill="#040608" transform="translate(281,78)"/>
<path d="M0 0 C17.29652766 -0.36663463 34.83127378 1.50585549 49.7578125 10.74609375 C57.12424388 18.11252513 60.30542991 27.21936416 60.42289734 37.48207092 C60.42191544 38.24482834 60.42093353 39.00758575 60.41992188 39.79345703 C60.42675491 40.62069778 60.43358795 41.44793854 60.44062805 42.30024719 C60.45413931 44.08382614 60.46324161 45.86744298 60.46833801 47.65106583 C60.4766966 50.48690136 60.49726834 53.32242543 60.52087402 56.15817261 C60.56891753 62.18743272 60.60192348 68.21672458 60.6328125 74.24609375 C60.66867255 81.21899001 60.71093769 88.19173429 60.76875305 95.16448593 C60.78856881 97.93488478 60.79709101 100.70516215 60.80505371 103.47561646 C60.81805051 105.20786963 60.8315743 106.94011897 60.84570312 108.67236328 C60.84472122 109.42297531 60.84373932 110.17358734 60.84272766 110.94694519 C60.9243757 118.24721414 62.07035023 124.68385787 63.1328125 132.12109375 C51.5828125 132.12109375 40.0328125 132.12109375 28.1328125 132.12109375 C26.5596979 128.18830725 25.70548622 125.22525539 25.1328125 121.12109375 C24.1840625 122.00796875 23.2353125 122.89484375 22.2578125 123.80859375 C9.67930201 134.49654655 -5.96435482 136.33411598 -21.8671875 135.12109375 C-33.0857864 133.70441061 -42.27145644 128.878706 -49.3671875 119.99609375 C-55.96888742 110.16118423 -56.82379977 99.11333576 -55.1796875 87.68359375 C-54.07909045 82.11903662 -52.03066176 77.79947118 -48.8671875 73.12109375 C-48.28904297 72.21423828 -48.28904297 72.21423828 -47.69921875 71.2890625 C-36.92303975 56.60030158 -13.60697161 52.56192365 3.2109375 49.64453125 C9.83238968 48.76079162 16.46097907 48.3783852 23.1328125 48.12109375 C23.27059751 37.17309768 23.27059751 37.17309768 18.1328125 28.12109375 C14.11704076 26.08122386 10.66842907 25.82316416 6.1953125 25.80859375 C5.01066406 25.79183594 3.82601562 25.77507812 2.60546875 25.7578125 C-2.59099715 26.30142479 -5.80900677 27.82776174 -9.1171875 31.87109375 C-11.2734286 35.59788435 -11.2734286 35.59788435 -12.8671875 42.12109375 C-25.0771875 42.12109375 -37.2871875 42.12109375 -49.8671875 42.12109375 C-48.84935101 28.88921941 -47.71058152 19.93834245 -37.8671875 11.12109375 C-27.13747929 2.69339566 -13.27835844 0.5608026 0 0 Z M5.8828125 74.74609375 C4.07876953 75.24302734 4.07876953 75.24302734 2.23828125 75.75 C-6.20413559 78.20580731 -13.11619933 80.83278866 -17.9921875 88.43359375 C-19.11599337 93.16963278 -18.77515283 96.6460478 -16.8671875 101.12109375 C-12.88789048 105.43199885 -8.36683877 106.88074267 -2.6171875 107.43359375 C5.08399146 106.79182884 11.787037 104.96415069 17.1328125 99.12109375 C21.55010918 91.83495493 23.28134581 85.82589163 23.1953125 77.30859375 C23.18628906 76.14714844 23.17726563 74.98570312 23.16796875 73.7890625 C23.15636719 72.90863281 23.14476562 72.02820313 23.1328125 71.12109375 C17.08418807 71.12109375 11.6617604 73.06438933 5.8828125 74.74609375 Z " fill="#040608" transform="translate(499.8671875,116.87890625)"/>
<path d="M0 0 C11.17709994 10.48662272 18.00652256 25.4032723 18.70849609 40.69287109 C19.27703359 61.79767213 17.83111715 81.24483074 3.7109375 98.0859375 C-0.52697678 102.43145508 -5.25002568 105.85838267 -10.4140625 109.0234375 C-11.16042969 109.48621094 -11.90679687 109.94898438 -12.67578125 110.42578125 C-29.89001205 120.04120049 -53.02319998 120.70224451 -71.8671875 116.1796875 C-88.67220748 110.70139905 -102.15259524 100.9678379 -110.4140625 85.0234375 C-119.6446632 65.65955906 -119.13444315 43.30964627 -113.5703125 22.93359375 C-110.49559156 14.54437669 -105.02295793 6.98756264 -98.4140625 1.0234375 C-97.888125 0.49363281 -97.3621875 -0.03617188 -96.8203125 -0.58203125 C-71.25244614 -25.12068265 -25.91716705 -21.22020473 0 0 Z M-70.9140625 21.8984375 C-79.59549366 34.19713164 -79.71708803 49.13301309 -77.98828125 63.58203125 C-76.30441173 71.52617642 -72.72502142 78.5904904 -66.28515625 83.71875 C-58.32167765 88.85174725 -49.64474855 89.03287383 -40.4140625 88.0234375 C-34.0990784 86.21693157 -28.69855921 82.85077036 -25.4140625 77.0234375 C-18.90157683 63.53461391 -16.92333236 48.49988677 -21.0390625 33.8984375 C-23.65101867 26.57942251 -27.73671284 20.21619194 -34.4140625 16.0234375 C-46.50282586 10.3591285 -61.68364425 11.60297099 -70.9140625 21.8984375 Z " fill="#040608" transform="translate(238.4140625,133.9765625)"/>
<path d="M0 0 C14.19 0 28.38 0 43 0 C43 44.22 43 88.44 43 134 C64.78 134 86.56 134 109 134 C109 146.21 109 158.42 109 171 C73.03 171 37.06 171 0 171 C0 114.57 0 58.14 0 0 Z " fill="#040608" transform="translate(0,78)"/>
<path d="M0 0 C3.66977947 1.46791179 6.78926622 2.97864811 10.16040039 4.96948242 C47.37115872 26.8557157 91.3869632 32.85384743 133.25 22.4375 C148.92941103 18.29935351 163.58085019 11.92328999 177.3828125 3.43359375 C180 2 180 2 183 2 C184.9375 4.484375 184.9375 4.484375 187 7.75 C189.71876375 12.08276691 189.71876375 12.08276691 192.8125 16.140625 C194 18 194 18 193.86010742 19.93164062 C192.66181566 22.8132551 191.14263051 23.4599648 188.42578125 24.953125 C187.45930664 25.48615234 186.49283203 26.01917969 185.49707031 26.56835938 C184.44616211 27.12330078 183.39525391 27.67824219 182.3125 28.25 C181.23194336 28.82556641 180.15138672 29.40113281 179.03808594 29.99414062 C162.60953042 38.53679774 145.14787251 44.36231038 127 48 C126.09451416 48.18546387 125.18902832 48.37092773 124.25610352 48.56201172 C113.90167536 50.42798937 103.54839472 50.39633436 93.0625 50.375 C91.62877045 50.37468277 91.62877045 50.37468277 90.16607666 50.37435913 C76.07715601 50.34320137 62.66185724 49.71790703 49 46 C48.27425781 45.81808105 47.54851562 45.63616211 46.80078125 45.44873047 C30.7819945 41.42605938 15.47850419 35.15505964 1 27.25 C0.15719482 26.79028809 -0.68561035 26.33057617 -1.55395508 25.85693359 C-5.78244725 23.47740517 -8.46706135 21.53293865 -12 18 C-8.04 12.06 -4.08 6.12 0 0 Z " fill="#27ABE1" transform="translate(98,320)"/>
<path d="M0 0 C0.98149017 0.00087616 1.96298035 0.00175232 2.97421265 0.00265503 C17.20943134 0.04465283 30.77770573 0.52590986 44.5625 4.375 C45.48111816 4.61637695 46.39973633 4.85775391 47.34619141 5.10644531 C64.56629577 9.67968165 80.79887857 16.1832798 96.1875 25.1875 C96.80947266 25.54827637 97.43144531 25.90905273 98.07226562 26.28076172 C101.60830602 28.44603333 102.63138651 29.51277303 104.5625 33.375 C100.6025 38.985 96.6425 44.595 92.5625 50.375 C91.0775 49.55 89.5925 48.725 88.0625 47.875 C80.65783023 43.84388634 73.15276456 40.04263177 65.5625 36.375 C64.61117187 35.90964844 63.65984375 35.44429687 62.6796875 34.96484375 C26.01663402 18.34354691 -18.25919236 19.49200692 -55.61328125 32.8203125 C-65.68142845 36.7114866 -76.13028477 41.2797518 -85.2109375 47.17578125 C-85.94570312 47.57152344 -86.68046875 47.96726563 -87.4375 48.375 C-90.82706166 47.24514611 -91.22324251 46.63630237 -93.13671875 43.77734375 C-93.62333984 43.05869141 -94.10996094 42.34003906 -94.61132812 41.59960938 C-95.3605957 40.46749023 -95.3605957 40.46749023 -96.125 39.3125 C-96.63611328 38.55388672 -97.14722656 37.79527344 -97.67382812 37.01367188 C-98.93556185 35.13875915 -100.18970179 33.2592038 -101.4375 31.375 C-97.24601018 26.60803924 -92.55039158 23.94642356 -86.9375 21.0625 C-86.01332275 20.58538574 -85.08914551 20.10827148 -84.13696289 19.61669922 C-68.3250417 11.62839184 -51.81652284 5.83904496 -34.4375 2.375 C-33.53636475 2.18953613 -32.63522949 2.00407227 -31.70678711 1.81298828 C-21.19138752 -0.09087394 -10.65009658 -0.02312737 0 0 Z " fill="#27ABE1" transform="translate(187.4375,-0.37499999999999994)"/>
<path d="M0 0 C0.78455566 0.19335938 1.56911133 0.38671875 2.37744141 0.5859375 C18.4288995 4.67210715 34.73972202 10.84573308 48 21 C46.61219205 24.89006773 44.7847773 27.96558708 42.375 31.3125 C41.74335938 32.19550781 41.11171875 33.07851562 40.4609375 33.98828125 C39.97882813 34.65214844 39.49671875 35.31601563 39 36 C35.51034757 35.24674169 32.77650507 33.8323897 29.67236328 32.06689453 C0.86709471 15.794351 -33.27494485 11.42904503 -65.36376953 19.60205078 C-75.32613186 22.3920138 -84.51466532 26.43774613 -93.64453125 31.265625 C-96.39943472 32.68957976 -99.09893156 33.91693445 -102 35 C-103.53682963 32.92692768 -105.05399635 30.84352513 -106.5625 28.75 C-107.00013672 28.16347656 -107.43777344 27.57695313 -107.88867188 26.97265625 C-110.94734865 22.68569195 -110.94734865 22.68569195 -111.16796875 19.8125 C-109.33802035 16.97271385 -106.68339581 15.73425072 -103.75 14.25 C-103.09104736 13.91000977 -102.43209473 13.57001953 -101.75317383 13.21972656 C-70.73596774 -2.30848281 -34.04074869 -8.54696078 0 0 Z " fill="#27ABE1" transform="translate(221,43)"/>
<path d="M0 0 C3.48959282 0.75324544 6.22338367 2.16746556 9.32739258 3.93310547 C37.9077349 20.07671662 71.82923194 24.52776682 103.65087891 16.31591797 C115.09362476 13.08377468 125.49811608 8.58938306 135.82421875 2.72265625 C139 1 139 1 141 1 C142.63820852 3.07289562 144.14252648 5.13280065 145.625 7.3125 C146.04523438 7.90740234 146.46546875 8.50230469 146.8984375 9.11523438 C150 13.62156301 150 13.62156301 150 17 C115.81700812 35.85576315 77.98890147 45.71642149 39 36 C38.21399414 35.80664062 37.42798828 35.61328125 36.61816406 35.4140625 C20.56869475 31.32759644 4.25864052 25.15301301 -9 15 C-8.39889717 10.99264783 -6.33397972 8.44530629 -3.9375 5.25 C-2.83728516 3.77273438 -2.83728516 3.77273438 -1.71484375 2.265625 C-1.14894531 1.51796875 -0.58304688 0.7703125 0 0 Z " fill="#27ABE1" transform="translate(119,291)"/>
<path d="M0 0 C3.53478452 0.88369613 6.35010623 2.10592172 9.58398438 3.73022461 C21.05015188 9.45943116 33.08149524 13.45179777 46 14 C47.23363281 14.05994141 47.23363281 14.05994141 48.4921875 14.12109375 C66.9250469 14.57523666 83.70338672 9.12040148 100 1 C101.15093925 2.4334152 102.29558035 3.87188909 103.4375 5.3125 C104.07558594 6.11300781 104.71367187 6.91351563 105.37109375 7.73828125 C107 10 107 10 108 13 C79.88305529 28.63317304 50.12181226 33.19469859 18.88671875 24.33203125 C14.416822 22.87749519 10.14270447 21.02486352 5.875 19.0625 C5.1641626 18.73878418 4.4533252 18.41506836 3.72094727 18.08154297 C-0.69155557 15.95471766 -3.73293085 13.65479526 -7 10 C-3.535 5.05 -3.535 5.05 0 0 Z " fill="#27ABE1" transform="translate(139,262)"/>
<path d="M0 0 C-0.61198376 3.43950364 -1.92058847 5.51564485 -4.0625 8.25 C-4.61035156 8.95640625 -5.15820312 9.6628125 -5.72265625 10.390625 C-6.14417969 10.92171875 -6.56570312 11.4528125 -7 12 C-10.4258515 10.69675706 -13.68335234 9.17558377 -16.96069336 7.53759766 C-38.55228983 -3.1030599 -63.44876348 -5.23399585 -86.390625 2.39453125 C-91.74184452 4.29953145 -96.92119754 6.31030804 -101.8359375 9.19140625 C-105 11 -105 11 -107 11 C-108.76171875 8.91796875 -108.76171875 8.91796875 -110.6875 6.1875 C-111.33074219 5.29417969 -111.97398437 4.40085937 -112.63671875 3.48046875 C-113.08660156 2.66191406 -113.53648437 1.84335938 -114 1 C-112.78792235 -2.63623296 -111.38181915 -3.15343284 -108.08764648 -4.85498047 C-107.39872314 -5.19158691 -106.7097998 -5.52819336 -106 -5.875 C-105.28593994 -6.22578613 -104.57187988 -6.57657227 -103.83618164 -6.93798828 C-70.96732849 -22.53178381 -30.41423698 -20.27615799 0 0 Z " fill="#27ABE1" transform="translate(246,96)"/>
<path d="M0 0 C1.65 0 3.3 0 5 0 C5.8394882 2.10171867 6.67139656 4.20646625 7.5 6.3125 C8.19609375 8.07013672 8.19609375 8.07013672 8.90625 9.86328125 C10 13 10 13 10 16 C10.66 16 11.32 16 12 16 C12.19335938 15.26394531 12.38671875 14.52789062 12.5859375 13.76953125 C12.84632813 12.79371094 13.10671875 11.81789063 13.375 10.8125 C13.75785156 9.36810547 13.75785156 9.36810547 14.1484375 7.89453125 C14.94766296 5.17789793 15.9031362 2.60862825 17 0 C18.65 0 20.3 0 22 0 C22 7.92 22 15.84 22 24 C21.01 24 20.02 24 19 24 C18.505 17.565 18.505 17.565 18 11 C16.35 15.29 14.7 19.58 13 24 C11.68 24 10.36 24 9 24 C7.68 20.37 6.36 16.74 5 13 C4.67 16.63 4.34 20.26 4 24 C2.68 24 1.36 24 0 24 C0 16.08 0 8.16 0 0 Z " fill="#040608" transform="translate(578,115)"/>
<path d="M0 0 C6.27 0 12.54 0 19 0 C19 1.32 19 2.64 19 4 C16.36 4 13.72 4 11 4 C11 10.6 11 17.2 11 24 C9.68 24 8.36 24 7 24 C7 17.4 7 10.8 7 4 C4.36 4 1.72 4 -1 4 C-0.67 2.68 -0.34 1.36 0 0 Z " fill="#040608" transform="translate(557,115)"/>
</svg>
