<svg width="64" height="64" viewBox="0 0 64 64" fill="none" xmlns="http://www.w3.org/2000/svg">
  <path fill="#111" d="M0 0H64V48L48 64H0V0Z" />
  <g id="surface1">
<path style=" stroke:none;fill-rule:nonzero;fill:rgb(95.294118%,95.294118%,95.294118%);fill-opacity:1;" d="M 47.488281 13.566406 C 48.730469 13.730469 49.734375 14.875 50.617188 15.695312 C 50.902344 15.960938 51.191406 16.214844 51.488281 16.464844 C 52.789062 17.609375 52.789062 17.609375 52.960938 18.328125 C 52.824219 18.839844 52.660156 19.027344 52.222656 19.328125 C 51.9375 19.363281 51.671875 19.351562 51.386719 19.335938 C 49.816406 19.296875 48.652344 20.050781 47.558594 21.089844 C 47.394531 21.25 47.226562 21.410156 47.058594 21.570312 C 46.578125 22.035156 46.070312 22.453125 45.550781 22.871094 C 45.195312 23.15625 44.855469 23.453125 44.511719 23.753906 C 43.492188 24.65625 42.429688 25.488281 41.339844 26.304688 C 41.039062 26.535156 40.734375 26.769531 40.433594 27.003906 C 39.703125 27.574219 38.953125 28.121094 38.195312 28.65625 C 37.835938 28.898438 37.835938 28.898438 37.503906 29.183594 C 37.671875 29.3125 37.84375 29.4375 38.015625 29.566406 C 37.976562 29.945312 37.945312 30.152344 37.671875 30.425781 C 37.140625 30.726562 36.707031 30.847656 36.097656 30.847656 C 36.105469 33.746094 36.113281 36.640625 36.125 39.539062 C 36.132812 40.882812 36.136719 42.226562 36.140625 43.574219 C 36.144531 44.746094 36.148438 45.921875 36.152344 47.09375 C 36.15625 47.714844 36.160156 48.335938 36.160156 48.957031 C 36.164062 51.394531 36.183594 53.792969 36.527344 56.214844 C 36.722656 57.59375 36.722656 57.59375 36.351562 58.113281 C 35.933594 58.375 35.585938 58.410156 35.097656 58.414062 C 34.96875 58.417969 34.839844 58.421875 34.710938 58.425781 C 34.105469 58.339844 33.632812 58.113281 33.234375 57.65625 C 33.074219 57.433594 32.933594 57.203125 32.792969 56.96875 C 32.71875 56.851562 32.71875 56.851562 32.644531 56.730469 C 31.964844 55.628906 31.964844 55.628906 32.089844 54.929688 C 32.144531 54.710938 32.199219 54.492188 32.257812 54.273438 C 32.578125 52.929688 32.695312 51.660156 32.683594 50.277344 C 32.683594 50.078125 32.683594 49.878906 32.683594 49.679688 C 32.683594 49.144531 32.679688 48.609375 32.679688 48.074219 C 32.675781 47.511719 32.675781 46.949219 32.675781 46.386719 C 32.675781 45.328125 32.671875 44.265625 32.667969 43.207031 C 32.664062 41.996094 32.660156 40.789062 32.660156 39.578125 C 32.65625 37.097656 32.648438 34.613281 32.640625 32.128906 C 32.570312 32.171875 32.503906 32.214844 32.429688 32.261719 C 32.113281 32.460938 31.796875 32.660156 31.480469 32.859375 C 31.371094 32.929688 31.261719 33 31.152344 33.070312 C 27.597656 35.3125 23.964844 37.382812 20.222656 39.296875 C 20.078125 39.371094 19.933594 39.445312 19.785156 39.523438 C 16.054688 41.4375 12.246094 43.046875 8.296875 44.460938 C 8.082031 44.535156 7.871094 44.613281 7.65625 44.691406 C 7.332031 44.8125 7.003906 44.925781 6.679688 45.039062 C 6.59375 45.070312 6.507812 45.101562 6.417969 45.136719 C 5.898438 45.3125 5.523438 45.316406 4.992188 45.183594 C 4.902344 44.886719 4.902344 44.886719 4.863281 44.542969 C 5.179688 44.097656 5.707031 43.925781 6.191406 43.710938 C 6.332031 43.644531 6.332031 43.644531 6.476562 43.578125 C 6.679688 43.488281 6.882812 43.394531 7.089844 43.304688 C 7.628906 43.058594 8.171875 42.8125 8.710938 42.566406 C 8.820312 42.515625 8.929688 42.464844 9.042969 42.414062 C 12.882812 40.660156 16.625 38.730469 20.25 36.566406 C 20.59375 36.363281 20.933594 36.160156 21.277344 35.960938 C 22.917969 34.984375 24.507812 33.9375 26.097656 32.878906 C 26.199219 32.808594 26.304688 32.738281 26.414062 32.667969 C 28.347656 31.378906 30.253906 30.046875 32.128906 28.671875 C 31.746094 27.976562 31.273438 27.707031 30.566406 27.398438 C 30.304688 27.28125 30.0625 27.167969 29.824219 27.007812 C 29.695312 26.65625 29.695312 26.65625 29.695312 26.367188 C 30.300781 26.125 30.816406 26.085938 31.457031 26.136719 C 31.546875 26.140625 31.636719 26.148438 31.726562 26.15625 C 32.53125 26.222656 33.339844 26.355469 34.042969 26.773438 C 34.40625 26.921875 34.574219 26.878906 34.945312 26.753906 C 35.320312 26.507812 35.320312 26.507812 35.703125 26.191406 C 35.777344 26.136719 35.847656 26.078125 35.921875 26.019531 C 36.074219 25.898438 36.226562 25.777344 36.378906 25.65625 C 36.601562 25.476562 36.828125 25.300781 37.054688 25.125 C 38.011719 24.382812 38.941406 23.617188 39.859375 22.832031 C 40.054688 22.664062 40.257812 22.5 40.457031 22.335938 C 41.53125 21.453125 42.515625 20.488281 43.496094 19.511719 C 43.601562 19.40625 43.601562 19.40625 43.707031 19.300781 C 43.90625 19.101562 44.109375 18.902344 44.304688 18.703125 C 44.480469 18.527344 44.480469 18.527344 44.660156 18.347656 C 44.953125 18.0625 44.953125 18.0625 45.054688 17.664062 C 44.296875 17.648438 43.589844 17.6875 42.839844 17.8125 C 42.742188 17.828125 42.640625 17.84375 42.539062 17.859375 C 42.210938 17.914062 41.882812 17.964844 41.554688 18.019531 C 41.320312 18.058594 41.085938 18.09375 40.855469 18.132812 C 40.234375 18.230469 39.617188 18.332031 39 18.433594 C 38.617188 18.496094 38.234375 18.558594 37.851562 18.621094 C 29.160156 19.515625 29.160156 19.515625 21.121094 22.398438 C 21.035156 22.398438 20.949219 22.398438 20.863281 22.398438 C 20.835938 22.480469 20.804688 22.558594 20.777344 22.640625 C 20.546875 23.011719 20.390625 23.066406 19.96875 23.167969 C 18.34375 23.167969 17.226562 21.921875 16.128906 20.863281 C 16.03125 20.777344 15.929688 20.6875 15.828125 20.597656 C 14.910156 19.757812 14.144531 18.449219 14.054688 17.179688 C 14.058594 17.070312 14.0625 16.960938 14.0625 16.847656 C 14.066406 16.734375 14.070312 16.625 14.070312 16.507812 C 14.074219 16.425781 14.078125 16.34375 14.078125 16.257812 C 14.359375 16.152344 14.359375 16.152344 14.71875 16.128906 C 15.03125 16.386719 15.277344 16.65625 15.515625 16.984375 C 16.273438 17.976562 17.476562 18.484375 18.6875 18.6875 C 21.28125 18.914062 23.84375 18.46875 26.390625 18.011719 C 29.738281 17.414062 33.105469 16.953125 36.472656 16.488281 C 37.699219 16.320312 38.925781 16.148438 40.148438 15.980469 C 40.570312 15.921875 40.992188 15.863281 41.414062 15.804688 C 42.042969 15.71875 42.671875 15.628906 43.300781 15.539062 C 43.53125 15.503906 43.761719 15.472656 43.992188 15.441406 C 44.308594 15.398438 44.625 15.351562 44.945312 15.304688 C 45.035156 15.292969 45.125 15.28125 45.222656 15.269531 C 46.132812 15.128906 46.660156 14.65625 47.230469 13.953125 C 47.316406 13.824219 47.402344 13.699219 47.488281 13.566406 Z M 47.488281 13.566406 "/>
<path style=" stroke:none;fill-rule:nonzero;fill:rgb(95.294118%,95.294118%,95.294118%);fill-opacity:1;" d="M 41.605469 32.011719 C 46.257812 32.996094 50.804688 34.671875 54.398438 37.886719 C 54.5 37.976562 54.597656 38.0625 54.699219 38.152344 C 55.285156 38.699219 55.75 39.285156 56.183594 39.953125 C 56.230469 40.027344 56.28125 40.097656 56.332031 40.175781 C 56.96875 41.1875 57.082031 42.21875 56.960938 43.390625 C 56.730469 43.902344 56.550781 44.089844 56.097656 44.398438 C 55.59375 44.574219 55.171875 44.679688 54.65625 44.542969 C 54.261719 44.292969 53.953125 43.988281 53.632812 43.648438 C 53.519531 43.53125 53.519531 43.53125 53.40625 43.410156 C 52.980469 42.941406 52.605469 42.449219 52.238281 41.9375 C 51.726562 41.222656 51.164062 40.574219 50.558594 39.9375 C 50.480469 39.851562 50.402344 39.765625 50.324219 39.679688 C 47.457031 36.671875 43.304688 34.433594 39.601562 32.675781 C 39.257812 32.492188 39.164062 32.363281 39.039062 32 C 39.773438 31.511719 40.773438 31.851562 41.605469 32.011719 Z M 41.605469 32.011719 "/>
<path style=" stroke:none;fill-rule:nonzero;fill:rgb(95.294118%,95.294118%,95.294118%);fill-opacity:1;" d="M 28.449219 2.871094 C 28.613281 2.921875 28.613281 2.921875 28.78125 2.976562 C 31.386719 3.808594 33.796875 5.082031 35.839844 6.910156 C 35.933594 6.996094 36.027344 7.078125 36.125 7.167969 C 37.164062 8.140625 37.9375 9.375 38.050781 10.8125 C 38.078125 11.875 38.097656 13.144531 37.472656 14.054688 C 37.089844 14.453125 36.808594 14.582031 36.265625 14.648438 C 35.71875 14.632812 35.417969 14.476562 35.027344 14.097656 C 34.414062 13.300781 34.089844 12.320312 33.792969 11.367188 C 32.722656 8.050781 29.492188 5.289062 26.507812 3.699219 C 26.113281 3.457031 26.113281 3.457031 25.992188 3.039062 C 25.988281 2.925781 25.988281 2.808594 25.984375 2.6875 C 26.742188 2.308594 27.6875 2.636719 28.449219 2.871094 Z M 28.449219 2.871094 "/>
</g>
</svg>
