<?xml version="1.0" standalone="no"?>
<!DOCTYPE svg PUBLIC "-//W3C//DTD SVG 20010904//EN"
 "http://www.w3.org/TR/2001/REC-SVG-20010904/DTD/svg10.dtd">
<svg version="1.0" xmlns="http://www.w3.org/2000/svg"
 width="1920.000000pt" height="1920.000000pt" viewBox="0 0 1920.000000 1920.000000"
 preserveAspectRatio="xMidYMid meet">

<g transform="translate(0.000000,1920.000000) scale(0.100000,-0.100000)"
fill="#000000" stroke="none">
<path d="M4387 15380 c9 -14 519 -689 845 -1120 81 -107 525 -694 987 -1305
l840 -1110 1 -2522 0 -2523 610 0 610 0 2 1711 3 1712 285 -377 c157 -208 409
-541 560 -741 151 -200 605 -800 1009 -1334 l734 -971 525 0 525 0 -20 23
c-11 12 -101 114 -199 227 -99 113 -373 426 -610 695 -236 270 -947 1080
-1579 1800 -1439 1640 -1724 1965 -2005 2285 -124 141 -333 379 -465 530 -132
150 -422 481 -645 735 -653 744 -1445 1647 -1719 1960 -232 266 -321 364 -294
325z"/>
<path d="M7307 12366 c15 -18 247 -282 514 -587 869 -989 1157 -1317 1504
-1714 189 -214 477 -543 641 -730 164 -187 474 -540 688 -785 215 -245 474
-540 576 -656 102 -115 406 -462 675 -769 270 -307 688 -784 930 -1060 804
-916 1789 -2039 1883 -2147 52 -60 96 -108 99 -108 3 0 1 6 -4 13 -6 6 -423
559 -928 1227 -505 668 -1127 1490 -1382 1827 l-463 612 0 2456 0 2455 -610 0
-610 0 -2 -1645 -3 -1645 -390 516 c-214 284 -522 690 -683 902 -557 738
-1208 1597 -1311 1734 l-104 138 -524 0 -524 0 28 -34z"/>
</g>
</svg>
